<mxfile host="app.diagrams.net" modified="2021-12-15T02:06:37.691Z" agent="5.0 (Macintosh; Intel Mac OS X 10_15_7) AppleWebKit/537.36 (KHTML, like Gecko) Chrome/96.0.4664.93 Safari/537.36" etag="Wi5ZeROyrDwN2ptFbXd5" version="15.9.4" type="github" pages="7">
  <diagram id="Es_KrPeHeZ678epylgb1" name="第 1 页">
    <mxGraphModel dx="1698" dy="758" grid="0" gridSize="10" guides="0" tooltips="1" connect="1" arrows="1" fold="1" page="0" pageScale="1" pageWidth="827" pageHeight="1169" math="0" shadow="0">
      <root>
        <mxCell id="0" />
        <mxCell id="1" parent="0" />
        <mxCell id="Ql9siXfaunIRFQ8CMtLW-1" value="CMDKEY" style="whiteSpace=wrap;html=1;align=center;fillColor=#dae8fc;strokeColor=#6c8ebf;" parent="1" vertex="1">
          <mxGeometry x="20" y="370" width="100" height="40" as="geometry" />
        </mxCell>
        <mxCell id="Ql9siXfaunIRFQ8CMtLW-30" style="edgeStyle=orthogonalEdgeStyle;rounded=0;orthogonalLoop=1;jettySize=auto;html=1;exitX=0.5;exitY=1;exitDx=0;exitDy=0;entryX=0.5;entryY=0;entryDx=0;entryDy=0;endArrow=none;endFill=0;" parent="1" target="Ql9siXfaunIRFQ8CMtLW-28" edge="1">
          <mxGeometry relative="1" as="geometry">
            <mxPoint x="414" y="410" as="sourcePoint" />
          </mxGeometry>
        </mxCell>
        <mxCell id="Ql9siXfaunIRFQ8CMtLW-33" value="1" style="edgeLabel;html=1;align=center;verticalAlign=middle;resizable=0;points=[];" parent="Ql9siXfaunIRFQ8CMtLW-30" vertex="1" connectable="0">
          <mxGeometry x="-0.1552" y="-1" relative="1" as="geometry">
            <mxPoint x="7" y="3" as="offset" />
          </mxGeometry>
        </mxCell>
        <mxCell id="Ql9siXfaunIRFQ8CMtLW-3" value="Param" style="whiteSpace=wrap;html=1;align=center;fillColor=#dae8fc;strokeColor=#6c8ebf;" parent="1" vertex="1">
          <mxGeometry x="740" y="370" width="100" height="40" as="geometry" />
        </mxCell>
        <mxCell id="Ql9siXfaunIRFQ8CMtLW-4" value="包含" style="shape=rhombus;perimeter=rhombusPerimeter;whiteSpace=wrap;html=1;align=center;fillColor=#f8cecc;strokeColor=#b85450;" parent="1" vertex="1">
          <mxGeometry x="180" y="360" width="120" height="60" as="geometry" />
        </mxCell>
        <mxCell id="Ql9siXfaunIRFQ8CMtLW-8" value="" style="endArrow=none;html=1;rounded=0;exitX=1;exitY=0.5;exitDx=0;exitDy=0;entryX=0;entryY=0.5;entryDx=0;entryDy=0;" parent="1" source="Ql9siXfaunIRFQ8CMtLW-4" edge="1">
          <mxGeometry relative="1" as="geometry">
            <mxPoint x="330" y="580" as="sourcePoint" />
            <mxPoint x="364" y="390" as="targetPoint" />
          </mxGeometry>
        </mxCell>
        <mxCell id="Ql9siXfaunIRFQ8CMtLW-9" value="N" style="resizable=0;html=1;align=right;verticalAlign=bottom;" parent="Ql9siXfaunIRFQ8CMtLW-8" connectable="0" vertex="1">
          <mxGeometry x="1" relative="1" as="geometry">
            <mxPoint x="-24" as="offset" />
          </mxGeometry>
        </mxCell>
        <mxCell id="Ql9siXfaunIRFQ8CMtLW-10" value="" style="endArrow=none;html=1;rounded=0;entryX=1;entryY=0.5;entryDx=0;entryDy=0;exitX=0;exitY=0.5;exitDx=0;exitDy=0;" parent="1" source="Ql9siXfaunIRFQ8CMtLW-4" target="Ql9siXfaunIRFQ8CMtLW-1" edge="1">
          <mxGeometry relative="1" as="geometry">
            <mxPoint x="330" y="580" as="sourcePoint" />
            <mxPoint x="490" y="580" as="targetPoint" />
          </mxGeometry>
        </mxCell>
        <mxCell id="Ql9siXfaunIRFQ8CMtLW-11" value="1" style="resizable=0;html=1;align=right;verticalAlign=bottom;" parent="Ql9siXfaunIRFQ8CMtLW-10" connectable="0" vertex="1">
          <mxGeometry x="1" relative="1" as="geometry">
            <mxPoint x="20" as="offset" />
          </mxGeometry>
        </mxCell>
        <mxCell id="Ql9siXfaunIRFQ8CMtLW-12" value="包含" style="shape=rhombus;perimeter=rhombusPerimeter;whiteSpace=wrap;html=1;align=center;fillColor=#f8cecc;strokeColor=#b85450;" parent="1" vertex="1">
          <mxGeometry x="510" y="360" width="120" height="60" as="geometry" />
        </mxCell>
        <mxCell id="Ql9siXfaunIRFQ8CMtLW-13" value="" style="endArrow=none;html=1;rounded=0;exitX=1;exitY=0.5;exitDx=0;exitDy=0;entryX=0;entryY=0.5;entryDx=0;entryDy=0;" parent="1" source="Ql9siXfaunIRFQ8CMtLW-12" target="Ql9siXfaunIRFQ8CMtLW-3" edge="1">
          <mxGeometry relative="1" as="geometry">
            <mxPoint x="666" y="580" as="sourcePoint" />
            <mxPoint x="640" y="390" as="targetPoint" />
          </mxGeometry>
        </mxCell>
        <mxCell id="Ql9siXfaunIRFQ8CMtLW-14" value="M" style="resizable=0;html=1;align=right;verticalAlign=bottom;" parent="Ql9siXfaunIRFQ8CMtLW-13" connectable="0" vertex="1">
          <mxGeometry x="1" relative="1" as="geometry">
            <mxPoint x="-36" as="offset" />
          </mxGeometry>
        </mxCell>
        <mxCell id="Ql9siXfaunIRFQ8CMtLW-15" value="" style="endArrow=none;html=1;rounded=0;exitX=0;exitY=0.5;exitDx=0;exitDy=0;entryX=1;entryY=0.5;entryDx=0;entryDy=0;" parent="1" source="Ql9siXfaunIRFQ8CMtLW-12" edge="1">
          <mxGeometry relative="1" as="geometry">
            <mxPoint x="666" y="580" as="sourcePoint" />
            <mxPoint x="464" y="390" as="targetPoint" />
          </mxGeometry>
        </mxCell>
        <mxCell id="Ql9siXfaunIRFQ8CMtLW-16" value="N" style="resizable=0;html=1;align=right;verticalAlign=bottom;" parent="Ql9siXfaunIRFQ8CMtLW-15" connectable="0" vertex="1">
          <mxGeometry x="1" relative="1" as="geometry">
            <mxPoint x="36" as="offset" />
          </mxGeometry>
        </mxCell>
        <mxCell id="Ql9siXfaunIRFQ8CMtLW-29" value="" style="edgeStyle=orthogonalEdgeStyle;rounded=0;orthogonalLoop=1;jettySize=auto;html=1;endArrow=none;endFill=0;" parent="1" source="Ql9siXfaunIRFQ8CMtLW-18" target="Ql9siXfaunIRFQ8CMtLW-28" edge="1">
          <mxGeometry relative="1" as="geometry" />
        </mxCell>
        <mxCell id="Ql9siXfaunIRFQ8CMtLW-32" value="1" style="edgeLabel;html=1;align=center;verticalAlign=middle;resizable=0;points=[];" parent="Ql9siXfaunIRFQ8CMtLW-29" vertex="1" connectable="0">
          <mxGeometry x="0.7695" y="-2" relative="1" as="geometry">
            <mxPoint x="14" y="3" as="offset" />
          </mxGeometry>
        </mxCell>
        <mxCell id="Ql9siXfaunIRFQ8CMtLW-18" value="Operartor" style="whiteSpace=wrap;html=1;align=center;fillColor=#dae8fc;strokeColor=#6c8ebf;" parent="1" vertex="1">
          <mxGeometry x="364" y="520" width="100" height="40" as="geometry" />
        </mxCell>
        <mxCell id="Ql9siXfaunIRFQ8CMtLW-19" value="Schema" style="whiteSpace=wrap;html=1;align=center;fillColor=#dae8fc;strokeColor=#6c8ebf;" parent="1" vertex="1">
          <mxGeometry x="740" y="520" width="100" height="40" as="geometry" />
        </mxCell>
        <mxCell id="Ql9siXfaunIRFQ8CMtLW-20" value="N" style="resizable=0;html=1;align=right;verticalAlign=bottom;" parent="1" connectable="0" vertex="1">
          <mxGeometry x="340.1379310344828" y="540" as="geometry" />
        </mxCell>
        <mxCell id="Ql9siXfaunIRFQ8CMtLW-21" value="包含" style="shape=rhombus;perimeter=rhombusPerimeter;whiteSpace=wrap;html=1;align=center;fillColor=#f8cecc;strokeColor=#b85450;" parent="1" vertex="1">
          <mxGeometry x="520" y="510" width="120" height="60" as="geometry" />
        </mxCell>
        <mxCell id="Ql9siXfaunIRFQ8CMtLW-22" value="" style="endArrow=none;html=1;rounded=0;exitX=1;exitY=0.5;exitDx=0;exitDy=0;entryX=0;entryY=0.5;entryDx=0;entryDy=0;" parent="1" source="Ql9siXfaunIRFQ8CMtLW-21" target="Ql9siXfaunIRFQ8CMtLW-19" edge="1">
          <mxGeometry relative="1" as="geometry">
            <mxPoint x="666" y="730" as="sourcePoint" />
            <mxPoint x="640" y="540" as="targetPoint" />
          </mxGeometry>
        </mxCell>
        <mxCell id="Ql9siXfaunIRFQ8CMtLW-23" value="N" style="resizable=0;html=1;align=right;verticalAlign=bottom;" parent="Ql9siXfaunIRFQ8CMtLW-22" connectable="0" vertex="1">
          <mxGeometry x="1" relative="1" as="geometry">
            <mxPoint x="-40" as="offset" />
          </mxGeometry>
        </mxCell>
        <mxCell id="Ql9siXfaunIRFQ8CMtLW-24" value="" style="endArrow=none;html=1;rounded=0;exitX=0;exitY=0.5;exitDx=0;exitDy=0;entryX=1;entryY=0.5;entryDx=0;entryDy=0;" parent="1" source="Ql9siXfaunIRFQ8CMtLW-21" target="Ql9siXfaunIRFQ8CMtLW-18" edge="1">
          <mxGeometry relative="1" as="geometry">
            <mxPoint x="666" y="730" as="sourcePoint" />
            <mxPoint x="480" y="540" as="targetPoint" />
          </mxGeometry>
        </mxCell>
        <mxCell id="Ql9siXfaunIRFQ8CMtLW-25" value="1" style="resizable=0;html=1;align=right;verticalAlign=bottom;" parent="Ql9siXfaunIRFQ8CMtLW-24" connectable="0" vertex="1">
          <mxGeometry x="1" relative="1" as="geometry">
            <mxPoint x="20" as="offset" />
          </mxGeometry>
        </mxCell>
        <mxCell id="Ql9siXfaunIRFQ8CMtLW-28" value="填写参数" style="rhombus;whiteSpace=wrap;html=1;fillColor=#f8cecc;strokeColor=#b85450;" parent="1" vertex="1">
          <mxGeometry x="367" y="445" width="94" height="50" as="geometry" />
        </mxCell>
        <mxCell id="Ql9siXfaunIRFQ8CMtLW-31" style="edgeStyle=orthogonalEdgeStyle;rounded=0;orthogonalLoop=1;jettySize=auto;html=1;exitX=0.5;exitY=1;exitDx=0;exitDy=0;endArrow=none;endFill=0;" parent="1" source="Ql9siXfaunIRFQ8CMtLW-28" target="Ql9siXfaunIRFQ8CMtLW-28" edge="1">
          <mxGeometry relative="1" as="geometry" />
        </mxCell>
        <mxCell id="Ql9siXfaunIRFQ8CMtLW-45" style="edgeStyle=none;rounded=0;orthogonalLoop=1;jettySize=auto;html=1;exitX=0.5;exitY=0;exitDx=0;exitDy=0;entryX=0.5;entryY=1;entryDx=0;entryDy=0;endArrow=none;endFill=0;fillColor=#ffe6cc;strokeColor=#d79b00;" parent="1" source="Ql9siXfaunIRFQ8CMtLW-39" target="Ql9siXfaunIRFQ8CMtLW-1" edge="1">
          <mxGeometry relative="1" as="geometry" />
        </mxCell>
        <mxCell id="Ql9siXfaunIRFQ8CMtLW-39" value="Name" style="ellipse;whiteSpace=wrap;html=1;align=center;fillColor=#ffe6cc;strokeColor=#d79b00;" parent="1" vertex="1">
          <mxGeometry x="-20" y="445" width="100" height="40" as="geometry" />
        </mxCell>
        <mxCell id="Ql9siXfaunIRFQ8CMtLW-44" style="rounded=0;orthogonalLoop=1;jettySize=auto;html=1;exitX=0.5;exitY=1;exitDx=0;exitDy=0;entryX=0.5;entryY=0;entryDx=0;entryDy=0;endArrow=none;endFill=0;fillColor=#ffe6cc;strokeColor=#d79b00;" parent="1" source="Ql9siXfaunIRFQ8CMtLW-40" target="Ql9siXfaunIRFQ8CMtLW-1" edge="1">
          <mxGeometry relative="1" as="geometry" />
        </mxCell>
        <mxCell id="Ql9siXfaunIRFQ8CMtLW-40" value="Creator" style="ellipse;whiteSpace=wrap;html=1;align=center;fillColor=#ffe6cc;strokeColor=#d79b00;" parent="1" vertex="1">
          <mxGeometry x="20" y="300" width="100" height="40" as="geometry" />
        </mxCell>
        <mxCell id="Ql9siXfaunIRFQ8CMtLW-43" style="edgeStyle=orthogonalEdgeStyle;rounded=0;orthogonalLoop=1;jettySize=auto;html=1;entryX=0;entryY=0.5;entryDx=0;entryDy=0;endArrow=none;endFill=0;" parent="1" source="Ql9siXfaunIRFQ8CMtLW-41" target="Ql9siXfaunIRFQ8CMtLW-1" edge="1">
          <mxGeometry relative="1" as="geometry" />
        </mxCell>
        <mxCell id="Ql9siXfaunIRFQ8CMtLW-41" value="ID" style="ellipse;whiteSpace=wrap;html=1;align=center;fontStyle=4;fillColor=#ffe6cc;strokeColor=#d79b00;" parent="1" vertex="1">
          <mxGeometry x="-100" y="370" width="100" height="40" as="geometry" />
        </mxCell>
        <mxCell id="Ql9siXfaunIRFQ8CMtLW-46" style="edgeStyle=none;rounded=0;orthogonalLoop=1;jettySize=auto;html=1;exitX=0.5;exitY=0;exitDx=0;exitDy=0;endArrow=none;endFill=0;entryX=0.5;entryY=1;entryDx=0;entryDy=0;fillColor=#ffe6cc;strokeColor=#d79b00;" parent="1" source="Ql9siXfaunIRFQ8CMtLW-42" target="Ql9siXfaunIRFQ8CMtLW-1" edge="1">
          <mxGeometry relative="1" as="geometry">
            <mxPoint x="88.56953381769836" y="428.56953381769813" as="targetPoint" />
          </mxGeometry>
        </mxCell>
        <mxCell id="Ql9siXfaunIRFQ8CMtLW-42" value="Status" style="ellipse;whiteSpace=wrap;html=1;align=center;fillColor=#ffe6cc;strokeColor=#d79b00;" parent="1" vertex="1">
          <mxGeometry x="80" y="450" width="100" height="40" as="geometry" />
        </mxCell>
        <mxCell id="Ql9siXfaunIRFQ8CMtLW-105" style="edgeStyle=none;rounded=0;orthogonalLoop=1;jettySize=auto;html=1;endArrow=none;endFill=0;entryX=0.5;entryY=1;entryDx=0;entryDy=0;fillColor=#ffe6cc;strokeColor=#d79b00;" parent="1" source="Ql9siXfaunIRFQ8CMtLW-48" target="Ql9siXfaunIRFQ8CMtLW-18" edge="1">
          <mxGeometry relative="1" as="geometry">
            <mxPoint x="380" y="580" as="targetPoint" />
          </mxGeometry>
        </mxCell>
        <mxCell id="Ql9siXfaunIRFQ8CMtLW-48" value="Operator_Name" style="ellipse;whiteSpace=wrap;html=1;align=center;fillColor=#ffe6cc;strokeColor=#d79b00;" parent="1" vertex="1">
          <mxGeometry x="220" y="620" width="100" height="40" as="geometry" />
        </mxCell>
        <mxCell id="6K2qiJ0y4Z12VxLnj_lv-1" style="edgeStyle=none;rounded=0;orthogonalLoop=1;jettySize=auto;html=1;entryX=0.5;entryY=1;entryDx=0;entryDy=0;endArrow=none;endFill=0;fillColor=#ffe6cc;strokeColor=#d79b00;" parent="1" source="Ql9siXfaunIRFQ8CMtLW-49" target="Ql9siXfaunIRFQ8CMtLW-18" edge="1">
          <mxGeometry relative="1" as="geometry" />
        </mxCell>
        <mxCell id="Ql9siXfaunIRFQ8CMtLW-49" value="&lt;u&gt;ID&lt;/u&gt;" style="ellipse;whiteSpace=wrap;html=1;align=center;fillColor=#ffe6cc;strokeColor=#d79b00;" parent="1" vertex="1">
          <mxGeometry x="214" y="570" width="100" height="40" as="geometry" />
        </mxCell>
        <mxCell id="Ql9siXfaunIRFQ8CMtLW-56" style="edgeStyle=none;rounded=0;orthogonalLoop=1;jettySize=auto;html=1;exitX=0.5;exitY=0;exitDx=0;exitDy=0;entryX=0.5;entryY=1;entryDx=0;entryDy=0;endArrow=none;endFill=0;fillColor=#ffe6cc;strokeColor=#d79b00;" parent="1" source="Ql9siXfaunIRFQ8CMtLW-50" target="Ql9siXfaunIRFQ8CMtLW-18" edge="1">
          <mxGeometry relative="1" as="geometry" />
        </mxCell>
        <mxCell id="Ql9siXfaunIRFQ8CMtLW-50" value="Creator" style="ellipse;whiteSpace=wrap;html=1;align=center;fillColor=#ffe6cc;strokeColor=#d79b00;" parent="1" vertex="1">
          <mxGeometry x="274" y="660" width="100" height="40" as="geometry" />
        </mxCell>
        <mxCell id="Ql9siXfaunIRFQ8CMtLW-60" style="edgeStyle=none;rounded=0;orthogonalLoop=1;jettySize=auto;html=1;exitX=0.5;exitY=0;exitDx=0;exitDy=0;entryX=0.5;entryY=1;entryDx=0;entryDy=0;endArrow=none;endFill=0;fillColor=#ffe6cc;strokeColor=#d79b00;" parent="1" source="Ql9siXfaunIRFQ8CMtLW-51" target="Ql9siXfaunIRFQ8CMtLW-18" edge="1">
          <mxGeometry relative="1" as="geometry" />
        </mxCell>
        <mxCell id="Ql9siXfaunIRFQ8CMtLW-51" value="Global_Num" style="ellipse;whiteSpace=wrap;html=1;align=center;fillColor=#ffe6cc;strokeColor=#d79b00;" parent="1" vertex="1">
          <mxGeometry x="500" y="590" width="100" height="40" as="geometry" />
        </mxCell>
        <mxCell id="Ql9siXfaunIRFQ8CMtLW-58" style="edgeStyle=none;rounded=0;orthogonalLoop=1;jettySize=auto;html=1;exitX=0.5;exitY=0;exitDx=0;exitDy=0;entryX=0.5;entryY=1;entryDx=0;entryDy=0;endArrow=none;endFill=0;fillColor=#ffe6cc;strokeColor=#d79b00;" parent="1" source="Ql9siXfaunIRFQ8CMtLW-52" target="Ql9siXfaunIRFQ8CMtLW-18" edge="1">
          <mxGeometry relative="1" as="geometry" />
        </mxCell>
        <mxCell id="Ql9siXfaunIRFQ8CMtLW-52" value="Const_Num" style="ellipse;whiteSpace=wrap;html=1;align=center;fillColor=#ffe6cc;strokeColor=#d79b00;" parent="1" vertex="1">
          <mxGeometry x="470" y="650" width="100" height="40" as="geometry" />
        </mxCell>
        <mxCell id="Ql9siXfaunIRFQ8CMtLW-57" style="edgeStyle=none;rounded=0;orthogonalLoop=1;jettySize=auto;html=1;exitX=0.5;exitY=0;exitDx=0;exitDy=0;entryX=0.5;entryY=1;entryDx=0;entryDy=0;endArrow=none;endFill=0;fillColor=#ffe6cc;strokeColor=#d79b00;" parent="1" source="Ql9siXfaunIRFQ8CMtLW-53" target="Ql9siXfaunIRFQ8CMtLW-18" edge="1">
          <mxGeometry relative="1" as="geometry" />
        </mxCell>
        <mxCell id="Ql9siXfaunIRFQ8CMtLW-53" value="Data_Set_Num" style="ellipse;whiteSpace=wrap;html=1;align=center;fillColor=#ffe6cc;strokeColor=#d79b00;" parent="1" vertex="1">
          <mxGeometry x="380" y="680" width="100" height="40" as="geometry" />
        </mxCell>
        <mxCell id="Ql9siXfaunIRFQ8CMtLW-62" value="DAG_NODE" style="shape=associativeEntity;whiteSpace=wrap;html=1;align=center;fillColor=#dae8fc;strokeColor=#6c8ebf;" parent="1" vertex="1">
          <mxGeometry x="360" y="365" width="110" height="50" as="geometry" />
        </mxCell>
        <mxCell id="Ql9siXfaunIRFQ8CMtLW-70" style="edgeStyle=none;rounded=0;orthogonalLoop=1;jettySize=auto;html=1;endArrow=none;endFill=0;fillColor=#ffe6cc;strokeColor=#d79b00;" parent="1" source="Ql9siXfaunIRFQ8CMtLW-63" edge="1">
          <mxGeometry relative="1" as="geometry">
            <mxPoint x="790" y="560" as="targetPoint" />
          </mxGeometry>
        </mxCell>
        <mxCell id="Ql9siXfaunIRFQ8CMtLW-63" value="Operator_ID" style="ellipse;whiteSpace=wrap;html=1;align=center;fillColor=#ffe6cc;strokeColor=#d79b00;" parent="1" vertex="1">
          <mxGeometry x="630" y="620" width="100" height="40" as="geometry" />
        </mxCell>
        <mxCell id="Ql9siXfaunIRFQ8CMtLW-71" style="edgeStyle=none;rounded=0;orthogonalLoop=1;jettySize=auto;html=1;entryX=0.5;entryY=1;entryDx=0;entryDy=0;endArrow=none;endFill=0;fillColor=#ffe6cc;strokeColor=#d79b00;" parent="1" source="Ql9siXfaunIRFQ8CMtLW-64" target="Ql9siXfaunIRFQ8CMtLW-19" edge="1">
          <mxGeometry relative="1" as="geometry" />
        </mxCell>
        <mxCell id="Ql9siXfaunIRFQ8CMtLW-64" value="Field" style="ellipse;whiteSpace=wrap;html=1;align=center;fillColor=#ffe6cc;strokeColor=#d79b00;" parent="1" vertex="1">
          <mxGeometry x="680" y="670" width="100" height="40" as="geometry" />
        </mxCell>
        <mxCell id="Ql9siXfaunIRFQ8CMtLW-74" style="edgeStyle=none;rounded=0;orthogonalLoop=1;jettySize=auto;html=1;exitX=0.5;exitY=0;exitDx=0;exitDy=0;entryX=0.5;entryY=1;entryDx=0;entryDy=0;endArrow=none;endFill=0;fillColor=#ffe6cc;strokeColor=#d79b00;" parent="1" source="Ql9siXfaunIRFQ8CMtLW-65" target="Ql9siXfaunIRFQ8CMtLW-19" edge="1">
          <mxGeometry relative="1" as="geometry" />
        </mxCell>
        <mxCell id="Ql9siXfaunIRFQ8CMtLW-65" value="Field_Type" style="ellipse;whiteSpace=wrap;html=1;align=center;fillColor=#ffe6cc;strokeColor=#d79b00;" parent="1" vertex="1">
          <mxGeometry x="900" y="590" width="100" height="40" as="geometry" />
        </mxCell>
        <mxCell id="Ql9siXfaunIRFQ8CMtLW-73" style="edgeStyle=none;rounded=0;orthogonalLoop=1;jettySize=auto;html=1;exitX=0.5;exitY=0;exitDx=0;exitDy=0;endArrow=none;endFill=0;fillColor=#ffe6cc;strokeColor=#d79b00;" parent="1" source="Ql9siXfaunIRFQ8CMtLW-66" edge="1">
          <mxGeometry relative="1" as="geometry">
            <mxPoint x="790" y="560" as="targetPoint" />
          </mxGeometry>
        </mxCell>
        <mxCell id="Ql9siXfaunIRFQ8CMtLW-66" value="Type" style="ellipse;whiteSpace=wrap;html=1;align=center;fillColor=#ffe6cc;strokeColor=#d79b00;" parent="1" vertex="1">
          <mxGeometry x="890" y="660" width="100" height="40" as="geometry" />
        </mxCell>
        <mxCell id="Ql9siXfaunIRFQ8CMtLW-72" style="edgeStyle=none;rounded=0;orthogonalLoop=1;jettySize=auto;html=1;exitX=0.5;exitY=0;exitDx=0;exitDy=0;entryX=0.5;entryY=1;entryDx=0;entryDy=0;endArrow=none;endFill=0;fillColor=#ffe6cc;strokeColor=#d79b00;" parent="1" source="Ql9siXfaunIRFQ8CMtLW-67" target="Ql9siXfaunIRFQ8CMtLW-19" edge="1">
          <mxGeometry relative="1" as="geometry" />
        </mxCell>
        <mxCell id="Ql9siXfaunIRFQ8CMtLW-67" value="Default_Value" style="ellipse;whiteSpace=wrap;html=1;align=center;fillColor=#ffe6cc;strokeColor=#d79b00;" parent="1" vertex="1">
          <mxGeometry x="780" y="690" width="100" height="40" as="geometry" />
        </mxCell>
        <mxCell id="Ql9siXfaunIRFQ8CMtLW-69" style="edgeStyle=none;rounded=0;orthogonalLoop=1;jettySize=auto;html=1;entryX=0.5;entryY=1;entryDx=0;entryDy=0;endArrow=none;endFill=0;fillColor=#ffe6cc;strokeColor=#d79b00;" parent="1" source="Ql9siXfaunIRFQ8CMtLW-68" target="Ql9siXfaunIRFQ8CMtLW-19" edge="1">
          <mxGeometry relative="1" as="geometry" />
        </mxCell>
        <mxCell id="Ql9siXfaunIRFQ8CMtLW-68" value="&lt;u&gt;ID&lt;/u&gt;" style="ellipse;whiteSpace=wrap;html=1;align=center;fillColor=#ffe6cc;strokeColor=#d79b00;" parent="1" vertex="1">
          <mxGeometry x="620" y="570" width="100" height="40" as="geometry" />
        </mxCell>
        <mxCell id="Ql9siXfaunIRFQ8CMtLW-98" style="edgeStyle=none;rounded=0;orthogonalLoop=1;jettySize=auto;html=1;exitX=0.5;exitY=1;exitDx=0;exitDy=0;entryX=0.5;entryY=0;entryDx=0;entryDy=0;endArrow=none;endFill=0;fillColor=#ffe6cc;strokeColor=#d79b00;" parent="1" source="Ql9siXfaunIRFQ8CMtLW-88" target="Ql9siXfaunIRFQ8CMtLW-62" edge="1">
          <mxGeometry relative="1" as="geometry" />
        </mxCell>
        <mxCell id="Ql9siXfaunIRFQ8CMtLW-88" value="Node_Name" style="ellipse;whiteSpace=wrap;html=1;align=center;fillColor=#ffe6cc;strokeColor=#d79b00;" parent="1" vertex="1">
          <mxGeometry x="250" y="260" width="100" height="40" as="geometry" />
        </mxCell>
        <mxCell id="Ql9siXfaunIRFQ8CMtLW-97" style="edgeStyle=none;rounded=0;orthogonalLoop=1;jettySize=auto;html=1;entryX=0.5;entryY=0;entryDx=0;entryDy=0;endArrow=none;endFill=0;fillColor=#ffe6cc;strokeColor=#d79b00;" parent="1" source="Ql9siXfaunIRFQ8CMtLW-89" target="Ql9siXfaunIRFQ8CMtLW-62" edge="1">
          <mxGeometry relative="1" as="geometry" />
        </mxCell>
        <mxCell id="Ql9siXfaunIRFQ8CMtLW-89" value="&lt;u&gt;ID&lt;/u&gt;" style="ellipse;whiteSpace=wrap;html=1;align=center;fillColor=#ffe6cc;strokeColor=#d79b00;" parent="1" vertex="1">
          <mxGeometry x="240.14" y="320" width="100" height="40" as="geometry" />
        </mxCell>
        <mxCell id="Ql9siXfaunIRFQ8CMtLW-104" style="edgeStyle=none;rounded=0;orthogonalLoop=1;jettySize=auto;html=1;exitX=0.5;exitY=1;exitDx=0;exitDy=0;entryX=0.5;entryY=0;entryDx=0;entryDy=0;endArrow=none;endFill=0;fillColor=#ffe6cc;strokeColor=#d79b00;" parent="1" source="Ql9siXfaunIRFQ8CMtLW-90" target="Ql9siXfaunIRFQ8CMtLW-62" edge="1">
          <mxGeometry relative="1" as="geometry" />
        </mxCell>
        <mxCell id="Ql9siXfaunIRFQ8CMtLW-90" value="Operator_ID" style="ellipse;whiteSpace=wrap;html=1;align=center;fillColor=#ffe6cc;strokeColor=#d79b00;" parent="1" vertex="1">
          <mxGeometry x="290.14" y="210" width="100" height="40" as="geometry" />
        </mxCell>
        <mxCell id="Ql9siXfaunIRFQ8CMtLW-101" style="edgeStyle=none;rounded=0;orthogonalLoop=1;jettySize=auto;html=1;exitX=0;exitY=1;exitDx=0;exitDy=0;entryX=0.5;entryY=0;entryDx=0;entryDy=0;endArrow=none;endFill=0;fillColor=#ffe6cc;strokeColor=#d79b00;" parent="1" source="Ql9siXfaunIRFQ8CMtLW-91" target="Ql9siXfaunIRFQ8CMtLW-62" edge="1">
          <mxGeometry relative="1" as="geometry" />
        </mxCell>
        <mxCell id="Ql9siXfaunIRFQ8CMtLW-91" value="Global_Key" style="ellipse;whiteSpace=wrap;html=1;align=center;fillColor=#ffe6cc;strokeColor=#d79b00;" parent="1" vertex="1">
          <mxGeometry x="464" y="200" width="100" height="40" as="geometry" />
        </mxCell>
        <mxCell id="Ql9siXfaunIRFQ8CMtLW-102" style="edgeStyle=none;rounded=0;orthogonalLoop=1;jettySize=auto;html=1;exitX=0.5;exitY=1;exitDx=0;exitDy=0;entryX=0.5;entryY=0;entryDx=0;entryDy=0;endArrow=none;endFill=0;fillColor=#ffe6cc;strokeColor=#d79b00;" parent="1" source="Ql9siXfaunIRFQ8CMtLW-92" target="Ql9siXfaunIRFQ8CMtLW-62" edge="1">
          <mxGeometry relative="1" as="geometry" />
        </mxCell>
        <mxCell id="Ql9siXfaunIRFQ8CMtLW-92" value="Parent_ID" style="ellipse;whiteSpace=wrap;html=1;align=center;fillColor=#ffe6cc;strokeColor=#d79b00;" parent="1" vertex="1">
          <mxGeometry x="480" y="260" width="100" height="40" as="geometry" />
        </mxCell>
        <mxCell id="Ql9siXfaunIRFQ8CMtLW-100" style="edgeStyle=none;rounded=0;orthogonalLoop=1;jettySize=auto;html=1;exitX=0.5;exitY=1;exitDx=0;exitDy=0;entryX=0.5;entryY=0;entryDx=0;entryDy=0;endArrow=none;endFill=0;fillColor=#ffe6cc;strokeColor=#d79b00;" parent="1" source="Ql9siXfaunIRFQ8CMtLW-93" target="Ql9siXfaunIRFQ8CMtLW-62" edge="1">
          <mxGeometry relative="1" as="geometry" />
        </mxCell>
        <mxCell id="Ql9siXfaunIRFQ8CMtLW-93" value="OutPut_Key" style="ellipse;whiteSpace=wrap;html=1;align=center;fillColor=#ffe6cc;strokeColor=#d79b00;" parent="1" vertex="1">
          <mxGeometry x="370" y="170" width="100" height="40" as="geometry" />
        </mxCell>
        <mxCell id="Ql9siXfaunIRFQ8CMtLW-103" style="edgeStyle=none;rounded=0;orthogonalLoop=1;jettySize=auto;html=1;exitX=0.5;exitY=1;exitDx=0;exitDy=0;entryX=0.5;entryY=0;entryDx=0;entryDy=0;endArrow=none;endFill=0;fillColor=#ffe6cc;strokeColor=#d79b00;" parent="1" source="Ql9siXfaunIRFQ8CMtLW-96" target="Ql9siXfaunIRFQ8CMtLW-62" edge="1">
          <mxGeometry relative="1" as="geometry" />
        </mxCell>
        <mxCell id="Ql9siXfaunIRFQ8CMtLW-96" value="Child_ID" style="ellipse;whiteSpace=wrap;html=1;align=center;fillColor=#ffe6cc;strokeColor=#d79b00;" parent="1" vertex="1">
          <mxGeometry x="480" y="320" width="100" height="40" as="geometry" />
        </mxCell>
        <mxCell id="Ql9siXfaunIRFQ8CMtLW-113" style="edgeStyle=none;rounded=0;orthogonalLoop=1;jettySize=auto;html=1;exitX=0.5;exitY=1;exitDx=0;exitDy=0;entryX=0.5;entryY=0;entryDx=0;entryDy=0;endArrow=none;endFill=0;" parent="1" source="Ql9siXfaunIRFQ8CMtLW-106" target="Ql9siXfaunIRFQ8CMtLW-3" edge="1">
          <mxGeometry relative="1" as="geometry" />
        </mxCell>
        <mxCell id="Ql9siXfaunIRFQ8CMtLW-106" value="Node_ID" style="ellipse;whiteSpace=wrap;html=1;align=center;fillColor=#ffe6cc;strokeColor=#d79b00;" parent="1" vertex="1">
          <mxGeometry x="660" y="252.5" width="100" height="37.5" as="geometry" />
        </mxCell>
        <mxCell id="Ql9siXfaunIRFQ8CMtLW-114" style="edgeStyle=none;rounded=0;orthogonalLoop=1;jettySize=auto;html=1;exitX=0.5;exitY=1;exitDx=0;exitDy=0;entryX=0.5;entryY=0;entryDx=0;entryDy=0;endArrow=none;endFill=0;" parent="1" source="Ql9siXfaunIRFQ8CMtLW-107" target="Ql9siXfaunIRFQ8CMtLW-3" edge="1">
          <mxGeometry relative="1" as="geometry" />
        </mxCell>
        <mxCell id="Ql9siXfaunIRFQ8CMtLW-107" value="Param_Value" style="ellipse;whiteSpace=wrap;html=1;align=center;fillColor=#ffe6cc;strokeColor=#d79b00;" parent="1" vertex="1">
          <mxGeometry x="739" y="207" width="100" height="40" as="geometry" />
        </mxCell>
        <mxCell id="Ql9siXfaunIRFQ8CMtLW-116" style="edgeStyle=none;rounded=0;orthogonalLoop=1;jettySize=auto;html=1;exitX=0.5;exitY=1;exitDx=0;exitDy=0;endArrow=none;endFill=0;" parent="1" source="Ql9siXfaunIRFQ8CMtLW-109" edge="1">
          <mxGeometry relative="1" as="geometry">
            <mxPoint x="790" y="370" as="targetPoint" />
          </mxGeometry>
        </mxCell>
        <mxCell id="Ql9siXfaunIRFQ8CMtLW-109" value="Type" style="ellipse;whiteSpace=wrap;html=1;align=center;fillColor=#ffe6cc;strokeColor=#d79b00;" parent="1" vertex="1">
          <mxGeometry x="850" y="310" width="100" height="40" as="geometry" />
        </mxCell>
        <mxCell id="Ql9siXfaunIRFQ8CMtLW-115" style="edgeStyle=none;rounded=0;orthogonalLoop=1;jettySize=auto;html=1;exitX=0.5;exitY=1;exitDx=0;exitDy=0;entryX=0.5;entryY=0;entryDx=0;entryDy=0;endArrow=none;endFill=0;" parent="1" source="Ql9siXfaunIRFQ8CMtLW-110" target="Ql9siXfaunIRFQ8CMtLW-3" edge="1">
          <mxGeometry relative="1" as="geometry" />
        </mxCell>
        <mxCell id="Ql9siXfaunIRFQ8CMtLW-110" value="Param_Index" style="ellipse;whiteSpace=wrap;html=1;align=center;fillColor=#ffe6cc;strokeColor=#d79b00;" parent="1" vertex="1">
          <mxGeometry x="840" y="250" width="100" height="40" as="geometry" />
        </mxCell>
        <mxCell id="Ql9siXfaunIRFQ8CMtLW-112" style="edgeStyle=none;rounded=0;orthogonalLoop=1;jettySize=auto;html=1;exitX=0.5;exitY=1;exitDx=0;exitDy=0;entryX=0.5;entryY=0;entryDx=0;entryDy=0;endArrow=none;endFill=0;" parent="1" source="Ql9siXfaunIRFQ8CMtLW-111" target="Ql9siXfaunIRFQ8CMtLW-3" edge="1">
          <mxGeometry relative="1" as="geometry" />
        </mxCell>
        <mxCell id="Ql9siXfaunIRFQ8CMtLW-111" value="&lt;u&gt;ID&lt;/u&gt;" style="ellipse;whiteSpace=wrap;html=1;align=center;fillColor=#ffe6cc;strokeColor=#d79b00;" parent="1" vertex="1">
          <mxGeometry x="640" y="310" width="100" height="40" as="geometry" />
        </mxCell>
        <mxCell id="Ql9siXfaunIRFQ8CMtLW-118" style="edgeStyle=none;rounded=0;orthogonalLoop=1;jettySize=auto;html=1;entryX=0.5;entryY=0;entryDx=0;entryDy=0;endArrow=none;endFill=0;" parent="1" source="Ql9siXfaunIRFQ8CMtLW-117" target="Ql9siXfaunIRFQ8CMtLW-19" edge="1">
          <mxGeometry relative="1" as="geometry" />
        </mxCell>
        <mxCell id="Ql9siXfaunIRFQ8CMtLW-120" value="N" style="edgeLabel;html=1;align=center;verticalAlign=middle;resizable=0;points=[];" parent="Ql9siXfaunIRFQ8CMtLW-118" vertex="1" connectable="0">
          <mxGeometry x="-0.2" y="-3" relative="1" as="geometry">
            <mxPoint x="13" as="offset" />
          </mxGeometry>
        </mxCell>
        <mxCell id="Ql9siXfaunIRFQ8CMtLW-119" style="edgeStyle=none;rounded=0;orthogonalLoop=1;jettySize=auto;html=1;exitX=0.5;exitY=0;exitDx=0;exitDy=0;endArrow=none;endFill=0;" parent="1" source="Ql9siXfaunIRFQ8CMtLW-117" edge="1">
          <mxGeometry relative="1" as="geometry">
            <mxPoint x="790" y="409" as="targetPoint" />
          </mxGeometry>
        </mxCell>
        <mxCell id="Ql9siXfaunIRFQ8CMtLW-117" value="对应" style="shape=rhombus;perimeter=rhombusPerimeter;whiteSpace=wrap;html=1;align=center;fillColor=#f8cecc;strokeColor=#b85450;" parent="1" vertex="1">
          <mxGeometry x="740" y="440" width="100" height="50" as="geometry" />
        </mxCell>
        <mxCell id="Ql9siXfaunIRFQ8CMtLW-121" value="N" style="text;html=1;align=center;verticalAlign=middle;resizable=0;points=[];autosize=1;strokeColor=none;fillColor=none;" parent="1" vertex="1">
          <mxGeometry x="790" y="420" width="20" height="20" as="geometry" />
        </mxCell>
        <mxCell id="6K2qiJ0y4Z12VxLnj_lv-2" style="edgeStyle=none;rounded=0;orthogonalLoop=1;jettySize=auto;html=1;exitX=0.5;exitY=1;exitDx=0;exitDy=0;endArrow=none;endFill=0;fillColor=#ffe6cc;strokeColor=#d79b00;" parent="1" source="Ql9siXfaunIRFQ8CMtLW-63" target="Ql9siXfaunIRFQ8CMtLW-63" edge="1">
          <mxGeometry relative="1" as="geometry" />
        </mxCell>
        <mxCell id="8hKeqvrPCg_owtesgO9H-2" value="DataSource" style="whiteSpace=wrap;html=1;align=center;" parent="1" vertex="1">
          <mxGeometry x="-162" y="986" width="100" height="40" as="geometry" />
        </mxCell>
        <mxCell id="8hKeqvrPCg_owtesgO9H-5" style="edgeStyle=none;rounded=0;orthogonalLoop=1;jettySize=auto;html=1;exitX=0.5;exitY=0;exitDx=0;exitDy=0;entryX=0.5;entryY=1;entryDx=0;entryDy=0;endArrow=none;endFill=0;" parent="1" source="8hKeqvrPCg_owtesgO9H-6" target="8hKeqvrPCg_owtesgO9H-2" edge="1">
          <mxGeometry relative="1" as="geometry" />
        </mxCell>
        <mxCell id="8hKeqvrPCg_owtesgO9H-6" value="Prefix" style="ellipse;whiteSpace=wrap;html=1;align=center;" parent="1" vertex="1">
          <mxGeometry x="-296" y="1046" width="100" height="40" as="geometry" />
        </mxCell>
        <mxCell id="8hKeqvrPCg_owtesgO9H-7" style="rounded=0;orthogonalLoop=1;jettySize=auto;html=1;exitX=0.5;exitY=1;exitDx=0;exitDy=0;entryX=0.5;entryY=0;entryDx=0;entryDy=0;endArrow=none;endFill=0;" parent="1" source="8hKeqvrPCg_owtesgO9H-8" target="8hKeqvrPCg_owtesgO9H-2" edge="1">
          <mxGeometry relative="1" as="geometry" />
        </mxCell>
        <mxCell id="8hKeqvrPCg_owtesgO9H-8" value="Type" style="ellipse;whiteSpace=wrap;html=1;align=center;" parent="1" vertex="1">
          <mxGeometry x="-156" y="896" width="100" height="40" as="geometry" />
        </mxCell>
        <mxCell id="8hKeqvrPCg_owtesgO9H-9" style="rounded=0;orthogonalLoop=1;jettySize=auto;html=1;entryX=0;entryY=0.5;entryDx=0;entryDy=0;endArrow=none;endFill=0;" parent="1" source="8hKeqvrPCg_owtesgO9H-10" target="8hKeqvrPCg_owtesgO9H-2" edge="1">
          <mxGeometry relative="1" as="geometry" />
        </mxCell>
        <mxCell id="8hKeqvrPCg_owtesgO9H-10" value="ID" style="ellipse;whiteSpace=wrap;html=1;align=center;fontStyle=4;" parent="1" vertex="1">
          <mxGeometry x="-296" y="936" width="100" height="40" as="geometry" />
        </mxCell>
        <mxCell id="8hKeqvrPCg_owtesgO9H-11" style="edgeStyle=none;rounded=0;orthogonalLoop=1;jettySize=auto;html=1;exitX=0.5;exitY=0;exitDx=0;exitDy=0;endArrow=none;endFill=0;entryX=0.5;entryY=1;entryDx=0;entryDy=0;" parent="1" source="8hKeqvrPCg_owtesgO9H-12" target="8hKeqvrPCg_owtesgO9H-2" edge="1">
          <mxGeometry relative="1" as="geometry">
            <mxPoint x="-93.43046618230164" y="1044.5695338176981" as="targetPoint" />
          </mxGeometry>
        </mxCell>
        <mxCell id="8hKeqvrPCg_owtesgO9H-12" value="Source" style="ellipse;whiteSpace=wrap;html=1;align=center;" parent="1" vertex="1">
          <mxGeometry x="-135.86" y="1096" width="100" height="40" as="geometry" />
        </mxCell>
        <mxCell id="8hKeqvrPCg_owtesgO9H-21" style="rounded=0;orthogonalLoop=1;jettySize=auto;html=1;exitX=0.5;exitY=0;exitDx=0;exitDy=0;entryX=0.5;entryY=1;entryDx=0;entryDy=0;endArrow=none;endFill=0;" parent="1" source="8hKeqvrPCg_owtesgO9H-14" target="8hKeqvrPCg_owtesgO9H-2" edge="1">
          <mxGeometry relative="1" as="geometry" />
        </mxCell>
        <mxCell id="8hKeqvrPCg_owtesgO9H-14" value="用户ID优先级" style="ellipse;whiteSpace=wrap;html=1;align=center;" parent="1" vertex="1">
          <mxGeometry x="-2" y="1086" width="100" height="40" as="geometry" />
        </mxCell>
        <mxCell id="8hKeqvrPCg_owtesgO9H-24" style="edgeStyle=none;rounded=0;orthogonalLoop=1;jettySize=auto;html=1;endArrow=none;endFill=0;" parent="1" source="8hKeqvrPCg_owtesgO9H-23" edge="1">
          <mxGeometry relative="1" as="geometry">
            <mxPoint x="-106" y="1026" as="targetPoint" />
          </mxGeometry>
        </mxCell>
        <mxCell id="8hKeqvrPCg_owtesgO9H-23" value="Creator" style="ellipse;whiteSpace=wrap;html=1;align=center;" parent="1" vertex="1">
          <mxGeometry x="0.13999999999998636" y="1016" width="114" height="40" as="geometry" />
        </mxCell>
      </root>
    </mxGraphModel>
  </diagram>
  <diagram id="GaNDz1DzZ5tjEyiUJKBJ" name="第 2 页">
    <mxGraphModel dx="1698" dy="811" grid="0" gridSize="10" guides="0" tooltips="0" connect="1" arrows="1" fold="1" page="0" pageScale="1" pageWidth="827" pageHeight="1169" math="0" shadow="0">
      <root>
        <mxCell id="RJbI8CJS_2p1f_aJpvgx-0" />
        <mxCell id="RJbI8CJS_2p1f_aJpvgx-1" parent="RJbI8CJS_2p1f_aJpvgx-0" />
        <mxCell id="oBixcwZsUe4GB2VeC7AP-1" value="" style="rounded=0;whiteSpace=wrap;html=1;fillColor=none;strokeWidth=4;strokeColor=#EA6B66;" parent="RJbI8CJS_2p1f_aJpvgx-1" vertex="1">
          <mxGeometry x="474" y="480" width="290" height="470" as="geometry" />
        </mxCell>
        <mxCell id="RJbI8CJS_2p1f_aJpvgx-2" value="CMDKEY" style="whiteSpace=wrap;html=1;align=center;fillColor=#dae8fc;strokeColor=#6c8ebf;" parent="RJbI8CJS_2p1f_aJpvgx-1" vertex="1">
          <mxGeometry x="20" y="370" width="100" height="40" as="geometry" />
        </mxCell>
        <mxCell id="RJbI8CJS_2p1f_aJpvgx-3" style="edgeStyle=orthogonalEdgeStyle;rounded=0;orthogonalLoop=1;jettySize=auto;html=1;exitX=0.5;exitY=1;exitDx=0;exitDy=0;entryX=0.5;entryY=0;entryDx=0;entryDy=0;endArrow=none;endFill=0;" parent="RJbI8CJS_2p1f_aJpvgx-1" target="RJbI8CJS_2p1f_aJpvgx-26" edge="1">
          <mxGeometry relative="1" as="geometry">
            <mxPoint x="414" y="410" as="sourcePoint" />
          </mxGeometry>
        </mxCell>
        <mxCell id="RJbI8CJS_2p1f_aJpvgx-4" value="1" style="edgeLabel;html=1;align=center;verticalAlign=middle;resizable=0;points=[];" parent="RJbI8CJS_2p1f_aJpvgx-3" vertex="1" connectable="0">
          <mxGeometry x="-0.1552" y="-1" relative="1" as="geometry">
            <mxPoint x="7" y="3" as="offset" />
          </mxGeometry>
        </mxCell>
        <mxCell id="RJbI8CJS_2p1f_aJpvgx-5" value="Param" style="whiteSpace=wrap;html=1;align=center;fillColor=#dae8fc;strokeColor=#6c8ebf;" parent="RJbI8CJS_2p1f_aJpvgx-1" vertex="1">
          <mxGeometry x="770" y="370" width="100" height="40" as="geometry" />
        </mxCell>
        <mxCell id="RJbI8CJS_2p1f_aJpvgx-6" value="包含" style="shape=rhombus;perimeter=rhombusPerimeter;whiteSpace=wrap;html=1;align=center;fillColor=#f8cecc;strokeColor=#b85450;" parent="RJbI8CJS_2p1f_aJpvgx-1" vertex="1">
          <mxGeometry x="180" y="360" width="120" height="60" as="geometry" />
        </mxCell>
        <mxCell id="RJbI8CJS_2p1f_aJpvgx-7" value="" style="endArrow=none;html=1;rounded=0;exitX=1;exitY=0.5;exitDx=0;exitDy=0;entryX=0;entryY=0.5;entryDx=0;entryDy=0;" parent="RJbI8CJS_2p1f_aJpvgx-1" source="RJbI8CJS_2p1f_aJpvgx-6" edge="1">
          <mxGeometry relative="1" as="geometry">
            <mxPoint x="330" y="580" as="sourcePoint" />
            <mxPoint x="364" y="390" as="targetPoint" />
          </mxGeometry>
        </mxCell>
        <mxCell id="RJbI8CJS_2p1f_aJpvgx-8" value="N" style="resizable=0;html=1;align=right;verticalAlign=bottom;" parent="RJbI8CJS_2p1f_aJpvgx-7" connectable="0" vertex="1">
          <mxGeometry x="1" relative="1" as="geometry">
            <mxPoint x="-24" as="offset" />
          </mxGeometry>
        </mxCell>
        <mxCell id="RJbI8CJS_2p1f_aJpvgx-9" value="" style="endArrow=none;html=1;rounded=0;entryX=1;entryY=0.5;entryDx=0;entryDy=0;exitX=0;exitY=0.5;exitDx=0;exitDy=0;" parent="RJbI8CJS_2p1f_aJpvgx-1" source="RJbI8CJS_2p1f_aJpvgx-6" target="RJbI8CJS_2p1f_aJpvgx-2" edge="1">
          <mxGeometry relative="1" as="geometry">
            <mxPoint x="330" y="580" as="sourcePoint" />
            <mxPoint x="490" y="580" as="targetPoint" />
          </mxGeometry>
        </mxCell>
        <mxCell id="RJbI8CJS_2p1f_aJpvgx-10" value="1" style="resizable=0;html=1;align=right;verticalAlign=bottom;" parent="RJbI8CJS_2p1f_aJpvgx-9" connectable="0" vertex="1">
          <mxGeometry x="1" relative="1" as="geometry">
            <mxPoint x="20" as="offset" />
          </mxGeometry>
        </mxCell>
        <mxCell id="RJbI8CJS_2p1f_aJpvgx-11" value="包含" style="shape=rhombus;perimeter=rhombusPerimeter;whiteSpace=wrap;html=1;align=center;fillColor=#f8cecc;strokeColor=#b85450;" parent="RJbI8CJS_2p1f_aJpvgx-1" vertex="1">
          <mxGeometry x="540" y="360" width="120" height="60" as="geometry" />
        </mxCell>
        <mxCell id="RJbI8CJS_2p1f_aJpvgx-12" value="" style="endArrow=none;html=1;rounded=0;exitX=1;exitY=0.5;exitDx=0;exitDy=0;entryX=0;entryY=0.5;entryDx=0;entryDy=0;" parent="RJbI8CJS_2p1f_aJpvgx-1" source="RJbI8CJS_2p1f_aJpvgx-11" target="RJbI8CJS_2p1f_aJpvgx-5" edge="1">
          <mxGeometry relative="1" as="geometry">
            <mxPoint x="666" y="580" as="sourcePoint" />
            <mxPoint x="640" y="390" as="targetPoint" />
          </mxGeometry>
        </mxCell>
        <mxCell id="RJbI8CJS_2p1f_aJpvgx-13" value="M" style="resizable=0;html=1;align=right;verticalAlign=bottom;" parent="RJbI8CJS_2p1f_aJpvgx-12" connectable="0" vertex="1">
          <mxGeometry x="1" relative="1" as="geometry">
            <mxPoint x="-36" as="offset" />
          </mxGeometry>
        </mxCell>
        <mxCell id="RJbI8CJS_2p1f_aJpvgx-14" value="" style="endArrow=none;html=1;rounded=0;exitX=0;exitY=0.5;exitDx=0;exitDy=0;entryX=1;entryY=0.5;entryDx=0;entryDy=0;" parent="RJbI8CJS_2p1f_aJpvgx-1" source="RJbI8CJS_2p1f_aJpvgx-11" edge="1">
          <mxGeometry relative="1" as="geometry">
            <mxPoint x="666" y="580" as="sourcePoint" />
            <mxPoint x="464" y="390" as="targetPoint" />
          </mxGeometry>
        </mxCell>
        <mxCell id="RJbI8CJS_2p1f_aJpvgx-15" value="N" style="resizable=0;html=1;align=right;verticalAlign=bottom;" parent="RJbI8CJS_2p1f_aJpvgx-14" connectable="0" vertex="1">
          <mxGeometry x="1" relative="1" as="geometry">
            <mxPoint x="36" as="offset" />
          </mxGeometry>
        </mxCell>
        <mxCell id="RJbI8CJS_2p1f_aJpvgx-16" value="" style="edgeStyle=orthogonalEdgeStyle;rounded=0;orthogonalLoop=1;jettySize=auto;html=1;endArrow=none;endFill=0;" parent="RJbI8CJS_2p1f_aJpvgx-1" source="RJbI8CJS_2p1f_aJpvgx-18" target="RJbI8CJS_2p1f_aJpvgx-26" edge="1">
          <mxGeometry relative="1" as="geometry" />
        </mxCell>
        <mxCell id="RJbI8CJS_2p1f_aJpvgx-17" value="1" style="edgeLabel;html=1;align=center;verticalAlign=middle;resizable=0;points=[];" parent="RJbI8CJS_2p1f_aJpvgx-16" vertex="1" connectable="0">
          <mxGeometry x="0.7695" y="-2" relative="1" as="geometry">
            <mxPoint x="14" y="3" as="offset" />
          </mxGeometry>
        </mxCell>
        <mxCell id="RJbI8CJS_2p1f_aJpvgx-109" value="1" style="edgeStyle=orthogonalEdgeStyle;rounded=0;orthogonalLoop=1;jettySize=auto;html=1;exitX=1;exitY=0.5;exitDx=0;exitDy=0;endArrow=none;endFill=0;entryX=0.5;entryY=0;entryDx=0;entryDy=0;" parent="RJbI8CJS_2p1f_aJpvgx-1" source="RJbI8CJS_2p1f_aJpvgx-18" target="RJbI8CJS_2p1f_aJpvgx-108" edge="1">
          <mxGeometry x="0.4286" y="16" relative="1" as="geometry">
            <Array as="points">
              <mxPoint x="524" y="540" />
            </Array>
            <mxPoint as="offset" />
          </mxGeometry>
        </mxCell>
        <mxCell id="RJbI8CJS_2p1f_aJpvgx-18" value="Operartor" style="whiteSpace=wrap;html=1;align=center;fillColor=#dae8fc;strokeColor=#6c8ebf;" parent="RJbI8CJS_2p1f_aJpvgx-1" vertex="1">
          <mxGeometry x="364" y="520" width="100" height="40" as="geometry" />
        </mxCell>
        <mxCell id="RJbI8CJS_2p1f_aJpvgx-116" style="edgeStyle=orthogonalEdgeStyle;rounded=0;orthogonalLoop=1;jettySize=auto;html=1;exitX=0;exitY=0.5;exitDx=0;exitDy=0;entryX=0.5;entryY=0;entryDx=0;entryDy=0;endArrow=none;endFill=0;" parent="RJbI8CJS_2p1f_aJpvgx-1" source="RJbI8CJS_2p1f_aJpvgx-19" target="RJbI8CJS_2p1f_aJpvgx-112" edge="1">
          <mxGeometry relative="1" as="geometry" />
        </mxCell>
        <mxCell id="RJbI8CJS_2p1f_aJpvgx-19" value="Schema" style="whiteSpace=wrap;html=1;align=center;fillColor=#dae8fc;strokeColor=#6c8ebf;" parent="RJbI8CJS_2p1f_aJpvgx-1" vertex="1">
          <mxGeometry x="770" y="520" width="100" height="40" as="geometry" />
        </mxCell>
        <mxCell id="RJbI8CJS_2p1f_aJpvgx-20" value="N" style="resizable=0;html=1;align=right;verticalAlign=bottom;" parent="RJbI8CJS_2p1f_aJpvgx-1" connectable="0" vertex="1">
          <mxGeometry x="340.1379310344828" y="540" as="geometry" />
        </mxCell>
        <mxCell id="RJbI8CJS_2p1f_aJpvgx-21" value="包含" style="shape=rhombus;perimeter=rhombusPerimeter;whiteSpace=wrap;html=1;align=center;fillColor=#f8cecc;strokeColor=#b85450;" parent="RJbI8CJS_2p1f_aJpvgx-1" vertex="1">
          <mxGeometry x="550" y="510" width="120" height="60" as="geometry" />
        </mxCell>
        <mxCell id="RJbI8CJS_2p1f_aJpvgx-22" value="" style="endArrow=none;html=1;rounded=0;exitX=1;exitY=0.5;exitDx=0;exitDy=0;entryX=0;entryY=0.5;entryDx=0;entryDy=0;" parent="RJbI8CJS_2p1f_aJpvgx-1" source="RJbI8CJS_2p1f_aJpvgx-21" target="RJbI8CJS_2p1f_aJpvgx-19" edge="1">
          <mxGeometry relative="1" as="geometry">
            <mxPoint x="666" y="730" as="sourcePoint" />
            <mxPoint x="640" y="540" as="targetPoint" />
          </mxGeometry>
        </mxCell>
        <mxCell id="RJbI8CJS_2p1f_aJpvgx-23" value="N" style="resizable=0;html=1;align=right;verticalAlign=bottom;" parent="RJbI8CJS_2p1f_aJpvgx-22" connectable="0" vertex="1">
          <mxGeometry x="1" relative="1" as="geometry">
            <mxPoint x="-40" as="offset" />
          </mxGeometry>
        </mxCell>
        <mxCell id="RJbI8CJS_2p1f_aJpvgx-24" value="" style="endArrow=none;html=1;rounded=0;exitX=0;exitY=0.5;exitDx=0;exitDy=0;entryX=1;entryY=0.5;entryDx=0;entryDy=0;" parent="RJbI8CJS_2p1f_aJpvgx-1" source="RJbI8CJS_2p1f_aJpvgx-21" target="RJbI8CJS_2p1f_aJpvgx-18" edge="1">
          <mxGeometry relative="1" as="geometry">
            <mxPoint x="666" y="730" as="sourcePoint" />
            <mxPoint x="480" y="540" as="targetPoint" />
          </mxGeometry>
        </mxCell>
        <mxCell id="RJbI8CJS_2p1f_aJpvgx-25" value="1" style="resizable=0;html=1;align=right;verticalAlign=bottom;" parent="RJbI8CJS_2p1f_aJpvgx-24" connectable="0" vertex="1">
          <mxGeometry x="1" relative="1" as="geometry">
            <mxPoint x="26" y="-10" as="offset" />
          </mxGeometry>
        </mxCell>
        <mxCell id="RJbI8CJS_2p1f_aJpvgx-26" value="填写参数" style="rhombus;whiteSpace=wrap;html=1;fillColor=#f8cecc;strokeColor=#b85450;" parent="RJbI8CJS_2p1f_aJpvgx-1" vertex="1">
          <mxGeometry x="374" y="440" width="80" height="50" as="geometry" />
        </mxCell>
        <mxCell id="RJbI8CJS_2p1f_aJpvgx-27" style="edgeStyle=orthogonalEdgeStyle;rounded=0;orthogonalLoop=1;jettySize=auto;html=1;exitX=0.5;exitY=1;exitDx=0;exitDy=0;endArrow=none;endFill=0;" parent="RJbI8CJS_2p1f_aJpvgx-1" source="RJbI8CJS_2p1f_aJpvgx-26" target="RJbI8CJS_2p1f_aJpvgx-26" edge="1">
          <mxGeometry relative="1" as="geometry" />
        </mxCell>
        <mxCell id="RJbI8CJS_2p1f_aJpvgx-28" style="edgeStyle=none;rounded=0;orthogonalLoop=1;jettySize=auto;html=1;exitX=0.5;exitY=0;exitDx=0;exitDy=0;entryX=0.5;entryY=1;entryDx=0;entryDy=0;endArrow=none;endFill=0;fillColor=#ffe6cc;strokeColor=#d79b00;" parent="RJbI8CJS_2p1f_aJpvgx-1" source="RJbI8CJS_2p1f_aJpvgx-29" target="RJbI8CJS_2p1f_aJpvgx-2" edge="1">
          <mxGeometry relative="1" as="geometry" />
        </mxCell>
        <mxCell id="RJbI8CJS_2p1f_aJpvgx-29" value="Name" style="ellipse;whiteSpace=wrap;html=1;align=center;fillColor=#ffe6cc;strokeColor=#d79b00;" parent="RJbI8CJS_2p1f_aJpvgx-1" vertex="1">
          <mxGeometry x="-20" y="445" width="100" height="40" as="geometry" />
        </mxCell>
        <mxCell id="RJbI8CJS_2p1f_aJpvgx-30" style="rounded=0;orthogonalLoop=1;jettySize=auto;html=1;exitX=0.5;exitY=1;exitDx=0;exitDy=0;entryX=0.5;entryY=0;entryDx=0;entryDy=0;endArrow=none;endFill=0;" parent="RJbI8CJS_2p1f_aJpvgx-1" source="RJbI8CJS_2p1f_aJpvgx-31" target="RJbI8CJS_2p1f_aJpvgx-2" edge="1">
          <mxGeometry relative="1" as="geometry" />
        </mxCell>
        <mxCell id="RJbI8CJS_2p1f_aJpvgx-31" value="Creator" style="ellipse;whiteSpace=wrap;html=1;align=center;fillColor=#ffe6cc;strokeColor=#d79b00;" parent="RJbI8CJS_2p1f_aJpvgx-1" vertex="1">
          <mxGeometry x="20" y="300" width="100" height="40" as="geometry" />
        </mxCell>
        <mxCell id="RJbI8CJS_2p1f_aJpvgx-32" style="edgeStyle=orthogonalEdgeStyle;rounded=0;orthogonalLoop=1;jettySize=auto;html=1;entryX=0;entryY=0.5;entryDx=0;entryDy=0;endArrow=none;endFill=0;" parent="RJbI8CJS_2p1f_aJpvgx-1" source="RJbI8CJS_2p1f_aJpvgx-33" target="RJbI8CJS_2p1f_aJpvgx-2" edge="1">
          <mxGeometry relative="1" as="geometry" />
        </mxCell>
        <mxCell id="RJbI8CJS_2p1f_aJpvgx-33" value="ID" style="ellipse;whiteSpace=wrap;html=1;align=center;fontStyle=4;fillColor=#ffe6cc;strokeColor=#d79b00;" parent="RJbI8CJS_2p1f_aJpvgx-1" vertex="1">
          <mxGeometry x="-100" y="370" width="100" height="40" as="geometry" />
        </mxCell>
        <mxCell id="RJbI8CJS_2p1f_aJpvgx-34" style="edgeStyle=none;rounded=0;orthogonalLoop=1;jettySize=auto;html=1;exitX=0.5;exitY=0;exitDx=0;exitDy=0;endArrow=none;endFill=0;entryX=0.5;entryY=1;entryDx=0;entryDy=0;fillColor=#ffe6cc;strokeColor=#d79b00;" parent="RJbI8CJS_2p1f_aJpvgx-1" source="RJbI8CJS_2p1f_aJpvgx-35" target="RJbI8CJS_2p1f_aJpvgx-2" edge="1">
          <mxGeometry relative="1" as="geometry">
            <mxPoint x="88.56953381769836" y="428.56953381769813" as="targetPoint" />
          </mxGeometry>
        </mxCell>
        <mxCell id="RJbI8CJS_2p1f_aJpvgx-35" value="Status" style="ellipse;whiteSpace=wrap;html=1;align=center;fillColor=#ffe6cc;strokeColor=#d79b00;" parent="RJbI8CJS_2p1f_aJpvgx-1" vertex="1">
          <mxGeometry x="80" y="450" width="100" height="40" as="geometry" />
        </mxCell>
        <mxCell id="RJbI8CJS_2p1f_aJpvgx-36" style="edgeStyle=none;rounded=0;orthogonalLoop=1;jettySize=auto;html=1;endArrow=none;endFill=0;entryX=0.5;entryY=1;entryDx=0;entryDy=0;fillColor=#ffe6cc;strokeColor=#d79b00;" parent="RJbI8CJS_2p1f_aJpvgx-1" source="RJbI8CJS_2p1f_aJpvgx-37" target="RJbI8CJS_2p1f_aJpvgx-18" edge="1">
          <mxGeometry relative="1" as="geometry">
            <mxPoint x="380" y="580" as="targetPoint" />
          </mxGeometry>
        </mxCell>
        <mxCell id="RJbI8CJS_2p1f_aJpvgx-37" value="Operator_Name" style="ellipse;whiteSpace=wrap;html=1;align=center;fillColor=#ffe6cc;strokeColor=#d79b00;" parent="RJbI8CJS_2p1f_aJpvgx-1" vertex="1">
          <mxGeometry x="200" y="600" width="100" height="40" as="geometry" />
        </mxCell>
        <mxCell id="RJbI8CJS_2p1f_aJpvgx-38" style="edgeStyle=none;rounded=0;orthogonalLoop=1;jettySize=auto;html=1;entryX=0.5;entryY=1;entryDx=0;entryDy=0;endArrow=none;endFill=0;fillColor=#ffe6cc;strokeColor=#d79b00;" parent="RJbI8CJS_2p1f_aJpvgx-1" source="RJbI8CJS_2p1f_aJpvgx-39" target="RJbI8CJS_2p1f_aJpvgx-18" edge="1">
          <mxGeometry relative="1" as="geometry" />
        </mxCell>
        <mxCell id="RJbI8CJS_2p1f_aJpvgx-39" value="&lt;u&gt;ID&lt;/u&gt;" style="ellipse;whiteSpace=wrap;html=1;align=center;fillColor=#ffe6cc;strokeColor=#d79b00;" parent="RJbI8CJS_2p1f_aJpvgx-1" vertex="1">
          <mxGeometry x="214" y="550" width="100" height="40" as="geometry" />
        </mxCell>
        <mxCell id="RJbI8CJS_2p1f_aJpvgx-40" style="edgeStyle=none;rounded=0;orthogonalLoop=1;jettySize=auto;html=1;exitX=0.5;exitY=0;exitDx=0;exitDy=0;entryX=0.5;entryY=1;entryDx=0;entryDy=0;endArrow=none;endFill=0;fillColor=#ffe6cc;strokeColor=#d79b00;" parent="RJbI8CJS_2p1f_aJpvgx-1" source="RJbI8CJS_2p1f_aJpvgx-41" target="RJbI8CJS_2p1f_aJpvgx-18" edge="1">
          <mxGeometry relative="1" as="geometry" />
        </mxCell>
        <mxCell id="RJbI8CJS_2p1f_aJpvgx-41" value="Creator" style="ellipse;whiteSpace=wrap;html=1;align=center;fillColor=#ffe6cc;strokeColor=#d79b00;" parent="RJbI8CJS_2p1f_aJpvgx-1" vertex="1">
          <mxGeometry x="200" y="650" width="100" height="40" as="geometry" />
        </mxCell>
        <mxCell id="RJbI8CJS_2p1f_aJpvgx-42" style="edgeStyle=none;rounded=0;orthogonalLoop=1;jettySize=auto;html=1;exitX=0.5;exitY=0;exitDx=0;exitDy=0;entryX=0.5;entryY=1;entryDx=0;entryDy=0;endArrow=none;endFill=0;fillColor=#ffe6cc;strokeColor=#d79b00;" parent="RJbI8CJS_2p1f_aJpvgx-1" source="RJbI8CJS_2p1f_aJpvgx-43" target="RJbI8CJS_2p1f_aJpvgx-18" edge="1">
          <mxGeometry relative="1" as="geometry" />
        </mxCell>
        <mxCell id="RJbI8CJS_2p1f_aJpvgx-43" value="Global_Num" style="ellipse;whiteSpace=wrap;html=1;align=center;fillColor=#ffe6cc;strokeColor=#d79b00;" parent="RJbI8CJS_2p1f_aJpvgx-1" vertex="1">
          <mxGeometry x="364" y="770" width="100" height="40" as="geometry" />
        </mxCell>
        <mxCell id="RJbI8CJS_2p1f_aJpvgx-44" style="edgeStyle=none;rounded=0;orthogonalLoop=1;jettySize=auto;html=1;exitX=0.5;exitY=0;exitDx=0;exitDy=0;entryX=0.5;entryY=1;entryDx=0;entryDy=0;endArrow=none;endFill=0;fillColor=#ffe6cc;strokeColor=#d79b00;" parent="RJbI8CJS_2p1f_aJpvgx-1" source="RJbI8CJS_2p1f_aJpvgx-45" target="RJbI8CJS_2p1f_aJpvgx-18" edge="1">
          <mxGeometry relative="1" as="geometry" />
        </mxCell>
        <mxCell id="RJbI8CJS_2p1f_aJpvgx-45" value="Const_Num" style="ellipse;whiteSpace=wrap;html=1;align=center;fillColor=#ffe6cc;strokeColor=#d79b00;" parent="RJbI8CJS_2p1f_aJpvgx-1" vertex="1">
          <mxGeometry x="290.14" y="730" width="100" height="40" as="geometry" />
        </mxCell>
        <mxCell id="RJbI8CJS_2p1f_aJpvgx-46" style="edgeStyle=none;rounded=0;orthogonalLoop=1;jettySize=auto;html=1;exitX=0.5;exitY=0;exitDx=0;exitDy=0;entryX=0.5;entryY=1;entryDx=0;entryDy=0;endArrow=none;endFill=0;fillColor=#ffe6cc;strokeColor=#d79b00;" parent="RJbI8CJS_2p1f_aJpvgx-1" source="RJbI8CJS_2p1f_aJpvgx-47" target="RJbI8CJS_2p1f_aJpvgx-18" edge="1">
          <mxGeometry relative="1" as="geometry" />
        </mxCell>
        <mxCell id="RJbI8CJS_2p1f_aJpvgx-47" value="Data_Set_Num" style="ellipse;whiteSpace=wrap;html=1;align=center;fillColor=#ffe6cc;strokeColor=#d79b00;" parent="RJbI8CJS_2p1f_aJpvgx-1" vertex="1">
          <mxGeometry x="240" y="690" width="100" height="40" as="geometry" />
        </mxCell>
        <mxCell id="RJbI8CJS_2p1f_aJpvgx-48" value="DAG_NODE" style="shape=associativeEntity;whiteSpace=wrap;html=1;align=center;fillColor=#dae8fc;strokeColor=#6c8ebf;" parent="RJbI8CJS_2p1f_aJpvgx-1" vertex="1">
          <mxGeometry x="360" y="365" width="110" height="50" as="geometry" />
        </mxCell>
        <mxCell id="RJbI8CJS_2p1f_aJpvgx-49" style="edgeStyle=none;rounded=0;orthogonalLoop=1;jettySize=auto;html=1;endArrow=none;endFill=0;fillColor=#ffe6cc;strokeColor=#d79b00;entryX=0.5;entryY=1;entryDx=0;entryDy=0;" parent="RJbI8CJS_2p1f_aJpvgx-1" source="RJbI8CJS_2p1f_aJpvgx-50" target="RJbI8CJS_2p1f_aJpvgx-19" edge="1">
          <mxGeometry relative="1" as="geometry">
            <mxPoint x="820" y="550" as="targetPoint" />
          </mxGeometry>
        </mxCell>
        <mxCell id="RJbI8CJS_2p1f_aJpvgx-50" value="Operator_ID" style="ellipse;whiteSpace=wrap;html=1;align=center;fillColor=#ffe6cc;strokeColor=#d79b00;" parent="RJbI8CJS_2p1f_aJpvgx-1" vertex="1">
          <mxGeometry x="870" y="780" width="100" height="40" as="geometry" />
        </mxCell>
        <mxCell id="RJbI8CJS_2p1f_aJpvgx-51" style="edgeStyle=none;rounded=0;orthogonalLoop=1;jettySize=auto;html=1;entryX=0.5;entryY=1;entryDx=0;entryDy=0;endArrow=none;endFill=0;fillColor=#ffe6cc;strokeColor=#d79b00;" parent="RJbI8CJS_2p1f_aJpvgx-1" source="RJbI8CJS_2p1f_aJpvgx-52" target="RJbI8CJS_2p1f_aJpvgx-19" edge="1">
          <mxGeometry relative="1" as="geometry" />
        </mxCell>
        <mxCell id="RJbI8CJS_2p1f_aJpvgx-52" value="Field" style="ellipse;whiteSpace=wrap;html=1;align=center;fillColor=#ffe6cc;strokeColor=#d79b00;" parent="RJbI8CJS_2p1f_aJpvgx-1" vertex="1">
          <mxGeometry x="940" y="740" width="100" height="40" as="geometry" />
        </mxCell>
        <mxCell id="RJbI8CJS_2p1f_aJpvgx-53" style="edgeStyle=none;rounded=0;orthogonalLoop=1;jettySize=auto;html=1;exitX=0.5;exitY=0;exitDx=0;exitDy=0;entryX=0.5;entryY=1;entryDx=0;entryDy=0;endArrow=none;endFill=0;fillColor=#ffe6cc;strokeColor=#d79b00;" parent="RJbI8CJS_2p1f_aJpvgx-1" source="RJbI8CJS_2p1f_aJpvgx-54" target="RJbI8CJS_2p1f_aJpvgx-19" edge="1">
          <mxGeometry relative="1" as="geometry" />
        </mxCell>
        <mxCell id="RJbI8CJS_2p1f_aJpvgx-54" value="Field_Type" style="ellipse;whiteSpace=wrap;html=1;align=center;fillColor=#ffe6cc;strokeColor=#d79b00;" parent="RJbI8CJS_2p1f_aJpvgx-1" vertex="1">
          <mxGeometry x="930" y="570" width="100" height="40" as="geometry" />
        </mxCell>
        <mxCell id="RJbI8CJS_2p1f_aJpvgx-55" style="edgeStyle=none;rounded=0;orthogonalLoop=1;jettySize=auto;html=1;exitX=0.5;exitY=0;exitDx=0;exitDy=0;endArrow=none;endFill=0;fillColor=#ffe6cc;strokeColor=#d79b00;entryX=0.5;entryY=1;entryDx=0;entryDy=0;" parent="RJbI8CJS_2p1f_aJpvgx-1" source="RJbI8CJS_2p1f_aJpvgx-56" target="RJbI8CJS_2p1f_aJpvgx-19" edge="1">
          <mxGeometry relative="1" as="geometry">
            <mxPoint x="790" y="560" as="targetPoint" />
          </mxGeometry>
        </mxCell>
        <mxCell id="RJbI8CJS_2p1f_aJpvgx-56" value="Type" style="ellipse;whiteSpace=wrap;html=1;align=center;fillColor=#ffe6cc;strokeColor=#d79b00;" parent="RJbI8CJS_2p1f_aJpvgx-1" vertex="1">
          <mxGeometry x="950" y="630" width="100" height="40" as="geometry" />
        </mxCell>
        <mxCell id="RJbI8CJS_2p1f_aJpvgx-57" style="edgeStyle=none;rounded=0;orthogonalLoop=1;jettySize=auto;html=1;exitX=0.5;exitY=0;exitDx=0;exitDy=0;entryX=0.5;entryY=1;entryDx=0;entryDy=0;endArrow=none;endFill=0;fillColor=#ffe6cc;strokeColor=#d79b00;" parent="RJbI8CJS_2p1f_aJpvgx-1" source="RJbI8CJS_2p1f_aJpvgx-58" target="RJbI8CJS_2p1f_aJpvgx-19" edge="1">
          <mxGeometry relative="1" as="geometry" />
        </mxCell>
        <mxCell id="RJbI8CJS_2p1f_aJpvgx-58" value="Default_Value" style="ellipse;whiteSpace=wrap;html=1;align=center;fillColor=#ffe6cc;strokeColor=#d79b00;" parent="RJbI8CJS_2p1f_aJpvgx-1" vertex="1">
          <mxGeometry x="950" y="690" width="100" height="40" as="geometry" />
        </mxCell>
        <mxCell id="RJbI8CJS_2p1f_aJpvgx-59" style="edgeStyle=none;rounded=0;orthogonalLoop=1;jettySize=auto;html=1;entryX=0.5;entryY=1;entryDx=0;entryDy=0;endArrow=none;endFill=0;fillColor=#ffe6cc;strokeColor=#d79b00;" parent="RJbI8CJS_2p1f_aJpvgx-1" source="RJbI8CJS_2p1f_aJpvgx-60" target="RJbI8CJS_2p1f_aJpvgx-19" edge="1">
          <mxGeometry relative="1" as="geometry" />
        </mxCell>
        <mxCell id="RJbI8CJS_2p1f_aJpvgx-60" value="&lt;u&gt;ID&lt;/u&gt;" style="ellipse;whiteSpace=wrap;html=1;align=center;fillColor=#ffe6cc;strokeColor=#d79b00;" parent="RJbI8CJS_2p1f_aJpvgx-1" vertex="1">
          <mxGeometry x="770" y="760" width="100" height="40" as="geometry" />
        </mxCell>
        <mxCell id="RJbI8CJS_2p1f_aJpvgx-61" style="edgeStyle=none;rounded=0;orthogonalLoop=1;jettySize=auto;html=1;exitX=0.5;exitY=1;exitDx=0;exitDy=0;entryX=0.5;entryY=0;entryDx=0;entryDy=0;endArrow=none;endFill=0;fillColor=#ffe6cc;strokeColor=#d79b00;" parent="RJbI8CJS_2p1f_aJpvgx-1" source="RJbI8CJS_2p1f_aJpvgx-62" target="RJbI8CJS_2p1f_aJpvgx-48" edge="1">
          <mxGeometry relative="1" as="geometry" />
        </mxCell>
        <mxCell id="RJbI8CJS_2p1f_aJpvgx-62" value="Node_Name" style="ellipse;whiteSpace=wrap;html=1;align=center;fillColor=#ffe6cc;strokeColor=#d79b00;" parent="RJbI8CJS_2p1f_aJpvgx-1" vertex="1">
          <mxGeometry x="250" y="260" width="100" height="40" as="geometry" />
        </mxCell>
        <mxCell id="RJbI8CJS_2p1f_aJpvgx-63" style="edgeStyle=none;rounded=0;orthogonalLoop=1;jettySize=auto;html=1;entryX=0.5;entryY=0;entryDx=0;entryDy=0;endArrow=none;endFill=0;fillColor=#ffe6cc;strokeColor=#d79b00;" parent="RJbI8CJS_2p1f_aJpvgx-1" source="RJbI8CJS_2p1f_aJpvgx-64" target="RJbI8CJS_2p1f_aJpvgx-48" edge="1">
          <mxGeometry relative="1" as="geometry" />
        </mxCell>
        <mxCell id="RJbI8CJS_2p1f_aJpvgx-64" value="&lt;u&gt;ID&lt;/u&gt;" style="ellipse;whiteSpace=wrap;html=1;align=center;fillColor=#ffe6cc;strokeColor=#d79b00;" parent="RJbI8CJS_2p1f_aJpvgx-1" vertex="1">
          <mxGeometry x="240.14" y="320" width="100" height="40" as="geometry" />
        </mxCell>
        <mxCell id="RJbI8CJS_2p1f_aJpvgx-65" style="edgeStyle=none;rounded=0;orthogonalLoop=1;jettySize=auto;html=1;exitX=0.5;exitY=1;exitDx=0;exitDy=0;entryX=0.5;entryY=0;entryDx=0;entryDy=0;endArrow=none;endFill=0;fillColor=#ffe6cc;strokeColor=#d79b00;" parent="RJbI8CJS_2p1f_aJpvgx-1" source="RJbI8CJS_2p1f_aJpvgx-66" target="RJbI8CJS_2p1f_aJpvgx-48" edge="1">
          <mxGeometry relative="1" as="geometry" />
        </mxCell>
        <mxCell id="RJbI8CJS_2p1f_aJpvgx-66" value="Operator_ID" style="ellipse;whiteSpace=wrap;html=1;align=center;fillColor=#ffe6cc;strokeColor=#d79b00;" parent="RJbI8CJS_2p1f_aJpvgx-1" vertex="1">
          <mxGeometry x="290.14" y="210" width="100" height="40" as="geometry" />
        </mxCell>
        <mxCell id="RJbI8CJS_2p1f_aJpvgx-67" style="edgeStyle=none;rounded=0;orthogonalLoop=1;jettySize=auto;html=1;exitX=0;exitY=1;exitDx=0;exitDy=0;entryX=0.5;entryY=0;entryDx=0;entryDy=0;endArrow=none;endFill=0;fillColor=#ffe6cc;strokeColor=#d79b00;" parent="RJbI8CJS_2p1f_aJpvgx-1" source="RJbI8CJS_2p1f_aJpvgx-68" target="RJbI8CJS_2p1f_aJpvgx-48" edge="1">
          <mxGeometry relative="1" as="geometry" />
        </mxCell>
        <mxCell id="RJbI8CJS_2p1f_aJpvgx-68" value="Global_Key" style="ellipse;whiteSpace=wrap;html=1;align=center;fillColor=#ffe6cc;strokeColor=#d79b00;" parent="RJbI8CJS_2p1f_aJpvgx-1" vertex="1">
          <mxGeometry x="464" y="200" width="100" height="40" as="geometry" />
        </mxCell>
        <mxCell id="RJbI8CJS_2p1f_aJpvgx-69" style="edgeStyle=none;rounded=0;orthogonalLoop=1;jettySize=auto;html=1;exitX=0.5;exitY=1;exitDx=0;exitDy=0;entryX=0.5;entryY=0;entryDx=0;entryDy=0;endArrow=none;endFill=0;fillColor=#ffe6cc;strokeColor=#d79b00;" parent="RJbI8CJS_2p1f_aJpvgx-1" source="RJbI8CJS_2p1f_aJpvgx-70" target="RJbI8CJS_2p1f_aJpvgx-48" edge="1">
          <mxGeometry relative="1" as="geometry" />
        </mxCell>
        <mxCell id="RJbI8CJS_2p1f_aJpvgx-70" value="Parent_ID" style="ellipse;whiteSpace=wrap;html=1;align=center;fillColor=#ffe6cc;strokeColor=#d79b00;" parent="RJbI8CJS_2p1f_aJpvgx-1" vertex="1">
          <mxGeometry x="480" y="260" width="100" height="40" as="geometry" />
        </mxCell>
        <mxCell id="RJbI8CJS_2p1f_aJpvgx-71" style="edgeStyle=none;rounded=0;orthogonalLoop=1;jettySize=auto;html=1;exitX=0.5;exitY=1;exitDx=0;exitDy=0;entryX=0.5;entryY=0;entryDx=0;entryDy=0;endArrow=none;endFill=0;fillColor=#ffe6cc;strokeColor=#d79b00;" parent="RJbI8CJS_2p1f_aJpvgx-1" source="RJbI8CJS_2p1f_aJpvgx-72" target="RJbI8CJS_2p1f_aJpvgx-48" edge="1">
          <mxGeometry relative="1" as="geometry" />
        </mxCell>
        <mxCell id="RJbI8CJS_2p1f_aJpvgx-72" value="OutPut_Key" style="ellipse;whiteSpace=wrap;html=1;align=center;fillColor=#ffe6cc;strokeColor=#d79b00;" parent="RJbI8CJS_2p1f_aJpvgx-1" vertex="1">
          <mxGeometry x="370" y="170" width="100" height="40" as="geometry" />
        </mxCell>
        <mxCell id="RJbI8CJS_2p1f_aJpvgx-73" style="edgeStyle=none;rounded=0;orthogonalLoop=1;jettySize=auto;html=1;exitX=0.5;exitY=1;exitDx=0;exitDy=0;entryX=0.5;entryY=0;entryDx=0;entryDy=0;endArrow=none;endFill=0;fillColor=#ffe6cc;strokeColor=#d79b00;" parent="RJbI8CJS_2p1f_aJpvgx-1" source="RJbI8CJS_2p1f_aJpvgx-74" target="RJbI8CJS_2p1f_aJpvgx-48" edge="1">
          <mxGeometry relative="1" as="geometry" />
        </mxCell>
        <mxCell id="RJbI8CJS_2p1f_aJpvgx-74" value="Child_ID" style="ellipse;whiteSpace=wrap;html=1;align=center;fillColor=#ffe6cc;strokeColor=#d79b00;" parent="RJbI8CJS_2p1f_aJpvgx-1" vertex="1">
          <mxGeometry x="480" y="320" width="100" height="40" as="geometry" />
        </mxCell>
        <mxCell id="RJbI8CJS_2p1f_aJpvgx-75" style="edgeStyle=none;rounded=0;orthogonalLoop=1;jettySize=auto;html=1;exitX=0.5;exitY=1;exitDx=0;exitDy=0;entryX=0.5;entryY=0;entryDx=0;entryDy=0;endArrow=none;endFill=0;fillColor=#ffe6cc;strokeColor=#d79b00;" parent="RJbI8CJS_2p1f_aJpvgx-1" source="RJbI8CJS_2p1f_aJpvgx-76" target="RJbI8CJS_2p1f_aJpvgx-5" edge="1">
          <mxGeometry relative="1" as="geometry" />
        </mxCell>
        <mxCell id="RJbI8CJS_2p1f_aJpvgx-76" value="Node_ID" style="ellipse;whiteSpace=wrap;html=1;align=center;fillColor=#ffe6cc;strokeColor=#d79b00;" parent="RJbI8CJS_2p1f_aJpvgx-1" vertex="1">
          <mxGeometry x="660" y="252.5" width="100" height="37.5" as="geometry" />
        </mxCell>
        <mxCell id="RJbI8CJS_2p1f_aJpvgx-77" style="edgeStyle=none;rounded=0;orthogonalLoop=1;jettySize=auto;html=1;exitX=0.5;exitY=1;exitDx=0;exitDy=0;entryX=0.5;entryY=0;entryDx=0;entryDy=0;endArrow=none;endFill=0;fillColor=#ffe6cc;strokeColor=#d79b00;" parent="RJbI8CJS_2p1f_aJpvgx-1" source="RJbI8CJS_2p1f_aJpvgx-78" target="RJbI8CJS_2p1f_aJpvgx-5" edge="1">
          <mxGeometry relative="1" as="geometry" />
        </mxCell>
        <mxCell id="RJbI8CJS_2p1f_aJpvgx-78" value="Param_Value" style="ellipse;whiteSpace=wrap;html=1;align=center;fillColor=#ffe6cc;strokeColor=#d79b00;" parent="RJbI8CJS_2p1f_aJpvgx-1" vertex="1">
          <mxGeometry x="740" y="200" width="100" height="40" as="geometry" />
        </mxCell>
        <mxCell id="RJbI8CJS_2p1f_aJpvgx-79" style="edgeStyle=none;rounded=0;orthogonalLoop=1;jettySize=auto;html=1;exitX=0.5;exitY=1;exitDx=0;exitDy=0;endArrow=none;endFill=0;fillColor=#ffe6cc;strokeColor=#d79b00;entryX=0.5;entryY=0;entryDx=0;entryDy=0;" parent="RJbI8CJS_2p1f_aJpvgx-1" source="RJbI8CJS_2p1f_aJpvgx-80" target="RJbI8CJS_2p1f_aJpvgx-5" edge="1">
          <mxGeometry relative="1" as="geometry">
            <mxPoint x="790" y="370" as="targetPoint" />
          </mxGeometry>
        </mxCell>
        <mxCell id="RJbI8CJS_2p1f_aJpvgx-80" value="Type" style="ellipse;whiteSpace=wrap;html=1;align=center;fillColor=#ffe6cc;strokeColor=#d79b00;" parent="RJbI8CJS_2p1f_aJpvgx-1" vertex="1">
          <mxGeometry x="850" y="310" width="100" height="40" as="geometry" />
        </mxCell>
        <mxCell id="RJbI8CJS_2p1f_aJpvgx-81" style="edgeStyle=none;rounded=0;orthogonalLoop=1;jettySize=auto;html=1;exitX=0.5;exitY=1;exitDx=0;exitDy=0;entryX=0.5;entryY=0;entryDx=0;entryDy=0;endArrow=none;endFill=0;fillColor=#ffe6cc;strokeColor=#d79b00;" parent="RJbI8CJS_2p1f_aJpvgx-1" source="RJbI8CJS_2p1f_aJpvgx-82" target="RJbI8CJS_2p1f_aJpvgx-5" edge="1">
          <mxGeometry relative="1" as="geometry" />
        </mxCell>
        <mxCell id="RJbI8CJS_2p1f_aJpvgx-82" value="Param_Index" style="ellipse;whiteSpace=wrap;html=1;align=center;fillColor=#ffe6cc;strokeColor=#d79b00;" parent="RJbI8CJS_2p1f_aJpvgx-1" vertex="1">
          <mxGeometry x="840" y="250" width="100" height="40" as="geometry" />
        </mxCell>
        <mxCell id="RJbI8CJS_2p1f_aJpvgx-83" style="edgeStyle=none;rounded=0;orthogonalLoop=1;jettySize=auto;html=1;exitX=0.5;exitY=1;exitDx=0;exitDy=0;entryX=0.5;entryY=0;entryDx=0;entryDy=0;endArrow=none;endFill=0;fillColor=#ffe6cc;strokeColor=#d79b00;" parent="RJbI8CJS_2p1f_aJpvgx-1" source="RJbI8CJS_2p1f_aJpvgx-84" target="RJbI8CJS_2p1f_aJpvgx-5" edge="1">
          <mxGeometry relative="1" as="geometry" />
        </mxCell>
        <mxCell id="RJbI8CJS_2p1f_aJpvgx-84" value="&lt;u&gt;ID&lt;/u&gt;" style="ellipse;whiteSpace=wrap;html=1;align=center;fillColor=#ffe6cc;strokeColor=#d79b00;" parent="RJbI8CJS_2p1f_aJpvgx-1" vertex="1">
          <mxGeometry x="640" y="310" width="100" height="40" as="geometry" />
        </mxCell>
        <mxCell id="RJbI8CJS_2p1f_aJpvgx-85" style="edgeStyle=none;rounded=0;orthogonalLoop=1;jettySize=auto;html=1;entryX=0.5;entryY=0;entryDx=0;entryDy=0;endArrow=none;endFill=0;" parent="RJbI8CJS_2p1f_aJpvgx-1" source="RJbI8CJS_2p1f_aJpvgx-88" target="RJbI8CJS_2p1f_aJpvgx-19" edge="1">
          <mxGeometry relative="1" as="geometry" />
        </mxCell>
        <mxCell id="RJbI8CJS_2p1f_aJpvgx-86" value="N" style="edgeLabel;html=1;align=center;verticalAlign=middle;resizable=0;points=[];" parent="RJbI8CJS_2p1f_aJpvgx-85" vertex="1" connectable="0">
          <mxGeometry x="-0.2" y="-3" relative="1" as="geometry">
            <mxPoint x="13" as="offset" />
          </mxGeometry>
        </mxCell>
        <mxCell id="RJbI8CJS_2p1f_aJpvgx-87" style="edgeStyle=none;rounded=0;orthogonalLoop=1;jettySize=auto;html=1;exitX=0.5;exitY=0;exitDx=0;exitDy=0;endArrow=none;endFill=0;entryX=0.5;entryY=1;entryDx=0;entryDy=0;" parent="RJbI8CJS_2p1f_aJpvgx-1" source="RJbI8CJS_2p1f_aJpvgx-88" target="RJbI8CJS_2p1f_aJpvgx-5" edge="1">
          <mxGeometry relative="1" as="geometry">
            <mxPoint x="790" y="409" as="targetPoint" />
          </mxGeometry>
        </mxCell>
        <mxCell id="RJbI8CJS_2p1f_aJpvgx-88" value="对应" style="shape=rhombus;perimeter=rhombusPerimeter;whiteSpace=wrap;html=1;align=center;fillColor=#f8cecc;strokeColor=#b85450;" parent="RJbI8CJS_2p1f_aJpvgx-1" vertex="1">
          <mxGeometry x="770" y="435" width="100" height="50" as="geometry" />
        </mxCell>
        <mxCell id="RJbI8CJS_2p1f_aJpvgx-89" value="N" style="text;html=1;align=center;verticalAlign=middle;resizable=0;points=[];autosize=1;strokeColor=none;fillColor=none;" parent="RJbI8CJS_2p1f_aJpvgx-1" vertex="1">
          <mxGeometry x="790" y="420" width="20" height="20" as="geometry" />
        </mxCell>
        <mxCell id="RJbI8CJS_2p1f_aJpvgx-90" style="edgeStyle=none;rounded=0;orthogonalLoop=1;jettySize=auto;html=1;exitX=0.5;exitY=1;exitDx=0;exitDy=0;endArrow=none;endFill=0;fillColor=#ffe6cc;strokeColor=#d79b00;" parent="RJbI8CJS_2p1f_aJpvgx-1" source="RJbI8CJS_2p1f_aJpvgx-50" target="RJbI8CJS_2p1f_aJpvgx-50" edge="1">
          <mxGeometry relative="1" as="geometry" />
        </mxCell>
        <mxCell id="RJbI8CJS_2p1f_aJpvgx-91" value="Param_Group" style="whiteSpace=wrap;html=1;align=center;fillColor=#dae8fc;strokeColor=#6c8ebf;" parent="RJbI8CJS_2p1f_aJpvgx-1" vertex="1">
          <mxGeometry x="580" y="790" width="100" height="40" as="geometry" />
        </mxCell>
        <mxCell id="RJbI8CJS_2p1f_aJpvgx-92" value="" style="resizable=0;html=1;align=right;verticalAlign=bottom;" parent="RJbI8CJS_2p1f_aJpvgx-1" connectable="0" vertex="1">
          <mxGeometry x="579.9979310344828" y="790" as="geometry" />
        </mxCell>
        <mxCell id="RJbI8CJS_2p1f_aJpvgx-95" style="edgeStyle=none;rounded=0;orthogonalLoop=1;jettySize=auto;html=1;endArrow=none;endFill=0;entryX=0.5;entryY=1;entryDx=0;entryDy=0;fillColor=#ffe6cc;strokeColor=#d79b00;" parent="RJbI8CJS_2p1f_aJpvgx-1" source="RJbI8CJS_2p1f_aJpvgx-96" target="RJbI8CJS_2p1f_aJpvgx-91" edge="1">
          <mxGeometry relative="1" as="geometry">
            <mxPoint x="619.86" y="830" as="targetPoint" />
          </mxGeometry>
        </mxCell>
        <mxCell id="RJbI8CJS_2p1f_aJpvgx-96" value="Operator_ID" style="ellipse;whiteSpace=wrap;html=1;align=center;fillColor=#ffe6cc;strokeColor=#d79b00;" parent="RJbI8CJS_2p1f_aJpvgx-1" vertex="1">
          <mxGeometry x="574" y="910" width="100" height="40" as="geometry" />
        </mxCell>
        <mxCell id="RJbI8CJS_2p1f_aJpvgx-97" style="edgeStyle=none;rounded=0;orthogonalLoop=1;jettySize=auto;html=1;entryX=0.5;entryY=1;entryDx=0;entryDy=0;endArrow=none;endFill=0;fillColor=#ffe6cc;strokeColor=#d79b00;" parent="RJbI8CJS_2p1f_aJpvgx-1" source="RJbI8CJS_2p1f_aJpvgx-98" target="RJbI8CJS_2p1f_aJpvgx-91" edge="1">
          <mxGeometry relative="1" as="geometry" />
        </mxCell>
        <mxCell id="RJbI8CJS_2p1f_aJpvgx-98" value="&lt;u&gt;ID&lt;/u&gt;" style="ellipse;whiteSpace=wrap;html=1;align=center;fillColor=#ffe6cc;strokeColor=#d79b00;" parent="RJbI8CJS_2p1f_aJpvgx-1" vertex="1">
          <mxGeometry x="474" y="840" width="100" height="40" as="geometry" />
        </mxCell>
        <mxCell id="RJbI8CJS_2p1f_aJpvgx-99" style="edgeStyle=none;rounded=0;orthogonalLoop=1;jettySize=auto;html=1;exitX=0.5;exitY=0;exitDx=0;exitDy=0;entryX=0.5;entryY=1;entryDx=0;entryDy=0;endArrow=none;endFill=0;fillColor=#ffe6cc;strokeColor=#d79b00;" parent="RJbI8CJS_2p1f_aJpvgx-1" source="RJbI8CJS_2p1f_aJpvgx-100" target="RJbI8CJS_2p1f_aJpvgx-91" edge="1">
          <mxGeometry relative="1" as="geometry" />
        </mxCell>
        <mxCell id="RJbI8CJS_2p1f_aJpvgx-100" value="Schema_IDs" style="ellipse;whiteSpace=wrap;html=1;align=center;fillColor=#ffe6cc;strokeColor=#d79b00;" parent="RJbI8CJS_2p1f_aJpvgx-1" vertex="1">
          <mxGeometry x="660" y="870" width="100" height="40" as="geometry" />
        </mxCell>
        <mxCell id="RJbI8CJS_2p1f_aJpvgx-115" style="edgeStyle=orthogonalEdgeStyle;rounded=0;orthogonalLoop=1;jettySize=auto;html=1;exitX=0.5;exitY=1;exitDx=0;exitDy=0;entryX=0.5;entryY=0;entryDx=0;entryDy=0;endArrow=none;endFill=0;" parent="RJbI8CJS_2p1f_aJpvgx-1" source="RJbI8CJS_2p1f_aJpvgx-108" target="RJbI8CJS_2p1f_aJpvgx-91" edge="1">
          <mxGeometry relative="1" as="geometry" />
        </mxCell>
        <mxCell id="RJbI8CJS_2p1f_aJpvgx-120" value="N" style="edgeLabel;html=1;align=center;verticalAlign=middle;resizable=0;points=[];" parent="RJbI8CJS_2p1f_aJpvgx-115" vertex="1" connectable="0">
          <mxGeometry x="-0.7789" y="1" relative="1" as="geometry">
            <mxPoint x="19" y="-1" as="offset" />
          </mxGeometry>
        </mxCell>
        <mxCell id="RJbI8CJS_2p1f_aJpvgx-108" value="包含" style="shape=rhombus;perimeter=rhombusPerimeter;whiteSpace=wrap;html=1;align=center;rotation=0;fillColor=#f8cecc;strokeColor=#b85450;" parent="RJbI8CJS_2p1f_aJpvgx-1" vertex="1">
          <mxGeometry x="464" y="620" width="120" height="60" as="geometry" />
        </mxCell>
        <mxCell id="RJbI8CJS_2p1f_aJpvgx-119" style="edgeStyle=orthogonalEdgeStyle;rounded=0;orthogonalLoop=1;jettySize=auto;html=1;exitX=0.5;exitY=1;exitDx=0;exitDy=0;entryX=0.5;entryY=0;entryDx=0;entryDy=0;endArrow=none;endFill=0;" parent="RJbI8CJS_2p1f_aJpvgx-1" source="RJbI8CJS_2p1f_aJpvgx-112" target="RJbI8CJS_2p1f_aJpvgx-91" edge="1">
          <mxGeometry relative="1" as="geometry" />
        </mxCell>
        <mxCell id="RJbI8CJS_2p1f_aJpvgx-121" value="M" style="edgeLabel;html=1;align=center;verticalAlign=middle;resizable=0;points=[];" parent="RJbI8CJS_2p1f_aJpvgx-119" vertex="1" connectable="0">
          <mxGeometry x="-0.71" y="-2" relative="1" as="geometry">
            <mxPoint x="-18" as="offset" />
          </mxGeometry>
        </mxCell>
        <mxCell id="RJbI8CJS_2p1f_aJpvgx-112" value="组合" style="shape=rhombus;perimeter=rhombusPerimeter;whiteSpace=wrap;html=1;align=center;rotation=0;fillColor=#f8cecc;strokeColor=#b85450;" parent="RJbI8CJS_2p1f_aJpvgx-1" vertex="1">
          <mxGeometry x="650" y="620" width="120" height="60" as="geometry" />
        </mxCell>
        <mxCell id="RJbI8CJS_2p1f_aJpvgx-123" value="N" style="text;html=1;align=center;verticalAlign=middle;resizable=0;points=[];autosize=1;strokeColor=none;fillColor=none;" parent="RJbI8CJS_2p1f_aJpvgx-1" vertex="1">
          <mxGeometry x="710" y="570" width="20" height="20" as="geometry" />
        </mxCell>
      </root>
    </mxGraphModel>
  </diagram>
  <diagram id="8DXOqF4pQDxr4QuPqtMb" name="第 3 页">
    <mxGraphModel dx="984" dy="539" grid="0" gridSize="10" guides="0" tooltips="1" connect="1" arrows="1" fold="1" page="1" pageScale="1" pageWidth="827" pageHeight="1169" math="0" shadow="0">
      <root>
        <mxCell id="xSPtuRsuNs0XD0Ly8xNt-0" />
        <mxCell id="xSPtuRsuNs0XD0Ly8xNt-1" parent="xSPtuRsuNs0XD0Ly8xNt-0" />
        <mxCell id="xSPtuRsuNs0XD0Ly8xNt-11" style="edgeStyle=orthogonalEdgeStyle;rounded=0;orthogonalLoop=1;jettySize=auto;html=1;entryX=0.5;entryY=1;entryDx=0;entryDy=0;endArrow=classic;endFill=1;elbow=vertical;sketch=1;curved=1;" parent="xSPtuRsuNs0XD0Ly8xNt-1" source="xSPtuRsuNs0XD0Ly8xNt-3" target="xSPtuRsuNs0XD0Ly8xNt-6" edge="1">
          <mxGeometry relative="1" as="geometry" />
        </mxCell>
        <mxCell id="xSPtuRsuNs0XD0Ly8xNt-28" style="edgeStyle=none;rounded=0;orthogonalLoop=1;jettySize=auto;html=1;exitX=0.5;exitY=1;exitDx=0;exitDy=0;entryX=0.5;entryY=0;entryDx=0;entryDy=0;entryPerimeter=0;startArrow=classic;startFill=1;endArrow=classic;endFill=1;sketch=1;" parent="xSPtuRsuNs0XD0Ly8xNt-1" source="xSPtuRsuNs0XD0Ly8xNt-3" target="xSPtuRsuNs0XD0Ly8xNt-5" edge="1">
          <mxGeometry relative="1" as="geometry" />
        </mxCell>
        <mxCell id="xSPtuRsuNs0XD0Ly8xNt-3" value="" style="rounded=0;whiteSpace=wrap;html=1;sketch=1;" parent="xSPtuRsuNs0XD0Ly8xNt-1" vertex="1">
          <mxGeometry x="160" y="467" width="210" height="127" as="geometry" />
        </mxCell>
        <mxCell id="xSPtuRsuNs0XD0Ly8xNt-26" style="edgeStyle=none;rounded=0;orthogonalLoop=1;jettySize=auto;html=1;exitX=0.5;exitY=0;exitDx=0;exitDy=0;entryX=0.5;entryY=1;entryDx=0;entryDy=0;endArrow=classic;endFill=1;startArrow=classic;startFill=1;sketch=1;" parent="xSPtuRsuNs0XD0Ly8xNt-1" source="xSPtuRsuNs0XD0Ly8xNt-4" target="xSPtuRsuNs0XD0Ly8xNt-22" edge="1">
          <mxGeometry relative="1" as="geometry" />
        </mxCell>
        <mxCell id="G6dWTBZvziLE-sSAfEjD-2" style="edgeStyle=none;rounded=0;orthogonalLoop=1;jettySize=auto;html=1;" edge="1" parent="xSPtuRsuNs0XD0Ly8xNt-1" source="xSPtuRsuNs0XD0Ly8xNt-4">
          <mxGeometry relative="1" as="geometry">
            <mxPoint x="266.44444444444434" y="466" as="targetPoint" />
          </mxGeometry>
        </mxCell>
        <mxCell id="xSPtuRsuNs0XD0Ly8xNt-4" value="Session_Proxy" style="rounded=0;whiteSpace=wrap;html=1;fillColor=#fff2cc;strokeColor=#d6b656;sketch=1;" parent="xSPtuRsuNs0XD0Ly8xNt-1" vertex="1">
          <mxGeometry x="207" y="374" width="120" height="50" as="geometry" />
        </mxCell>
        <mxCell id="xSPtuRsuNs0XD0Ly8xNt-5" value="Mysql" style="shape=cylinder3;whiteSpace=wrap;html=1;boundedLbl=1;backgroundOutline=1;size=15;sketch=1;" parent="xSPtuRsuNs0XD0Ly8xNt-1" vertex="1">
          <mxGeometry x="215" y="620" width="100" height="60" as="geometry" />
        </mxCell>
        <mxCell id="xSPtuRsuNs0XD0Ly8xNt-29" style="rounded=0;orthogonalLoop=1;jettySize=auto;html=1;exitX=0;exitY=0.5;exitDx=0;exitDy=0;entryX=1;entryY=0.5;entryDx=0;entryDy=0;startArrow=classic;startFill=1;endArrow=classic;endFill=1;sketch=1;edgeStyle=orthogonalEdgeStyle;curved=1;" parent="xSPtuRsuNs0XD0Ly8xNt-1" source="xSPtuRsuNs0XD0Ly8xNt-6" target="xSPtuRsuNs0XD0Ly8xNt-4" edge="1">
          <mxGeometry relative="1" as="geometry" />
        </mxCell>
        <mxCell id="xSPtuRsuNs0XD0Ly8xNt-6" value="七彩石" style="rounded=0;whiteSpace=wrap;html=1;fillColor=#f8cecc;strokeColor=#b85450;sketch=1;" parent="xSPtuRsuNs0XD0Ly8xNt-1" vertex="1">
          <mxGeometry x="430" y="430" width="120" height="50" as="geometry" />
        </mxCell>
        <mxCell id="xSPtuRsuNs0XD0Ly8xNt-7" style="edgeStyle=none;rounded=0;orthogonalLoop=1;jettySize=auto;html=1;exitX=0.5;exitY=0;exitDx=0;exitDy=0;endArrow=none;endFill=0;sketch=1;" parent="xSPtuRsuNs0XD0Ly8xNt-1" source="xSPtuRsuNs0XD0Ly8xNt-6" target="xSPtuRsuNs0XD0Ly8xNt-6" edge="1">
          <mxGeometry relative="1" as="geometry" />
        </mxCell>
        <mxCell id="xSPtuRsuNs0XD0Ly8xNt-15" value="画像模块" style="rounded=0;whiteSpace=wrap;html=1;fillColor=#dae8fc;strokeColor=#6c8ebf;sketch=1;" parent="xSPtuRsuNs0XD0Ly8xNt-1" vertex="1">
          <mxGeometry x="172" y="493" width="76" height="40" as="geometry" />
        </mxCell>
        <mxCell id="xSPtuRsuNs0XD0Ly8xNt-16" value="算子模块" style="rounded=0;whiteSpace=wrap;html=1;fillColor=#d5e8d4;strokeColor=#82b366;sketch=1;" parent="xSPtuRsuNs0XD0Ly8xNt-1" vertex="1">
          <mxGeometry x="172" y="543" width="76" height="40" as="geometry" />
        </mxCell>
        <mxCell id="xSPtuRsuNs0XD0Ly8xNt-18" value="画像集模块" style="rounded=0;whiteSpace=wrap;html=1;fillColor=#d5e8d4;strokeColor=#82b366;sketch=1;" parent="xSPtuRsuNs0XD0Ly8xNt-1" vertex="1">
          <mxGeometry x="270" y="493" width="76" height="40" as="geometry" />
        </mxCell>
        <mxCell id="xSPtuRsuNs0XD0Ly8xNt-19" value="数据源模块" style="rounded=0;whiteSpace=wrap;html=1;fillColor=#dae8fc;strokeColor=#6c8ebf;sketch=1;" parent="xSPtuRsuNs0XD0Ly8xNt-1" vertex="1">
          <mxGeometry x="270" y="540" width="76" height="40" as="geometry" />
        </mxCell>
        <mxCell id="xSPtuRsuNs0XD0Ly8xNt-22" value="Profile_Platform" style="rounded=0;whiteSpace=wrap;html=1;fillColor=#dae8fc;strokeColor=#6c8ebf;sketch=1;" parent="xSPtuRsuNs0XD0Ly8xNt-1" vertex="1">
          <mxGeometry x="206" y="270" width="120" height="60" as="geometry" />
        </mxCell>
        <mxCell id="G6dWTBZvziLE-sSAfEjD-0" value="ES" style="shape=cylinder3;whiteSpace=wrap;html=1;boundedLbl=1;backgroundOutline=1;size=15;" vertex="1" parent="xSPtuRsuNs0XD0Ly8xNt-1">
          <mxGeometry x="35" y="470" width="69" height="53" as="geometry" />
        </mxCell>
        <mxCell id="G6dWTBZvziLE-sSAfEjD-8" style="edgeStyle=orthogonalEdgeStyle;curved=1;rounded=0;orthogonalLoop=1;jettySize=auto;html=1;entryX=1;entryY=0;entryDx=0;entryDy=32.25;entryPerimeter=0;" edge="1" parent="xSPtuRsuNs0XD0Ly8xNt-1" source="G6dWTBZvziLE-sSAfEjD-6" target="G6dWTBZvziLE-sSAfEjD-0">
          <mxGeometry relative="1" as="geometry" />
        </mxCell>
        <mxCell id="G6dWTBZvziLE-sSAfEjD-6" value="日志模块" style="rounded=0;whiteSpace=wrap;html=1;sketch=1;" vertex="1" parent="xSPtuRsuNs0XD0Ly8xNt-1">
          <mxGeometry x="171" y="472" width="175" height="14" as="geometry" />
        </mxCell>
      </root>
    </mxGraphModel>
  </diagram>
  <diagram id="_0EqTsa82i_3ae8wIYFG" name="第 4 页">
    <mxGraphModel dx="2498" dy="358" grid="0" gridSize="10" guides="1" tooltips="1" connect="1" arrows="1" fold="1" page="0" pageScale="1" pageWidth="827" pageHeight="1169" math="0" shadow="0">
      <root>
        <mxCell id="VE8DLdCKq3_z6wLLURCe-0" />
        <mxCell id="VE8DLdCKq3_z6wLLURCe-1" parent="VE8DLdCKq3_z6wLLURCe-0" />
        <mxCell id="VE8DLdCKq3_z6wLLURCe-32" value="" style="rounded=0;whiteSpace=wrap;html=1;sketch=1;strokeColor=#000000;strokeWidth=1;fillColor=none;" parent="VE8DLdCKq3_z6wLLURCe-1" vertex="1">
          <mxGeometry y="730" width="450" height="80" as="geometry" />
        </mxCell>
        <mxCell id="VE8DLdCKq3_z6wLLURCe-29" value="" style="rounded=0;whiteSpace=wrap;html=1;sketch=1;strokeColor=#000000;strokeWidth=1;fillColor=none;" parent="VE8DLdCKq3_z6wLLURCe-1" vertex="1">
          <mxGeometry x="250" y="610" width="250" height="85" as="geometry" />
        </mxCell>
        <mxCell id="VE8DLdCKq3_z6wLLURCe-28" value="" style="rounded=0;whiteSpace=wrap;html=1;sketch=1;strokeColor=#000000;strokeWidth=1;fillColor=none;" parent="VE8DLdCKq3_z6wLLURCe-1" vertex="1">
          <mxGeometry x="-90" y="610" width="300" height="90" as="geometry" />
        </mxCell>
        <mxCell id="VE8DLdCKq3_z6wLLURCe-21" value="" style="rounded=0;whiteSpace=wrap;html=1;sketch=1;strokeColor=#000000;strokeWidth=1;fillColor=none;" parent="VE8DLdCKq3_z6wLLURCe-1" vertex="1">
          <mxGeometry x="-90" y="490" width="150" height="80" as="geometry" />
        </mxCell>
        <mxCell id="VE8DLdCKq3_z6wLLURCe-24" value="" style="rounded=0;whiteSpace=wrap;html=1;sketch=1;strokeColor=#000000;strokeWidth=1;fillColor=none;" parent="VE8DLdCKq3_z6wLLURCe-1" vertex="1">
          <mxGeometry x="80" y="490" width="150" height="80" as="geometry" />
        </mxCell>
        <mxCell id="VE8DLdCKq3_z6wLLURCe-25" value="" style="rounded=0;whiteSpace=wrap;html=1;sketch=1;strokeColor=#000000;strokeWidth=1;fillColor=none;" parent="VE8DLdCKq3_z6wLLURCe-1" vertex="1">
          <mxGeometry x="240" y="490" width="150" height="80" as="geometry" />
        </mxCell>
        <mxCell id="VE8DLdCKq3_z6wLLURCe-34" value="" style="rounded=0;whiteSpace=wrap;html=1;sketch=1;strokeColor=#000000;strokeWidth=1;fillColor=none;" parent="VE8DLdCKq3_z6wLLURCe-1" vertex="1">
          <mxGeometry x="394" y="490" width="100" height="80" as="geometry" />
        </mxCell>
        <mxCell id="VE8DLdCKq3_z6wLLURCe-3" value="A" style="rounded=0;whiteSpace=wrap;html=1;sketch=1;strokeWidth=1;fillColor=none;" parent="VE8DLdCKq3_z6wLLURCe-1" vertex="1">
          <mxGeometry x="-80" y="500" width="60" height="60" as="geometry" />
        </mxCell>
        <mxCell id="VE8DLdCKq3_z6wLLURCe-4" value="B" style="rounded=0;whiteSpace=wrap;html=1;sketch=1;strokeWidth=1;fillColor=none;" parent="VE8DLdCKq3_z6wLLURCe-1" vertex="1">
          <mxGeometry x="-10" y="500" width="60" height="60" as="geometry" />
        </mxCell>
        <mxCell id="VE8DLdCKq3_z6wLLURCe-5" value="C" style="rounded=0;whiteSpace=wrap;html=1;sketch=1;strokeWidth=1;fillColor=none;" parent="VE8DLdCKq3_z6wLLURCe-1" vertex="1">
          <mxGeometry x="90" y="500" width="60" height="60" as="geometry" />
        </mxCell>
        <mxCell id="VE8DLdCKq3_z6wLLURCe-6" value="D" style="rounded=0;whiteSpace=wrap;html=1;sketch=1;strokeWidth=1;fillColor=none;" parent="VE8DLdCKq3_z6wLLURCe-1" vertex="1">
          <mxGeometry x="160" y="500" width="60" height="60" as="geometry" />
        </mxCell>
        <mxCell id="VE8DLdCKq3_z6wLLURCe-7" value="E" style="rounded=0;whiteSpace=wrap;html=1;sketch=1;strokeWidth=1;fillColor=none;" parent="VE8DLdCKq3_z6wLLURCe-1" vertex="1">
          <mxGeometry x="250" y="500" width="60" height="60" as="geometry" />
        </mxCell>
        <mxCell id="VE8DLdCKq3_z6wLLURCe-8" value="F" style="rounded=0;whiteSpace=wrap;html=1;sketch=1;strokeWidth=1;fillColor=none;" parent="VE8DLdCKq3_z6wLLURCe-1" vertex="1">
          <mxGeometry x="320" y="500" width="60" height="60" as="geometry" />
        </mxCell>
        <mxCell id="VE8DLdCKq3_z6wLLURCe-9" value="G" style="rounded=0;whiteSpace=wrap;html=1;sketch=1;strokeWidth=1;fillColor=none;" parent="VE8DLdCKq3_z6wLLURCe-1" vertex="1">
          <mxGeometry x="414" y="500" width="60" height="60" as="geometry" />
        </mxCell>
        <mxCell id="VE8DLdCKq3_z6wLLURCe-11" value="A_B" style="rounded=0;whiteSpace=wrap;html=1;sketch=1;strokeWidth=1;fillColor=none;" parent="VE8DLdCKq3_z6wLLURCe-1" vertex="1">
          <mxGeometry x="-55" y="620" width="80" height="60" as="geometry" />
        </mxCell>
        <mxCell id="VE8DLdCKq3_z6wLLURCe-12" value="C_D" style="rounded=0;whiteSpace=wrap;html=1;sketch=1;strokeWidth=1;fillColor=none;" parent="VE8DLdCKq3_z6wLLURCe-1" vertex="1">
          <mxGeometry x="120" y="620" width="70" height="60" as="geometry" />
        </mxCell>
        <mxCell id="VE8DLdCKq3_z6wLLURCe-13" value="E_F" style="rounded=0;whiteSpace=wrap;html=1;sketch=1;strokeWidth=1;fillColor=none;" parent="VE8DLdCKq3_z6wLLURCe-1" vertex="1">
          <mxGeometry x="275" y="620" width="80" height="60" as="geometry" />
        </mxCell>
        <mxCell id="VE8DLdCKq3_z6wLLURCe-14" value="G" style="rounded=0;whiteSpace=wrap;html=1;sketch=1;strokeWidth=1;fillColor=none;" parent="VE8DLdCKq3_z6wLLURCe-1" vertex="1">
          <mxGeometry x="414" y="620" width="60" height="60" as="geometry" />
        </mxCell>
        <mxCell id="VE8DLdCKq3_z6wLLURCe-17" value="A_B_C_D" style="rounded=0;whiteSpace=wrap;html=1;sketch=1;strokeWidth=1;fillColor=none;" parent="VE8DLdCKq3_z6wLLURCe-1" vertex="1">
          <mxGeometry x="20" y="740" width="100" height="60" as="geometry" />
        </mxCell>
        <mxCell id="VE8DLdCKq3_z6wLLURCe-19" value="E_F_G" style="rounded=0;whiteSpace=wrap;html=1;sketch=1;strokeWidth=1;fillColor=none;" parent="VE8DLdCKq3_z6wLLURCe-1" vertex="1">
          <mxGeometry x="335" y="740" width="80" height="60" as="geometry" />
        </mxCell>
        <mxCell id="VE8DLdCKq3_z6wLLURCe-20" value="FINAL" style="rounded=0;whiteSpace=wrap;html=1;sketch=1;strokeWidth=1;fillColor=none;" parent="VE8DLdCKq3_z6wLLURCe-1" vertex="1">
          <mxGeometry x="165" y="840" width="120" height="60" as="geometry" />
        </mxCell>
        <mxCell id="VE8DLdCKq3_z6wLLURCe-22" style="edgeStyle=none;rounded=0;sketch=1;orthogonalLoop=1;jettySize=auto;html=1;exitX=0.5;exitY=1;exitDx=0;exitDy=0;entryX=0.5;entryY=0;entryDx=0;entryDy=0;startArrow=none;startFill=0;endArrow=classic;endFill=1;" parent="VE8DLdCKq3_z6wLLURCe-1" source="VE8DLdCKq3_z6wLLURCe-21" target="VE8DLdCKq3_z6wLLURCe-11" edge="1">
          <mxGeometry relative="1" as="geometry" />
        </mxCell>
        <mxCell id="VE8DLdCKq3_z6wLLURCe-26" style="edgeStyle=none;rounded=0;sketch=1;orthogonalLoop=1;jettySize=auto;html=1;exitX=0.5;exitY=1;exitDx=0;exitDy=0;entryX=0.5;entryY=0;entryDx=0;entryDy=0;startArrow=none;startFill=0;endArrow=classic;endFill=1;" parent="VE8DLdCKq3_z6wLLURCe-1" source="VE8DLdCKq3_z6wLLURCe-24" target="VE8DLdCKq3_z6wLLURCe-12" edge="1">
          <mxGeometry relative="1" as="geometry" />
        </mxCell>
        <mxCell id="VE8DLdCKq3_z6wLLURCe-27" style="edgeStyle=none;rounded=0;sketch=1;orthogonalLoop=1;jettySize=auto;html=1;exitX=0.5;exitY=1;exitDx=0;exitDy=0;entryX=0.5;entryY=0;entryDx=0;entryDy=0;startArrow=none;startFill=0;endArrow=classic;endFill=1;" parent="VE8DLdCKq3_z6wLLURCe-1" source="VE8DLdCKq3_z6wLLURCe-25" target="VE8DLdCKq3_z6wLLURCe-13" edge="1">
          <mxGeometry relative="1" as="geometry" />
        </mxCell>
        <mxCell id="VE8DLdCKq3_z6wLLURCe-31" style="edgeStyle=none;rounded=0;sketch=1;orthogonalLoop=1;jettySize=auto;html=1;entryX=0.5;entryY=0;entryDx=0;entryDy=0;startArrow=none;startFill=0;endArrow=classic;endFill=1;exitX=0.531;exitY=0.997;exitDx=0;exitDy=0;exitPerimeter=0;" parent="VE8DLdCKq3_z6wLLURCe-1" source="VE8DLdCKq3_z6wLLURCe-28" target="VE8DLdCKq3_z6wLLURCe-17" edge="1">
          <mxGeometry relative="1" as="geometry" />
        </mxCell>
        <mxCell id="VE8DLdCKq3_z6wLLURCe-30" style="edgeStyle=none;rounded=0;sketch=1;orthogonalLoop=1;jettySize=auto;html=1;exitX=0.5;exitY=1;exitDx=0;exitDy=0;entryX=0.5;entryY=0;entryDx=0;entryDy=0;startArrow=none;startFill=0;endArrow=classic;endFill=1;" parent="VE8DLdCKq3_z6wLLURCe-1" source="VE8DLdCKq3_z6wLLURCe-29" target="VE8DLdCKq3_z6wLLURCe-19" edge="1">
          <mxGeometry relative="1" as="geometry" />
        </mxCell>
        <mxCell id="VE8DLdCKq3_z6wLLURCe-33" style="edgeStyle=none;rounded=0;sketch=1;orthogonalLoop=1;jettySize=auto;html=1;exitX=0.5;exitY=1;exitDx=0;exitDy=0;entryX=0.5;entryY=0;entryDx=0;entryDy=0;startArrow=none;startFill=0;endArrow=classic;endFill=1;" parent="VE8DLdCKq3_z6wLLURCe-1" source="VE8DLdCKq3_z6wLLURCe-32" target="VE8DLdCKq3_z6wLLURCe-20" edge="1">
          <mxGeometry relative="1" as="geometry" />
        </mxCell>
        <mxCell id="VE8DLdCKq3_z6wLLURCe-35" style="edgeStyle=none;rounded=0;sketch=1;orthogonalLoop=1;jettySize=auto;html=1;entryX=0.5;entryY=0;entryDx=0;entryDy=0;startArrow=none;startFill=0;endArrow=classic;endFill=1;" parent="VE8DLdCKq3_z6wLLURCe-1" source="VE8DLdCKq3_z6wLLURCe-34" target="VE8DLdCKq3_z6wLLURCe-14" edge="1">
          <mxGeometry relative="1" as="geometry" />
        </mxCell>
        <mxCell id="VE8DLdCKq3_z6wLLURCe-36" value="&lt;font style=&quot;font-size: 29px&quot;&gt;1&lt;/font&gt;" style="text;html=1;align=center;verticalAlign=middle;resizable=0;points=[];autosize=1;strokeColor=none;fillColor=none;" parent="VE8DLdCKq3_z6wLLURCe-1" vertex="1">
          <mxGeometry x="-140" y="520" width="30" height="20" as="geometry" />
        </mxCell>
        <mxCell id="VE8DLdCKq3_z6wLLURCe-37" value="&lt;span style=&quot;font-size: 29px&quot;&gt;2&lt;/span&gt;" style="text;html=1;align=center;verticalAlign=middle;resizable=0;points=[];autosize=1;strokeColor=none;fillColor=none;" parent="VE8DLdCKq3_z6wLLURCe-1" vertex="1">
          <mxGeometry x="-140" y="645" width="30" height="20" as="geometry" />
        </mxCell>
        <mxCell id="VE8DLdCKq3_z6wLLURCe-38" value="&lt;span style=&quot;font-size: 29px&quot;&gt;3&lt;/span&gt;" style="text;html=1;align=center;verticalAlign=middle;resizable=0;points=[];autosize=1;strokeColor=none;fillColor=none;" parent="VE8DLdCKq3_z6wLLURCe-1" vertex="1">
          <mxGeometry x="-140" y="770" width="30" height="20" as="geometry" />
        </mxCell>
        <mxCell id="VE8DLdCKq3_z6wLLURCe-52" style="edgeStyle=none;rounded=0;sketch=1;orthogonalLoop=1;jettySize=auto;html=1;exitX=0.5;exitY=1;exitDx=0;exitDy=0;entryX=0.5;entryY=0;entryDx=0;entryDy=0;startArrow=none;startFill=0;endArrow=classic;endFill=1;" parent="VE8DLdCKq3_z6wLLURCe-1" source="VE8DLdCKq3_z6wLLURCe-40" target="VE8DLdCKq3_z6wLLURCe-41" edge="1">
          <mxGeometry relative="1" as="geometry" />
        </mxCell>
        <mxCell id="VE8DLdCKq3_z6wLLURCe-40" value="" style="ellipse;whiteSpace=wrap;html=1;aspect=fixed;rounded=0;sketch=1;strokeColor=#d79b00;strokeWidth=1;fillColor=#ffe6cc;" parent="VE8DLdCKq3_z6wLLURCe-1" vertex="1">
          <mxGeometry x="-100" y="1065" width="58" height="58" as="geometry" />
        </mxCell>
        <mxCell id="VE8DLdCKq3_z6wLLURCe-53" style="edgeStyle=none;rounded=0;sketch=1;orthogonalLoop=1;jettySize=auto;html=1;exitX=0.5;exitY=1;exitDx=0;exitDy=0;startArrow=none;startFill=0;endArrow=classic;endFill=1;" parent="VE8DLdCKq3_z6wLLURCe-1" source="VE8DLdCKq3_z6wLLURCe-41" target="VE8DLdCKq3_z6wLLURCe-42" edge="1">
          <mxGeometry relative="1" as="geometry" />
        </mxCell>
        <mxCell id="VE8DLdCKq3_z6wLLURCe-41" value="" style="ellipse;whiteSpace=wrap;html=1;aspect=fixed;rounded=0;sketch=1;strokeColor=#6c8ebf;strokeWidth=1;fillColor=#dae8fc;" parent="VE8DLdCKq3_z6wLLURCe-1" vertex="1">
          <mxGeometry x="-100" y="1153" width="58" height="58" as="geometry" />
        </mxCell>
        <mxCell id="VE8DLdCKq3_z6wLLURCe-66" style="edgeStyle=none;rounded=0;sketch=1;orthogonalLoop=1;jettySize=auto;html=1;exitX=0.5;exitY=1;exitDx=0;exitDy=0;entryX=0.5;entryY=0;entryDx=0;entryDy=0;startArrow=none;startFill=0;endArrow=classic;endFill=1;" parent="VE8DLdCKq3_z6wLLURCe-1" source="VE8DLdCKq3_z6wLLURCe-42" target="VE8DLdCKq3_z6wLLURCe-43" edge="1">
          <mxGeometry relative="1" as="geometry" />
        </mxCell>
        <mxCell id="VE8DLdCKq3_z6wLLURCe-42" value="" style="ellipse;whiteSpace=wrap;html=1;aspect=fixed;rounded=0;sketch=1;strokeColor=#82b366;strokeWidth=1;fillColor=#d5e8d4;" parent="VE8DLdCKq3_z6wLLURCe-1" vertex="1">
          <mxGeometry x="-100" y="1232" width="58" height="58" as="geometry" />
        </mxCell>
        <mxCell id="VE8DLdCKq3_z6wLLURCe-43" value="A" style="ellipse;whiteSpace=wrap;html=1;aspect=fixed;rounded=0;sketch=1;strokeColor=#000000;strokeWidth=1;fillColor=none;" parent="VE8DLdCKq3_z6wLLURCe-1" vertex="1">
          <mxGeometry x="-44" y="1329" width="58" height="58" as="geometry" />
        </mxCell>
        <mxCell id="VE8DLdCKq3_z6wLLURCe-51" value="B" style="ellipse;whiteSpace=wrap;html=1;aspect=fixed;rounded=0;sketch=1;strokeColor=#000000;strokeWidth=1;fillColor=none;" parent="VE8DLdCKq3_z6wLLURCe-1" vertex="1">
          <mxGeometry x="150" y="1329" width="58" height="58" as="geometry" />
        </mxCell>
        <mxCell id="VE8DLdCKq3_z6wLLURCe-54" style="edgeStyle=none;rounded=0;sketch=1;orthogonalLoop=1;jettySize=auto;html=1;exitX=0.5;exitY=1;exitDx=0;exitDy=0;entryX=0.5;entryY=0;entryDx=0;entryDy=0;startArrow=none;startFill=0;endArrow=classic;endFill=1;" parent="VE8DLdCKq3_z6wLLURCe-1" source="VE8DLdCKq3_z6wLLURCe-55" target="VE8DLdCKq3_z6wLLURCe-57" edge="1">
          <mxGeometry relative="1" as="geometry" />
        </mxCell>
        <mxCell id="VE8DLdCKq3_z6wLLURCe-55" value="" style="ellipse;whiteSpace=wrap;html=1;aspect=fixed;rounded=0;sketch=1;strokeColor=#d6b656;strokeWidth=1;fillColor=#fff2cc;" parent="VE8DLdCKq3_z6wLLURCe-1" vertex="1">
          <mxGeometry x="12" y="1062.5" width="58" height="58" as="geometry" />
        </mxCell>
        <mxCell id="VE8DLdCKq3_z6wLLURCe-56" style="edgeStyle=none;rounded=0;sketch=1;orthogonalLoop=1;jettySize=auto;html=1;exitX=0.5;exitY=1;exitDx=0;exitDy=0;startArrow=none;startFill=0;endArrow=classic;endFill=1;" parent="VE8DLdCKq3_z6wLLURCe-1" source="VE8DLdCKq3_z6wLLURCe-57" target="VE8DLdCKq3_z6wLLURCe-58" edge="1">
          <mxGeometry relative="1" as="geometry" />
        </mxCell>
        <mxCell id="VE8DLdCKq3_z6wLLURCe-57" value="" style="ellipse;whiteSpace=wrap;html=1;aspect=fixed;rounded=0;sketch=1;strokeColor=#82b366;strokeWidth=1;fillColor=#d5e8d4;" parent="VE8DLdCKq3_z6wLLURCe-1" vertex="1">
          <mxGeometry x="12" y="1150.5" width="58" height="58" as="geometry" />
        </mxCell>
        <mxCell id="VE8DLdCKq3_z6wLLURCe-67" style="edgeStyle=none;rounded=0;sketch=1;orthogonalLoop=1;jettySize=auto;html=1;exitX=0.5;exitY=1;exitDx=0;exitDy=0;entryX=0.5;entryY=0;entryDx=0;entryDy=0;startArrow=none;startFill=0;endArrow=classic;endFill=1;" parent="VE8DLdCKq3_z6wLLURCe-1" source="VE8DLdCKq3_z6wLLURCe-58" target="VE8DLdCKq3_z6wLLURCe-43" edge="1">
          <mxGeometry relative="1" as="geometry" />
        </mxCell>
        <mxCell id="VE8DLdCKq3_z6wLLURCe-58" value="" style="ellipse;whiteSpace=wrap;html=1;aspect=fixed;rounded=0;sketch=1;strokeColor=#6c8ebf;strokeWidth=1;fillColor=#dae8fc;" parent="VE8DLdCKq3_z6wLLURCe-1" vertex="1">
          <mxGeometry x="12" y="1229.5" width="58" height="58" as="geometry" />
        </mxCell>
        <mxCell id="VE8DLdCKq3_z6wLLURCe-59" style="edgeStyle=none;rounded=0;sketch=1;orthogonalLoop=1;jettySize=auto;html=1;exitX=0.5;exitY=1;exitDx=0;exitDy=0;entryX=0.5;entryY=0;entryDx=0;entryDy=0;startArrow=none;startFill=0;endArrow=classic;endFill=1;" parent="VE8DLdCKq3_z6wLLURCe-1" source="VE8DLdCKq3_z6wLLURCe-60" target="VE8DLdCKq3_z6wLLURCe-62" edge="1">
          <mxGeometry relative="1" as="geometry" />
        </mxCell>
        <mxCell id="VE8DLdCKq3_z6wLLURCe-60" value="" style="ellipse;whiteSpace=wrap;html=1;aspect=fixed;rounded=0;sketch=1;strokeColor=#d6b656;strokeWidth=1;fillColor=#fff2cc;" parent="VE8DLdCKq3_z6wLLURCe-1" vertex="1">
          <mxGeometry x="150" y="1065" width="58" height="58" as="geometry" />
        </mxCell>
        <mxCell id="VE8DLdCKq3_z6wLLURCe-61" style="edgeStyle=none;rounded=0;sketch=1;orthogonalLoop=1;jettySize=auto;html=1;exitX=0.5;exitY=1;exitDx=0;exitDy=0;startArrow=none;startFill=0;endArrow=classic;endFill=1;" parent="VE8DLdCKq3_z6wLLURCe-1" source="VE8DLdCKq3_z6wLLURCe-62" target="VE8DLdCKq3_z6wLLURCe-63" edge="1">
          <mxGeometry relative="1" as="geometry" />
        </mxCell>
        <mxCell id="VE8DLdCKq3_z6wLLURCe-62" value="" style="ellipse;whiteSpace=wrap;html=1;aspect=fixed;rounded=0;sketch=1;strokeColor=#82b366;strokeWidth=1;fillColor=#d5e8d4;" parent="VE8DLdCKq3_z6wLLURCe-1" vertex="1">
          <mxGeometry x="150" y="1153" width="58" height="58" as="geometry" />
        </mxCell>
        <mxCell id="VE8DLdCKq3_z6wLLURCe-68" style="edgeStyle=none;rounded=0;sketch=1;orthogonalLoop=1;jettySize=auto;html=1;exitX=0.5;exitY=1;exitDx=0;exitDy=0;startArrow=none;startFill=0;endArrow=classic;endFill=1;" parent="VE8DLdCKq3_z6wLLURCe-1" source="VE8DLdCKq3_z6wLLURCe-63" target="VE8DLdCKq3_z6wLLURCe-51" edge="1">
          <mxGeometry relative="1" as="geometry" />
        </mxCell>
        <mxCell id="VE8DLdCKq3_z6wLLURCe-63" value="" style="ellipse;whiteSpace=wrap;html=1;aspect=fixed;rounded=0;sketch=1;strokeColor=#6c8ebf;strokeWidth=1;fillColor=#dae8fc;" parent="VE8DLdCKq3_z6wLLURCe-1" vertex="1">
          <mxGeometry x="150" y="1232" width="58" height="58" as="geometry" />
        </mxCell>
        <mxCell id="VE8DLdCKq3_z6wLLURCe-69" style="edgeStyle=none;rounded=0;sketch=1;orthogonalLoop=1;jettySize=auto;html=1;exitX=0.5;exitY=1;exitDx=0;exitDy=0;entryX=0.5;entryY=0;entryDx=0;entryDy=0;startArrow=none;startFill=0;endArrow=classic;endFill=1;" parent="VE8DLdCKq3_z6wLLURCe-1" source="VE8DLdCKq3_z6wLLURCe-70" target="VE8DLdCKq3_z6wLLURCe-72" edge="1">
          <mxGeometry relative="1" as="geometry" />
        </mxCell>
        <mxCell id="VE8DLdCKq3_z6wLLURCe-70" value="" style="ellipse;whiteSpace=wrap;html=1;aspect=fixed;rounded=0;sketch=1;strokeColor=#d79b00;strokeWidth=1;fillColor=#ffe6cc;" parent="VE8DLdCKq3_z6wLLURCe-1" vertex="1">
          <mxGeometry x="485" y="1065" width="58" height="58" as="geometry" />
        </mxCell>
        <mxCell id="VE8DLdCKq3_z6wLLURCe-71" style="edgeStyle=none;rounded=0;sketch=1;orthogonalLoop=1;jettySize=auto;html=1;exitX=0.5;exitY=1;exitDx=0;exitDy=0;startArrow=none;startFill=0;endArrow=classic;endFill=1;" parent="VE8DLdCKq3_z6wLLURCe-1" source="VE8DLdCKq3_z6wLLURCe-72" target="VE8DLdCKq3_z6wLLURCe-74" edge="1">
          <mxGeometry relative="1" as="geometry" />
        </mxCell>
        <mxCell id="VE8DLdCKq3_z6wLLURCe-72" value="" style="ellipse;whiteSpace=wrap;html=1;aspect=fixed;rounded=0;sketch=1;strokeColor=#6c8ebf;strokeWidth=1;fillColor=#dae8fc;" parent="VE8DLdCKq3_z6wLLURCe-1" vertex="1">
          <mxGeometry x="485" y="1153" width="58" height="58" as="geometry" />
        </mxCell>
        <mxCell id="VE8DLdCKq3_z6wLLURCe-73" style="edgeStyle=none;rounded=0;sketch=1;orthogonalLoop=1;jettySize=auto;html=1;exitX=0.5;exitY=1;exitDx=0;exitDy=0;entryX=0.5;entryY=0;entryDx=0;entryDy=0;startArrow=none;startFill=0;endArrow=classic;endFill=1;" parent="VE8DLdCKq3_z6wLLURCe-1" source="VE8DLdCKq3_z6wLLURCe-74" target="VE8DLdCKq3_z6wLLURCe-75" edge="1">
          <mxGeometry relative="1" as="geometry" />
        </mxCell>
        <mxCell id="VE8DLdCKq3_z6wLLURCe-74" value="" style="ellipse;whiteSpace=wrap;html=1;aspect=fixed;rounded=0;sketch=1;strokeColor=#82b366;strokeWidth=1;fillColor=#d5e8d4;" parent="VE8DLdCKq3_z6wLLURCe-1" vertex="1">
          <mxGeometry x="485" y="1232" width="58" height="58" as="geometry" />
        </mxCell>
        <mxCell id="VE8DLdCKq3_z6wLLURCe-75" value="A" style="ellipse;whiteSpace=wrap;html=1;aspect=fixed;rounded=0;sketch=1;strokeColor=#000000;strokeWidth=1;fillColor=none;" parent="VE8DLdCKq3_z6wLLURCe-1" vertex="1">
          <mxGeometry x="541" y="1329" width="58" height="58" as="geometry" />
        </mxCell>
        <mxCell id="VE8DLdCKq3_z6wLLURCe-76" value="B" style="ellipse;whiteSpace=wrap;html=1;aspect=fixed;rounded=0;sketch=1;strokeColor=#000000;strokeWidth=1;fillColor=none;" parent="VE8DLdCKq3_z6wLLURCe-1" vertex="1">
          <mxGeometry x="671" y="1329" width="58" height="58" as="geometry" />
        </mxCell>
        <mxCell id="VE8DLdCKq3_z6wLLURCe-77" style="edgeStyle=none;rounded=0;sketch=1;orthogonalLoop=1;jettySize=auto;html=1;exitX=0.5;exitY=1;exitDx=0;exitDy=0;entryX=0.5;entryY=0;entryDx=0;entryDy=0;startArrow=none;startFill=0;endArrow=classic;endFill=1;" parent="VE8DLdCKq3_z6wLLURCe-1" source="VE8DLdCKq3_z6wLLURCe-78" target="VE8DLdCKq3_z6wLLURCe-80" edge="1">
          <mxGeometry relative="1" as="geometry" />
        </mxCell>
        <mxCell id="VE8DLdCKq3_z6wLLURCe-78" value="" style="ellipse;whiteSpace=wrap;html=1;aspect=fixed;rounded=0;sketch=1;strokeColor=#d6b656;strokeWidth=1;fillColor=#fff2cc;" parent="VE8DLdCKq3_z6wLLURCe-1" vertex="1">
          <mxGeometry x="597" y="1062.5" width="58" height="58" as="geometry" />
        </mxCell>
        <mxCell id="VE8DLdCKq3_z6wLLURCe-79" style="edgeStyle=none;rounded=0;sketch=1;orthogonalLoop=1;jettySize=auto;html=1;exitX=0.5;exitY=1;exitDx=0;exitDy=0;startArrow=none;startFill=0;endArrow=classic;endFill=1;" parent="VE8DLdCKq3_z6wLLURCe-1" source="VE8DLdCKq3_z6wLLURCe-80" target="VE8DLdCKq3_z6wLLURCe-82" edge="1">
          <mxGeometry relative="1" as="geometry" />
        </mxCell>
        <mxCell id="VE8DLdCKq3_z6wLLURCe-80" value="" style="ellipse;whiteSpace=wrap;html=1;aspect=fixed;rounded=0;sketch=1;strokeColor=#82b366;strokeWidth=1;fillColor=#d5e8d4;" parent="VE8DLdCKq3_z6wLLURCe-1" vertex="1">
          <mxGeometry x="597" y="1150.5" width="58" height="58" as="geometry" />
        </mxCell>
        <mxCell id="VE8DLdCKq3_z6wLLURCe-81" style="edgeStyle=none;rounded=0;sketch=1;orthogonalLoop=1;jettySize=auto;html=1;exitX=0.5;exitY=1;exitDx=0;exitDy=0;entryX=0.5;entryY=0;entryDx=0;entryDy=0;startArrow=none;startFill=0;endArrow=classic;endFill=1;" parent="VE8DLdCKq3_z6wLLURCe-1" source="VE8DLdCKq3_z6wLLURCe-82" target="VE8DLdCKq3_z6wLLURCe-75" edge="1">
          <mxGeometry relative="1" as="geometry" />
        </mxCell>
        <mxCell id="VE8DLdCKq3_z6wLLURCe-82" value="" style="ellipse;whiteSpace=wrap;html=1;aspect=fixed;rounded=0;sketch=1;strokeColor=#6c8ebf;strokeWidth=1;fillColor=#dae8fc;" parent="VE8DLdCKq3_z6wLLURCe-1" vertex="1">
          <mxGeometry x="597" y="1229.5" width="58" height="58" as="geometry" />
        </mxCell>
        <mxCell id="VE8DLdCKq3_z6wLLURCe-87" style="edgeStyle=none;rounded=0;sketch=1;orthogonalLoop=1;jettySize=auto;html=1;startArrow=none;startFill=0;endArrow=classic;endFill=1;exitX=0.5;exitY=1;exitDx=0;exitDy=0;" parent="VE8DLdCKq3_z6wLLURCe-1" source="VE8DLdCKq3_z6wLLURCe-82" target="VE8DLdCKq3_z6wLLURCe-76" edge="1">
          <mxGeometry relative="1" as="geometry">
            <mxPoint x="622" y="1290" as="sourcePoint" />
          </mxGeometry>
        </mxCell>
        <mxCell id="VE8DLdCKq3_z6wLLURCe-93" style="edgeStyle=none;rounded=0;sketch=1;orthogonalLoop=1;jettySize=auto;html=1;entryX=0.5;entryY=0;entryDx=0;entryDy=0;startArrow=none;startFill=0;endArrow=classic;endFill=1;" parent="VE8DLdCKq3_z6wLLURCe-1" target="VE8DLdCKq3_z6wLLURCe-95" edge="1">
          <mxGeometry relative="1" as="geometry">
            <mxPoint x="939" y="1330" as="sourcePoint" />
          </mxGeometry>
        </mxCell>
        <mxCell id="VE8DLdCKq3_z6wLLURCe-95" value="A" style="ellipse;whiteSpace=wrap;html=1;aspect=fixed;rounded=0;sketch=1;strokeColor=#000000;strokeWidth=1;fillColor=none;" parent="VE8DLdCKq3_z6wLLURCe-1" vertex="1">
          <mxGeometry x="910" y="1376" width="58" height="58" as="geometry" />
        </mxCell>
        <mxCell id="VE8DLdCKq3_z6wLLURCe-96" style="edgeStyle=none;rounded=0;sketch=1;orthogonalLoop=1;jettySize=auto;html=1;exitX=0.5;exitY=1;exitDx=0;exitDy=0;entryX=0.5;entryY=0;entryDx=0;entryDy=0;startArrow=none;startFill=0;endArrow=classic;endFill=1;" parent="VE8DLdCKq3_z6wLLURCe-1" source="VE8DLdCKq3_z6wLLURCe-97" target="VE8DLdCKq3_z6wLLURCe-99" edge="1">
          <mxGeometry relative="1" as="geometry" />
        </mxCell>
        <mxCell id="VE8DLdCKq3_z6wLLURCe-97" value="" style="ellipse;whiteSpace=wrap;html=1;aspect=fixed;rounded=0;sketch=1;strokeColor=#d6b656;strokeWidth=1;fillColor=#fff2cc;" parent="VE8DLdCKq3_z6wLLURCe-1" vertex="1">
          <mxGeometry x="1058" y="1110" width="58" height="58" as="geometry" />
        </mxCell>
        <mxCell id="VE8DLdCKq3_z6wLLURCe-98" style="edgeStyle=none;rounded=0;sketch=1;orthogonalLoop=1;jettySize=auto;html=1;exitX=0.5;exitY=1;exitDx=0;exitDy=0;startArrow=none;startFill=0;endArrow=classic;endFill=1;" parent="VE8DLdCKq3_z6wLLURCe-1" source="VE8DLdCKq3_z6wLLURCe-99" target="VE8DLdCKq3_z6wLLURCe-101" edge="1">
          <mxGeometry relative="1" as="geometry" />
        </mxCell>
        <mxCell id="VE8DLdCKq3_z6wLLURCe-111" style="edgeStyle=none;rounded=0;sketch=1;orthogonalLoop=1;jettySize=auto;html=1;startArrow=none;startFill=0;endArrow=classic;endFill=1;" parent="VE8DLdCKq3_z6wLLURCe-1" source="VE8DLdCKq3_z6wLLURCe-99" target="VE8DLdCKq3_z6wLLURCe-108" edge="1">
          <mxGeometry relative="1" as="geometry" />
        </mxCell>
        <mxCell id="VE8DLdCKq3_z6wLLURCe-99" value="" style="ellipse;whiteSpace=wrap;html=1;aspect=fixed;rounded=0;sketch=1;strokeColor=#82b366;strokeWidth=1;fillColor=#d5e8d4;" parent="VE8DLdCKq3_z6wLLURCe-1" vertex="1">
          <mxGeometry x="1058" y="1198" width="58" height="58" as="geometry" />
        </mxCell>
        <mxCell id="VE8DLdCKq3_z6wLLURCe-110" style="edgeStyle=none;rounded=0;sketch=1;orthogonalLoop=1;jettySize=auto;html=1;exitX=0.5;exitY=1;exitDx=0;exitDy=0;entryX=0.5;entryY=0;entryDx=0;entryDy=0;startArrow=none;startFill=0;endArrow=classic;endFill=1;" parent="VE8DLdCKq3_z6wLLURCe-1" source="VE8DLdCKq3_z6wLLURCe-101" target="VE8DLdCKq3_z6wLLURCe-109" edge="1">
          <mxGeometry relative="1" as="geometry" />
        </mxCell>
        <mxCell id="VE8DLdCKq3_z6wLLURCe-101" value="" style="ellipse;whiteSpace=wrap;html=1;aspect=fixed;rounded=0;sketch=1;strokeColor=#6c8ebf;strokeWidth=1;fillColor=#dae8fc;" parent="VE8DLdCKq3_z6wLLURCe-1" vertex="1">
          <mxGeometry x="1060" y="1280" width="58" height="58" as="geometry" />
        </mxCell>
        <mxCell id="VE8DLdCKq3_z6wLLURCe-102" style="edgeStyle=none;rounded=0;sketch=1;orthogonalLoop=1;jettySize=auto;html=1;exitX=0.5;exitY=1;exitDx=0;exitDy=0;entryX=0.5;entryY=0;entryDx=0;entryDy=0;startArrow=none;startFill=0;endArrow=classic;endFill=1;" parent="VE8DLdCKq3_z6wLLURCe-1" source="VE8DLdCKq3_z6wLLURCe-103" target="VE8DLdCKq3_z6wLLURCe-105" edge="1">
          <mxGeometry relative="1" as="geometry" />
        </mxCell>
        <mxCell id="VE8DLdCKq3_z6wLLURCe-103" value="" style="ellipse;whiteSpace=wrap;html=1;aspect=fixed;rounded=0;sketch=1;strokeColor=#d6b656;strokeWidth=1;fillColor=#fff2cc;" parent="VE8DLdCKq3_z6wLLURCe-1" vertex="1">
          <mxGeometry x="910" y="1105" width="58" height="58" as="geometry" />
        </mxCell>
        <mxCell id="VE8DLdCKq3_z6wLLURCe-104" style="edgeStyle=none;rounded=0;sketch=1;orthogonalLoop=1;jettySize=auto;html=1;exitX=0.5;exitY=1;exitDx=0;exitDy=0;startArrow=none;startFill=0;endArrow=classic;endFill=1;" parent="VE8DLdCKq3_z6wLLURCe-1" source="VE8DLdCKq3_z6wLLURCe-105" target="VE8DLdCKq3_z6wLLURCe-106" edge="1">
          <mxGeometry relative="1" as="geometry" />
        </mxCell>
        <mxCell id="VE8DLdCKq3_z6wLLURCe-105" value="" style="ellipse;whiteSpace=wrap;html=1;aspect=fixed;rounded=0;sketch=1;strokeColor=#82b366;strokeWidth=1;fillColor=#d5e8d4;" parent="VE8DLdCKq3_z6wLLURCe-1" vertex="1">
          <mxGeometry x="910" y="1193" width="58" height="58" as="geometry" />
        </mxCell>
        <mxCell id="VE8DLdCKq3_z6wLLURCe-106" value="" style="ellipse;whiteSpace=wrap;html=1;aspect=fixed;rounded=0;sketch=1;strokeColor=#6c8ebf;strokeWidth=1;fillColor=#dae8fc;" parent="VE8DLdCKq3_z6wLLURCe-1" vertex="1">
          <mxGeometry x="910" y="1272" width="58" height="58" as="geometry" />
        </mxCell>
        <mxCell id="VE8DLdCKq3_z6wLLURCe-108" value="C" style="ellipse;whiteSpace=wrap;html=1;aspect=fixed;rounded=0;sketch=1;strokeColor=#000000;strokeWidth=1;fillColor=none;" parent="VE8DLdCKq3_z6wLLURCe-1" vertex="1">
          <mxGeometry x="1141" y="1276" width="58" height="58" as="geometry" />
        </mxCell>
        <mxCell id="VE8DLdCKq3_z6wLLURCe-109" value="B" style="ellipse;whiteSpace=wrap;html=1;aspect=fixed;rounded=0;sketch=1;strokeColor=#000000;strokeWidth=1;fillColor=none;" parent="VE8DLdCKq3_z6wLLURCe-1" vertex="1">
          <mxGeometry x="1058" y="1376" width="58" height="58" as="geometry" />
        </mxCell>
        <mxCell id="VE8DLdCKq3_z6wLLURCe-112" style="edgeStyle=none;rounded=0;sketch=1;orthogonalLoop=1;jettySize=auto;html=1;entryX=0.5;entryY=0;entryDx=0;entryDy=0;startArrow=none;startFill=0;endArrow=classic;endFill=1;" parent="VE8DLdCKq3_z6wLLURCe-1" target="VE8DLdCKq3_z6wLLURCe-113" edge="1">
          <mxGeometry relative="1" as="geometry">
            <mxPoint x="1586" y="1321.5" as="sourcePoint" />
          </mxGeometry>
        </mxCell>
        <mxCell id="VE8DLdCKq3_z6wLLURCe-113" value="A" style="ellipse;whiteSpace=wrap;html=1;aspect=fixed;rounded=0;sketch=1;strokeColor=#000000;strokeWidth=1;fillColor=none;" parent="VE8DLdCKq3_z6wLLURCe-1" vertex="1">
          <mxGeometry x="1557" y="1367.5" width="58" height="58" as="geometry" />
        </mxCell>
        <mxCell id="VE8DLdCKq3_z6wLLURCe-114" style="edgeStyle=none;rounded=0;sketch=1;orthogonalLoop=1;jettySize=auto;html=1;exitX=0.5;exitY=1;exitDx=0;exitDy=0;entryX=0.5;entryY=0;entryDx=0;entryDy=0;startArrow=none;startFill=0;endArrow=classic;endFill=1;" parent="VE8DLdCKq3_z6wLLURCe-1" edge="1">
          <mxGeometry relative="1" as="geometry">
            <mxPoint x="694" y="1564.5" as="targetPoint" />
          </mxGeometry>
        </mxCell>
        <mxCell id="VE8DLdCKq3_z6wLLURCe-116" style="edgeStyle=none;rounded=0;sketch=1;orthogonalLoop=1;jettySize=auto;html=1;exitX=0.5;exitY=1;exitDx=0;exitDy=0;startArrow=none;startFill=0;endArrow=classic;endFill=1;" parent="VE8DLdCKq3_z6wLLURCe-1" edge="1">
          <mxGeometry relative="1" as="geometry">
            <mxPoint x="694.9064387129933" y="1646.5206258943217" as="targetPoint" />
          </mxGeometry>
        </mxCell>
        <mxCell id="VE8DLdCKq3_z6wLLURCe-117" style="edgeStyle=none;rounded=0;sketch=1;orthogonalLoop=1;jettySize=auto;html=1;startArrow=none;startFill=0;endArrow=classic;endFill=1;exitX=1;exitY=1;exitDx=0;exitDy=0;" parent="VE8DLdCKq3_z6wLLURCe-1" source="VE8DLdCKq3_z6wLLURCe-124" target="VE8DLdCKq3_z6wLLURCe-126" edge="1">
          <mxGeometry relative="1" as="geometry">
            <mxPoint x="1772.0163796724864" y="1239.9827872295773" as="sourcePoint" />
          </mxGeometry>
        </mxCell>
        <mxCell id="VE8DLdCKq3_z6wLLURCe-119" style="edgeStyle=none;rounded=0;sketch=1;orthogonalLoop=1;jettySize=auto;html=1;exitX=0.5;exitY=1;exitDx=0;exitDy=0;entryX=0.5;entryY=0;entryDx=0;entryDy=0;startArrow=none;startFill=0;endArrow=classic;endFill=1;" parent="VE8DLdCKq3_z6wLLURCe-1" source="VE8DLdCKq3_z6wLLURCe-125" target="VE8DLdCKq3_z6wLLURCe-127" edge="1">
          <mxGeometry relative="1" as="geometry">
            <mxPoint x="1753" y="1331" as="sourcePoint" />
          </mxGeometry>
        </mxCell>
        <mxCell id="VE8DLdCKq3_z6wLLURCe-121" style="edgeStyle=none;rounded=0;sketch=1;orthogonalLoop=1;jettySize=auto;html=1;exitX=0.5;exitY=1;exitDx=0;exitDy=0;entryX=0.5;entryY=0;entryDx=0;entryDy=0;startArrow=none;startFill=0;endArrow=classic;endFill=1;" parent="VE8DLdCKq3_z6wLLURCe-1" source="VE8DLdCKq3_z6wLLURCe-122" target="VE8DLdCKq3_z6wLLURCe-124" edge="1">
          <mxGeometry relative="1" as="geometry" />
        </mxCell>
        <mxCell id="VE8DLdCKq3_z6wLLURCe-122" value="" style="ellipse;whiteSpace=wrap;html=1;aspect=fixed;rounded=0;sketch=1;strokeColor=#d6b656;strokeWidth=1;fillColor=#fff2cc;" parent="VE8DLdCKq3_z6wLLURCe-1" vertex="1">
          <mxGeometry x="1557" y="1096.5" width="58" height="58" as="geometry" />
        </mxCell>
        <mxCell id="VE8DLdCKq3_z6wLLURCe-123" style="edgeStyle=none;rounded=0;sketch=1;orthogonalLoop=1;jettySize=auto;html=1;exitX=0.5;exitY=1;exitDx=0;exitDy=0;startArrow=none;startFill=0;endArrow=classic;endFill=1;" parent="VE8DLdCKq3_z6wLLURCe-1" source="VE8DLdCKq3_z6wLLURCe-124" target="VE8DLdCKq3_z6wLLURCe-125" edge="1">
          <mxGeometry relative="1" as="geometry" />
        </mxCell>
        <mxCell id="VE8DLdCKq3_z6wLLURCe-124" value="" style="ellipse;whiteSpace=wrap;html=1;aspect=fixed;rounded=0;sketch=1;strokeColor=#82b366;strokeWidth=1;fillColor=#d5e8d4;" parent="VE8DLdCKq3_z6wLLURCe-1" vertex="1">
          <mxGeometry x="1557" y="1184.5" width="58" height="58" as="geometry" />
        </mxCell>
        <mxCell id="VE8DLdCKq3_z6wLLURCe-125" value="" style="ellipse;whiteSpace=wrap;html=1;aspect=fixed;rounded=0;sketch=1;strokeColor=#6c8ebf;strokeWidth=1;fillColor=#dae8fc;" parent="VE8DLdCKq3_z6wLLURCe-1" vertex="1">
          <mxGeometry x="1557" y="1263.5" width="58" height="58" as="geometry" />
        </mxCell>
        <mxCell id="VE8DLdCKq3_z6wLLURCe-126" value="C" style="ellipse;whiteSpace=wrap;html=1;aspect=fixed;rounded=0;sketch=1;strokeColor=#000000;strokeWidth=1;fillColor=none;" parent="VE8DLdCKq3_z6wLLURCe-1" vertex="1">
          <mxGeometry x="1683" y="1251.5" width="58" height="58" as="geometry" />
        </mxCell>
        <mxCell id="VE8DLdCKq3_z6wLLURCe-127" value="B" style="ellipse;whiteSpace=wrap;html=1;aspect=fixed;rounded=0;sketch=1;strokeColor=#000000;strokeWidth=1;fillColor=none;" parent="VE8DLdCKq3_z6wLLURCe-1" vertex="1">
          <mxGeometry x="1647" y="1367.5" width="58" height="58" as="geometry" />
        </mxCell>
        <mxCell id="VE8DLdCKq3_z6wLLURCe-128" value="" style="shape=singleArrow;whiteSpace=wrap;html=1;rounded=0;sketch=1;strokeColor=#000000;strokeWidth=1;fillColor=none;" parent="VE8DLdCKq3_z6wLLURCe-1" vertex="1">
          <mxGeometry x="308" y="1206" width="100" height="60" as="geometry" />
        </mxCell>
        <mxCell id="VE8DLdCKq3_z6wLLURCe-129" value="" style="rounded=0;whiteSpace=wrap;html=1;sketch=1;strokeColor=#000000;strokeWidth=1;fillColor=none;" parent="VE8DLdCKq3_z6wLLURCe-1" vertex="1">
          <mxGeometry x="-130" y="1040" width="400" height="373" as="geometry" />
        </mxCell>
        <mxCell id="VE8DLdCKq3_z6wLLURCe-130" value="" style="rounded=0;whiteSpace=wrap;html=1;sketch=1;strokeColor=#000000;strokeWidth=1;fillColor=none;" parent="VE8DLdCKq3_z6wLLURCe-1" vertex="1">
          <mxGeometry x="429" y="1040" width="370" height="379" as="geometry" />
        </mxCell>
        <mxCell id="VE8DLdCKq3_z6wLLURCe-131" value="" style="shape=singleArrow;whiteSpace=wrap;html=1;rounded=0;sketch=1;strokeColor=#000000;strokeWidth=1;fillColor=none;" parent="VE8DLdCKq3_z6wLLURCe-1" vertex="1">
          <mxGeometry x="1299" y="1235" width="100" height="60" as="geometry" />
        </mxCell>
        <mxCell id="VE8DLdCKq3_z6wLLURCe-132" value="" style="rounded=0;whiteSpace=wrap;html=1;sketch=1;strokeColor=#000000;strokeWidth=1;fillColor=none;" parent="VE8DLdCKq3_z6wLLURCe-1" vertex="1">
          <mxGeometry x="857" y="1083" width="368" height="371" as="geometry" />
        </mxCell>
        <mxCell id="VE8DLdCKq3_z6wLLURCe-134" value="" style="rounded=0;whiteSpace=wrap;html=1;sketch=1;strokeColor=#000000;strokeWidth=1;fillColor=none;" parent="VE8DLdCKq3_z6wLLURCe-1" vertex="1">
          <mxGeometry x="1454" y="1079.5" width="368" height="371" as="geometry" />
        </mxCell>
        <mxCell id="VE8DLdCKq3_z6wLLURCe-135" style="edgeStyle=none;rounded=0;sketch=1;orthogonalLoop=1;jettySize=auto;html=1;entryX=0.5;entryY=0;entryDx=0;entryDy=0;startArrow=none;startFill=0;endArrow=classic;endFill=1;" parent="VE8DLdCKq3_z6wLLURCe-1" target="VE8DLdCKq3_z6wLLURCe-136" edge="1">
          <mxGeometry relative="1" as="geometry">
            <mxPoint x="424" y="1876.5" as="sourcePoint" />
          </mxGeometry>
        </mxCell>
        <mxCell id="VE8DLdCKq3_z6wLLURCe-136" value="A" style="ellipse;whiteSpace=wrap;html=1;aspect=fixed;rounded=0;sketch=1;strokeColor=#000000;strokeWidth=1;fillColor=none;" parent="VE8DLdCKq3_z6wLLURCe-1" vertex="1">
          <mxGeometry x="395" y="1922.5" width="58" height="58" as="geometry" />
        </mxCell>
        <mxCell id="VE8DLdCKq3_z6wLLURCe-137" style="edgeStyle=none;rounded=0;sketch=1;orthogonalLoop=1;jettySize=auto;html=1;exitX=0.5;exitY=1;exitDx=0;exitDy=0;entryX=0.5;entryY=0;entryDx=0;entryDy=0;startArrow=none;startFill=0;endArrow=classic;endFill=1;" parent="VE8DLdCKq3_z6wLLURCe-1" source="VE8DLdCKq3_z6wLLURCe-138" target="VE8DLdCKq3_z6wLLURCe-141" edge="1">
          <mxGeometry relative="1" as="geometry" />
        </mxCell>
        <mxCell id="VE8DLdCKq3_z6wLLURCe-138" value="" style="ellipse;whiteSpace=wrap;html=1;aspect=fixed;rounded=0;sketch=1;strokeColor=#d6b656;strokeWidth=1;fillColor=#fff2cc;" parent="VE8DLdCKq3_z6wLLURCe-1" vertex="1">
          <mxGeometry x="543" y="1656.5" width="58" height="58" as="geometry" />
        </mxCell>
        <mxCell id="VE8DLdCKq3_z6wLLURCe-139" style="edgeStyle=none;rounded=0;sketch=1;orthogonalLoop=1;jettySize=auto;html=1;exitX=0.5;exitY=1;exitDx=0;exitDy=0;startArrow=none;startFill=0;endArrow=classic;endFill=1;" parent="VE8DLdCKq3_z6wLLURCe-1" source="VE8DLdCKq3_z6wLLURCe-141" target="VE8DLdCKq3_z6wLLURCe-143" edge="1">
          <mxGeometry relative="1" as="geometry" />
        </mxCell>
        <mxCell id="VE8DLdCKq3_z6wLLURCe-140" style="edgeStyle=none;rounded=0;sketch=1;orthogonalLoop=1;jettySize=auto;html=1;startArrow=none;startFill=0;endArrow=classic;endFill=1;" parent="VE8DLdCKq3_z6wLLURCe-1" source="VE8DLdCKq3_z6wLLURCe-141" target="VE8DLdCKq3_z6wLLURCe-149" edge="1">
          <mxGeometry relative="1" as="geometry" />
        </mxCell>
        <mxCell id="VE8DLdCKq3_z6wLLURCe-141" value="" style="ellipse;whiteSpace=wrap;html=1;aspect=fixed;rounded=0;sketch=1;strokeColor=#82b366;strokeWidth=1;fillColor=#d5e8d4;" parent="VE8DLdCKq3_z6wLLURCe-1" vertex="1">
          <mxGeometry x="543" y="1744.5" width="58" height="58" as="geometry" />
        </mxCell>
        <mxCell id="VE8DLdCKq3_z6wLLURCe-142" style="edgeStyle=none;rounded=0;sketch=1;orthogonalLoop=1;jettySize=auto;html=1;exitX=0.5;exitY=1;exitDx=0;exitDy=0;entryX=0.5;entryY=0;entryDx=0;entryDy=0;startArrow=none;startFill=0;endArrow=classic;endFill=1;" parent="VE8DLdCKq3_z6wLLURCe-1" source="VE8DLdCKq3_z6wLLURCe-143" target="VE8DLdCKq3_z6wLLURCe-150" edge="1">
          <mxGeometry relative="1" as="geometry" />
        </mxCell>
        <mxCell id="VE8DLdCKq3_z6wLLURCe-143" value="" style="ellipse;whiteSpace=wrap;html=1;aspect=fixed;rounded=0;sketch=1;strokeColor=#6c8ebf;strokeWidth=1;fillColor=#dae8fc;" parent="VE8DLdCKq3_z6wLLURCe-1" vertex="1">
          <mxGeometry x="545" y="1826.5" width="58" height="58" as="geometry" />
        </mxCell>
        <mxCell id="VE8DLdCKq3_z6wLLURCe-144" style="edgeStyle=none;rounded=0;sketch=1;orthogonalLoop=1;jettySize=auto;html=1;exitX=0.5;exitY=1;exitDx=0;exitDy=0;entryX=0.5;entryY=0;entryDx=0;entryDy=0;startArrow=none;startFill=0;endArrow=classic;endFill=1;" parent="VE8DLdCKq3_z6wLLURCe-1" source="VE8DLdCKq3_z6wLLURCe-145" target="VE8DLdCKq3_z6wLLURCe-147" edge="1">
          <mxGeometry relative="1" as="geometry" />
        </mxCell>
        <mxCell id="VE8DLdCKq3_z6wLLURCe-145" value="" style="ellipse;whiteSpace=wrap;html=1;aspect=fixed;rounded=0;sketch=1;strokeColor=#d6b656;strokeWidth=1;fillColor=#fff2cc;" parent="VE8DLdCKq3_z6wLLURCe-1" vertex="1">
          <mxGeometry x="395" y="1651.5" width="58" height="58" as="geometry" />
        </mxCell>
        <mxCell id="VE8DLdCKq3_z6wLLURCe-146" style="edgeStyle=none;rounded=0;sketch=1;orthogonalLoop=1;jettySize=auto;html=1;exitX=0.5;exitY=1;exitDx=0;exitDy=0;startArrow=none;startFill=0;endArrow=classic;endFill=1;" parent="VE8DLdCKq3_z6wLLURCe-1" source="VE8DLdCKq3_z6wLLURCe-147" target="VE8DLdCKq3_z6wLLURCe-148" edge="1">
          <mxGeometry relative="1" as="geometry" />
        </mxCell>
        <mxCell id="VE8DLdCKq3_z6wLLURCe-147" value="" style="ellipse;whiteSpace=wrap;html=1;aspect=fixed;rounded=0;sketch=1;strokeColor=#82b366;strokeWidth=1;fillColor=#d5e8d4;" parent="VE8DLdCKq3_z6wLLURCe-1" vertex="1">
          <mxGeometry x="395" y="1739.5" width="58" height="58" as="geometry" />
        </mxCell>
        <mxCell id="VE8DLdCKq3_z6wLLURCe-148" value="" style="ellipse;whiteSpace=wrap;html=1;aspect=fixed;rounded=0;sketch=1;strokeColor=#6c8ebf;strokeWidth=1;fillColor=#dae8fc;" parent="VE8DLdCKq3_z6wLLURCe-1" vertex="1">
          <mxGeometry x="395" y="1818.5" width="58" height="58" as="geometry" />
        </mxCell>
        <mxCell id="VE8DLdCKq3_z6wLLURCe-149" value="C" style="ellipse;whiteSpace=wrap;html=1;aspect=fixed;rounded=0;sketch=1;strokeColor=#000000;strokeWidth=1;fillColor=none;" parent="VE8DLdCKq3_z6wLLURCe-1" vertex="1">
          <mxGeometry x="626" y="1822.5" width="58" height="58" as="geometry" />
        </mxCell>
        <mxCell id="VE8DLdCKq3_z6wLLURCe-150" value="B" style="ellipse;whiteSpace=wrap;html=1;aspect=fixed;rounded=0;sketch=1;strokeColor=#000000;strokeWidth=1;fillColor=none;" parent="VE8DLdCKq3_z6wLLURCe-1" vertex="1">
          <mxGeometry x="543" y="1922.5" width="58" height="58" as="geometry" />
        </mxCell>
        <mxCell id="VE8DLdCKq3_z6wLLURCe-151" style="edgeStyle=none;rounded=0;sketch=1;orthogonalLoop=1;jettySize=auto;html=1;entryX=0.5;entryY=0;entryDx=0;entryDy=0;startArrow=none;startFill=0;endArrow=classic;endFill=1;" parent="VE8DLdCKq3_z6wLLURCe-1" target="VE8DLdCKq3_z6wLLURCe-152" edge="1">
          <mxGeometry relative="1" as="geometry">
            <mxPoint x="1071" y="1868" as="sourcePoint" />
          </mxGeometry>
        </mxCell>
        <mxCell id="VE8DLdCKq3_z6wLLURCe-152" value="A" style="ellipse;whiteSpace=wrap;html=1;aspect=fixed;rounded=0;sketch=1;strokeColor=#000000;strokeWidth=1;fillColor=none;" parent="VE8DLdCKq3_z6wLLURCe-1" vertex="1">
          <mxGeometry x="1042" y="1914" width="58" height="58" as="geometry" />
        </mxCell>
        <mxCell id="VE8DLdCKq3_z6wLLURCe-153" style="edgeStyle=none;rounded=0;sketch=1;orthogonalLoop=1;jettySize=auto;html=1;startArrow=none;startFill=0;endArrow=classic;endFill=1;exitX=1;exitY=1;exitDx=0;exitDy=0;" parent="VE8DLdCKq3_z6wLLURCe-1" source="VE8DLdCKq3_z6wLLURCe-158" target="VE8DLdCKq3_z6wLLURCe-160" edge="1">
          <mxGeometry relative="1" as="geometry">
            <mxPoint x="1257.0163796724864" y="1786.4827872295773" as="sourcePoint" />
          </mxGeometry>
        </mxCell>
        <mxCell id="VE8DLdCKq3_z6wLLURCe-154" style="edgeStyle=none;rounded=0;sketch=1;orthogonalLoop=1;jettySize=auto;html=1;exitX=0.5;exitY=1;exitDx=0;exitDy=0;entryX=0.5;entryY=0;entryDx=0;entryDy=0;startArrow=none;startFill=0;endArrow=classic;endFill=1;" parent="VE8DLdCKq3_z6wLLURCe-1" source="VE8DLdCKq3_z6wLLURCe-159" target="VE8DLdCKq3_z6wLLURCe-161" edge="1">
          <mxGeometry relative="1" as="geometry">
            <mxPoint x="1238" y="1877.5" as="sourcePoint" />
          </mxGeometry>
        </mxCell>
        <mxCell id="VE8DLdCKq3_z6wLLURCe-155" style="edgeStyle=none;rounded=0;sketch=1;orthogonalLoop=1;jettySize=auto;html=1;exitX=0.5;exitY=1;exitDx=0;exitDy=0;entryX=0.5;entryY=0;entryDx=0;entryDy=0;startArrow=none;startFill=0;endArrow=classic;endFill=1;" parent="VE8DLdCKq3_z6wLLURCe-1" source="VE8DLdCKq3_z6wLLURCe-156" target="VE8DLdCKq3_z6wLLURCe-158" edge="1">
          <mxGeometry relative="1" as="geometry" />
        </mxCell>
        <mxCell id="VE8DLdCKq3_z6wLLURCe-156" value="" style="ellipse;whiteSpace=wrap;html=1;aspect=fixed;rounded=0;sketch=1;strokeColor=#d6b656;strokeWidth=1;fillColor=#fff2cc;" parent="VE8DLdCKq3_z6wLLURCe-1" vertex="1">
          <mxGeometry x="1042" y="1643" width="58" height="58" as="geometry" />
        </mxCell>
        <mxCell id="VE8DLdCKq3_z6wLLURCe-157" style="edgeStyle=none;rounded=0;sketch=1;orthogonalLoop=1;jettySize=auto;html=1;exitX=0.5;exitY=1;exitDx=0;exitDy=0;startArrow=none;startFill=0;endArrow=classic;endFill=1;" parent="VE8DLdCKq3_z6wLLURCe-1" source="VE8DLdCKq3_z6wLLURCe-158" target="VE8DLdCKq3_z6wLLURCe-159" edge="1">
          <mxGeometry relative="1" as="geometry" />
        </mxCell>
        <mxCell id="VE8DLdCKq3_z6wLLURCe-158" value="" style="ellipse;whiteSpace=wrap;html=1;aspect=fixed;rounded=0;sketch=1;strokeColor=#82b366;strokeWidth=1;fillColor=#d5e8d4;" parent="VE8DLdCKq3_z6wLLURCe-1" vertex="1">
          <mxGeometry x="1042" y="1731" width="58" height="58" as="geometry" />
        </mxCell>
        <mxCell id="VE8DLdCKq3_z6wLLURCe-159" value="" style="ellipse;whiteSpace=wrap;html=1;aspect=fixed;rounded=0;sketch=1;strokeColor=#6c8ebf;strokeWidth=1;fillColor=#dae8fc;" parent="VE8DLdCKq3_z6wLLURCe-1" vertex="1">
          <mxGeometry x="1042" y="1810" width="58" height="58" as="geometry" />
        </mxCell>
        <mxCell id="VE8DLdCKq3_z6wLLURCe-160" value="C" style="ellipse;whiteSpace=wrap;html=1;aspect=fixed;rounded=0;sketch=1;strokeColor=#000000;strokeWidth=1;fillColor=none;" parent="VE8DLdCKq3_z6wLLURCe-1" vertex="1">
          <mxGeometry x="1168" y="1798" width="58" height="58" as="geometry" />
        </mxCell>
        <mxCell id="VE8DLdCKq3_z6wLLURCe-161" value="B" style="ellipse;whiteSpace=wrap;html=1;aspect=fixed;rounded=0;sketch=1;strokeColor=#000000;strokeWidth=1;fillColor=none;" parent="VE8DLdCKq3_z6wLLURCe-1" vertex="1">
          <mxGeometry x="1132" y="1914" width="58" height="58" as="geometry" />
        </mxCell>
        <mxCell id="VE8DLdCKq3_z6wLLURCe-162" value="" style="shape=singleArrow;whiteSpace=wrap;html=1;rounded=0;sketch=1;strokeColor=#000000;strokeWidth=1;fillColor=none;" parent="VE8DLdCKq3_z6wLLURCe-1" vertex="1">
          <mxGeometry x="784" y="1781.5" width="100" height="60" as="geometry" />
        </mxCell>
        <mxCell id="VE8DLdCKq3_z6wLLURCe-165" style="edgeStyle=none;rounded=0;sketch=1;orthogonalLoop=1;jettySize=auto;html=1;exitX=0.5;exitY=1;exitDx=0;exitDy=0;entryX=0.5;entryY=0;entryDx=0;entryDy=0;startArrow=none;startFill=0;endArrow=classic;endFill=1;" parent="VE8DLdCKq3_z6wLLURCe-1" source="VE8DLdCKq3_z6wLLURCe-166" target="VE8DLdCKq3_z6wLLURCe-168" edge="1">
          <mxGeometry relative="1" as="geometry" />
        </mxCell>
        <mxCell id="VE8DLdCKq3_z6wLLURCe-166" value="" style="ellipse;whiteSpace=wrap;html=1;aspect=fixed;rounded=0;sketch=1;strokeColor=#d79b00;strokeWidth=1;fillColor=#ffe6cc;" parent="VE8DLdCKq3_z6wLLURCe-1" vertex="1">
          <mxGeometry x="-1051" y="1557" width="58" height="58" as="geometry" />
        </mxCell>
        <mxCell id="VE8DLdCKq3_z6wLLURCe-167" style="edgeStyle=none;rounded=0;sketch=1;orthogonalLoop=1;jettySize=auto;html=1;exitX=0.5;exitY=1;exitDx=0;exitDy=0;startArrow=none;startFill=0;endArrow=classic;endFill=1;" parent="VE8DLdCKq3_z6wLLURCe-1" source="VE8DLdCKq3_z6wLLURCe-168" target="VE8DLdCKq3_z6wLLURCe-170" edge="1">
          <mxGeometry relative="1" as="geometry" />
        </mxCell>
        <mxCell id="VE8DLdCKq3_z6wLLURCe-168" value="" style="ellipse;whiteSpace=wrap;html=1;aspect=fixed;rounded=0;sketch=1;strokeColor=#6c8ebf;strokeWidth=1;fillColor=#dae8fc;" parent="VE8DLdCKq3_z6wLLURCe-1" vertex="1">
          <mxGeometry x="-1051" y="1645" width="58" height="58" as="geometry" />
        </mxCell>
        <mxCell id="VE8DLdCKq3_z6wLLURCe-169" style="edgeStyle=none;rounded=0;sketch=1;orthogonalLoop=1;jettySize=auto;html=1;exitX=0.5;exitY=1;exitDx=0;exitDy=0;entryX=0.5;entryY=0;entryDx=0;entryDy=0;startArrow=none;startFill=0;endArrow=classic;endFill=1;" parent="VE8DLdCKq3_z6wLLURCe-1" source="VE8DLdCKq3_z6wLLURCe-170" target="VE8DLdCKq3_z6wLLURCe-171" edge="1">
          <mxGeometry relative="1" as="geometry" />
        </mxCell>
        <mxCell id="VE8DLdCKq3_z6wLLURCe-170" value="" style="ellipse;whiteSpace=wrap;html=1;aspect=fixed;rounded=0;sketch=1;strokeColor=#82b366;strokeWidth=1;fillColor=#d5e8d4;" parent="VE8DLdCKq3_z6wLLURCe-1" vertex="1">
          <mxGeometry x="-1051" y="1724" width="58" height="58" as="geometry" />
        </mxCell>
        <mxCell id="VE8DLdCKq3_z6wLLURCe-171" value="A" style="ellipse;whiteSpace=wrap;html=1;aspect=fixed;rounded=0;sketch=1;strokeColor=#000000;strokeWidth=1;fillColor=none;" parent="VE8DLdCKq3_z6wLLURCe-1" vertex="1">
          <mxGeometry x="-995" y="1821" width="58" height="58" as="geometry" />
        </mxCell>
        <mxCell id="VE8DLdCKq3_z6wLLURCe-172" value="B" style="ellipse;whiteSpace=wrap;html=1;aspect=fixed;rounded=0;sketch=1;strokeColor=#000000;strokeWidth=1;fillColor=none;" parent="VE8DLdCKq3_z6wLLURCe-1" vertex="1">
          <mxGeometry x="-801" y="1821" width="58" height="58" as="geometry" />
        </mxCell>
        <mxCell id="VE8DLdCKq3_z6wLLURCe-173" style="edgeStyle=none;rounded=0;sketch=1;orthogonalLoop=1;jettySize=auto;html=1;exitX=0.5;exitY=1;exitDx=0;exitDy=0;entryX=0.5;entryY=0;entryDx=0;entryDy=0;startArrow=none;startFill=0;endArrow=classic;endFill=1;" parent="VE8DLdCKq3_z6wLLURCe-1" source="VE8DLdCKq3_z6wLLURCe-174" target="VE8DLdCKq3_z6wLLURCe-176" edge="1">
          <mxGeometry relative="1" as="geometry" />
        </mxCell>
        <mxCell id="VE8DLdCKq3_z6wLLURCe-174" value="" style="ellipse;whiteSpace=wrap;html=1;aspect=fixed;rounded=0;sketch=1;strokeColor=#d6b656;strokeWidth=1;fillColor=#fff2cc;" parent="VE8DLdCKq3_z6wLLURCe-1" vertex="1">
          <mxGeometry x="-939" y="1554.5" width="58" height="58" as="geometry" />
        </mxCell>
        <mxCell id="VE8DLdCKq3_z6wLLURCe-175" style="edgeStyle=none;rounded=0;sketch=1;orthogonalLoop=1;jettySize=auto;html=1;exitX=0.5;exitY=1;exitDx=0;exitDy=0;startArrow=none;startFill=0;endArrow=classic;endFill=1;" parent="VE8DLdCKq3_z6wLLURCe-1" source="VE8DLdCKq3_z6wLLURCe-176" target="VE8DLdCKq3_z6wLLURCe-178" edge="1">
          <mxGeometry relative="1" as="geometry" />
        </mxCell>
        <mxCell id="VE8DLdCKq3_z6wLLURCe-176" value="" style="ellipse;whiteSpace=wrap;html=1;aspect=fixed;rounded=0;sketch=1;strokeColor=#82b366;strokeWidth=1;fillColor=#d5e8d4;" parent="VE8DLdCKq3_z6wLLURCe-1" vertex="1">
          <mxGeometry x="-939" y="1642.5" width="58" height="58" as="geometry" />
        </mxCell>
        <mxCell id="VE8DLdCKq3_z6wLLURCe-177" style="edgeStyle=none;rounded=0;sketch=1;orthogonalLoop=1;jettySize=auto;html=1;exitX=0.5;exitY=1;exitDx=0;exitDy=0;entryX=0.5;entryY=0;entryDx=0;entryDy=0;startArrow=none;startFill=0;endArrow=classic;endFill=1;" parent="VE8DLdCKq3_z6wLLURCe-1" source="VE8DLdCKq3_z6wLLURCe-178" target="VE8DLdCKq3_z6wLLURCe-171" edge="1">
          <mxGeometry relative="1" as="geometry" />
        </mxCell>
        <mxCell id="VE8DLdCKq3_z6wLLURCe-178" value="" style="ellipse;whiteSpace=wrap;html=1;aspect=fixed;rounded=0;sketch=1;strokeColor=#6c8ebf;strokeWidth=1;fillColor=#dae8fc;" parent="VE8DLdCKq3_z6wLLURCe-1" vertex="1">
          <mxGeometry x="-939" y="1721.5" width="58" height="58" as="geometry" />
        </mxCell>
        <mxCell id="VE8DLdCKq3_z6wLLURCe-179" style="edgeStyle=none;rounded=0;sketch=1;orthogonalLoop=1;jettySize=auto;html=1;exitX=0.5;exitY=1;exitDx=0;exitDy=0;entryX=0.5;entryY=0;entryDx=0;entryDy=0;startArrow=none;startFill=0;endArrow=classic;endFill=1;" parent="VE8DLdCKq3_z6wLLURCe-1" source="VE8DLdCKq3_z6wLLURCe-180" target="VE8DLdCKq3_z6wLLURCe-182" edge="1">
          <mxGeometry relative="1" as="geometry" />
        </mxCell>
        <mxCell id="VE8DLdCKq3_z6wLLURCe-180" value="" style="ellipse;whiteSpace=wrap;html=1;aspect=fixed;rounded=0;sketch=1;strokeColor=#d6b656;strokeWidth=1;fillColor=#fff2cc;" parent="VE8DLdCKq3_z6wLLURCe-1" vertex="1">
          <mxGeometry x="-801" y="1557" width="58" height="58" as="geometry" />
        </mxCell>
        <mxCell id="VE8DLdCKq3_z6wLLURCe-181" style="edgeStyle=none;rounded=0;sketch=1;orthogonalLoop=1;jettySize=auto;html=1;exitX=0.5;exitY=1;exitDx=0;exitDy=0;startArrow=none;startFill=0;endArrow=classic;endFill=1;" parent="VE8DLdCKq3_z6wLLURCe-1" source="VE8DLdCKq3_z6wLLURCe-182" target="VE8DLdCKq3_z6wLLURCe-184" edge="1">
          <mxGeometry relative="1" as="geometry" />
        </mxCell>
        <mxCell id="VE8DLdCKq3_z6wLLURCe-182" value="" style="ellipse;whiteSpace=wrap;html=1;aspect=fixed;rounded=0;sketch=1;strokeColor=#82b366;strokeWidth=1;fillColor=#d5e8d4;" parent="VE8DLdCKq3_z6wLLURCe-1" vertex="1">
          <mxGeometry x="-801" y="1645" width="58" height="58" as="geometry" />
        </mxCell>
        <mxCell id="VE8DLdCKq3_z6wLLURCe-183" style="edgeStyle=none;rounded=0;sketch=1;orthogonalLoop=1;jettySize=auto;html=1;exitX=0.5;exitY=1;exitDx=0;exitDy=0;startArrow=none;startFill=0;endArrow=classic;endFill=1;" parent="VE8DLdCKq3_z6wLLURCe-1" source="VE8DLdCKq3_z6wLLURCe-184" target="VE8DLdCKq3_z6wLLURCe-172" edge="1">
          <mxGeometry relative="1" as="geometry" />
        </mxCell>
        <mxCell id="VE8DLdCKq3_z6wLLURCe-184" value="" style="ellipse;whiteSpace=wrap;html=1;aspect=fixed;rounded=0;sketch=1;strokeColor=#6c8ebf;strokeWidth=1;fillColor=#dae8fc;" parent="VE8DLdCKq3_z6wLLURCe-1" vertex="1">
          <mxGeometry x="-801" y="1724" width="58" height="58" as="geometry" />
        </mxCell>
        <mxCell id="VE8DLdCKq3_z6wLLURCe-185" style="edgeStyle=none;rounded=0;sketch=1;orthogonalLoop=1;jettySize=auto;html=1;exitX=0.5;exitY=1;exitDx=0;exitDy=0;entryX=0.5;entryY=0;entryDx=0;entryDy=0;startArrow=none;startFill=0;endArrow=classic;endFill=1;" parent="VE8DLdCKq3_z6wLLURCe-1" source="VE8DLdCKq3_z6wLLURCe-186" target="VE8DLdCKq3_z6wLLURCe-188" edge="1">
          <mxGeometry relative="1" as="geometry" />
        </mxCell>
        <mxCell id="VE8DLdCKq3_z6wLLURCe-186" value="" style="ellipse;whiteSpace=wrap;html=1;aspect=fixed;rounded=0;sketch=1;strokeColor=#d79b00;strokeWidth=1;fillColor=#ffe6cc;" parent="VE8DLdCKq3_z6wLLURCe-1" vertex="1">
          <mxGeometry x="-466" y="1557" width="58" height="58" as="geometry" />
        </mxCell>
        <mxCell id="VE8DLdCKq3_z6wLLURCe-187" style="edgeStyle=none;rounded=0;sketch=1;orthogonalLoop=1;jettySize=auto;html=1;exitX=0.5;exitY=1;exitDx=0;exitDy=0;startArrow=none;startFill=0;endArrow=classic;endFill=1;" parent="VE8DLdCKq3_z6wLLURCe-1" source="VE8DLdCKq3_z6wLLURCe-188" target="VE8DLdCKq3_z6wLLURCe-190" edge="1">
          <mxGeometry relative="1" as="geometry" />
        </mxCell>
        <mxCell id="VE8DLdCKq3_z6wLLURCe-188" value="" style="ellipse;whiteSpace=wrap;html=1;aspect=fixed;rounded=0;sketch=1;strokeColor=#6c8ebf;strokeWidth=1;fillColor=#dae8fc;" parent="VE8DLdCKq3_z6wLLURCe-1" vertex="1">
          <mxGeometry x="-466" y="1645" width="58" height="58" as="geometry" />
        </mxCell>
        <mxCell id="VE8DLdCKq3_z6wLLURCe-189" style="edgeStyle=none;rounded=0;sketch=1;orthogonalLoop=1;jettySize=auto;html=1;exitX=0.5;exitY=1;exitDx=0;exitDy=0;entryX=0.5;entryY=0;entryDx=0;entryDy=0;startArrow=none;startFill=0;endArrow=classic;endFill=1;" parent="VE8DLdCKq3_z6wLLURCe-1" source="VE8DLdCKq3_z6wLLURCe-190" target="VE8DLdCKq3_z6wLLURCe-191" edge="1">
          <mxGeometry relative="1" as="geometry" />
        </mxCell>
        <mxCell id="VE8DLdCKq3_z6wLLURCe-190" value="" style="ellipse;whiteSpace=wrap;html=1;aspect=fixed;rounded=0;sketch=1;strokeColor=#82b366;strokeWidth=1;fillColor=#d5e8d4;" parent="VE8DLdCKq3_z6wLLURCe-1" vertex="1">
          <mxGeometry x="-466" y="1724" width="58" height="58" as="geometry" />
        </mxCell>
        <mxCell id="VE8DLdCKq3_z6wLLURCe-191" value="A" style="ellipse;whiteSpace=wrap;html=1;aspect=fixed;rounded=0;sketch=1;strokeColor=#000000;strokeWidth=1;fillColor=none;" parent="VE8DLdCKq3_z6wLLURCe-1" vertex="1">
          <mxGeometry x="-410" y="1821" width="58" height="58" as="geometry" />
        </mxCell>
        <mxCell id="VE8DLdCKq3_z6wLLURCe-192" value="B" style="ellipse;whiteSpace=wrap;html=1;aspect=fixed;rounded=0;sketch=1;strokeColor=#000000;strokeWidth=1;fillColor=none;" parent="VE8DLdCKq3_z6wLLURCe-1" vertex="1">
          <mxGeometry x="-280" y="1821" width="58" height="58" as="geometry" />
        </mxCell>
        <mxCell id="VE8DLdCKq3_z6wLLURCe-193" style="edgeStyle=none;rounded=0;sketch=1;orthogonalLoop=1;jettySize=auto;html=1;exitX=0.5;exitY=1;exitDx=0;exitDy=0;entryX=0.5;entryY=0;entryDx=0;entryDy=0;startArrow=none;startFill=0;endArrow=classic;endFill=1;" parent="VE8DLdCKq3_z6wLLURCe-1" source="VE8DLdCKq3_z6wLLURCe-194" target="VE8DLdCKq3_z6wLLURCe-196" edge="1">
          <mxGeometry relative="1" as="geometry" />
        </mxCell>
        <mxCell id="VE8DLdCKq3_z6wLLURCe-194" value="" style="ellipse;whiteSpace=wrap;html=1;aspect=fixed;rounded=0;sketch=1;strokeColor=#d6b656;strokeWidth=1;fillColor=#fff2cc;" parent="VE8DLdCKq3_z6wLLURCe-1" vertex="1">
          <mxGeometry x="-354" y="1554.5" width="58" height="58" as="geometry" />
        </mxCell>
        <mxCell id="VE8DLdCKq3_z6wLLURCe-195" style="edgeStyle=none;rounded=0;sketch=1;orthogonalLoop=1;jettySize=auto;html=1;exitX=0.5;exitY=1;exitDx=0;exitDy=0;startArrow=none;startFill=0;endArrow=classic;endFill=1;" parent="VE8DLdCKq3_z6wLLURCe-1" source="VE8DLdCKq3_z6wLLURCe-196" target="VE8DLdCKq3_z6wLLURCe-198" edge="1">
          <mxGeometry relative="1" as="geometry" />
        </mxCell>
        <mxCell id="VE8DLdCKq3_z6wLLURCe-196" value="" style="ellipse;whiteSpace=wrap;html=1;aspect=fixed;rounded=0;sketch=1;strokeColor=#82b366;strokeWidth=1;fillColor=#d5e8d4;" parent="VE8DLdCKq3_z6wLLURCe-1" vertex="1">
          <mxGeometry x="-354" y="1642.5" width="58" height="58" as="geometry" />
        </mxCell>
        <mxCell id="VE8DLdCKq3_z6wLLURCe-197" style="edgeStyle=none;rounded=0;sketch=1;orthogonalLoop=1;jettySize=auto;html=1;exitX=0.5;exitY=1;exitDx=0;exitDy=0;entryX=0.5;entryY=0;entryDx=0;entryDy=0;startArrow=none;startFill=0;endArrow=classic;endFill=1;" parent="VE8DLdCKq3_z6wLLURCe-1" source="VE8DLdCKq3_z6wLLURCe-198" target="VE8DLdCKq3_z6wLLURCe-191" edge="1">
          <mxGeometry relative="1" as="geometry" />
        </mxCell>
        <mxCell id="VE8DLdCKq3_z6wLLURCe-198" value="" style="ellipse;whiteSpace=wrap;html=1;aspect=fixed;rounded=0;sketch=1;strokeColor=#6c8ebf;strokeWidth=1;fillColor=#dae8fc;" parent="VE8DLdCKq3_z6wLLURCe-1" vertex="1">
          <mxGeometry x="-354" y="1721.5" width="58" height="58" as="geometry" />
        </mxCell>
        <mxCell id="VE8DLdCKq3_z6wLLURCe-199" style="edgeStyle=none;rounded=0;sketch=1;orthogonalLoop=1;jettySize=auto;html=1;startArrow=none;startFill=0;endArrow=classic;endFill=1;exitX=0.5;exitY=1;exitDx=0;exitDy=0;" parent="VE8DLdCKq3_z6wLLURCe-1" source="VE8DLdCKq3_z6wLLURCe-198" target="VE8DLdCKq3_z6wLLURCe-192" edge="1">
          <mxGeometry relative="1" as="geometry">
            <mxPoint x="-329" y="1782" as="sourcePoint" />
          </mxGeometry>
        </mxCell>
        <mxCell id="VE8DLdCKq3_z6wLLURCe-200" value="" style="shape=singleArrow;whiteSpace=wrap;html=1;rounded=0;sketch=1;strokeColor=#000000;strokeWidth=1;fillColor=none;" parent="VE8DLdCKq3_z6wLLURCe-1" vertex="1">
          <mxGeometry x="-643" y="1698" width="100" height="60" as="geometry" />
        </mxCell>
        <mxCell id="X-6LYRQMNgDvtNeDAFhI-1" value="&lt;p style=&quot;margin: 0px ; margin-top: 4px ; text-align: center&quot;&gt;&lt;i&gt;&amp;lt;&amp;lt;Interface&amp;gt;&amp;gt;&lt;/i&gt;&lt;br&gt;&lt;/p&gt;&lt;p style=&quot;margin: 0px ; margin-top: 4px ; text-align: center&quot;&gt;&lt;b&gt;&lt;span style=&quot;font-size: 9.8pt ; text-align: left&quot;&gt;Comparator&lt;/span&gt;Interface&lt;/b&gt;&lt;/p&gt;&lt;p style=&quot;margin: 0px ; margin-left: 4px&quot;&gt;&lt;br&gt;&lt;/p&gt;&lt;hr size=&quot;1&quot;&gt;&lt;p style=&quot;margin: 0px ; margin-left: 4px&quot;&gt;+ compare(a, b Node, nodeMap Map&amp;lt;String, Node&amp;gt; ): bool&amp;nbsp;&lt;br&gt;&lt;/p&gt;" style="verticalAlign=top;align=left;overflow=fill;fontSize=12;fontFamily=Helvetica;html=1;" parent="VE8DLdCKq3_z6wLLURCe-1" vertex="1">
          <mxGeometry x="-501" y="1911" width="352" height="115" as="geometry" />
        </mxCell>
        <mxCell id="X-6LYRQMNgDvtNeDAFhI-10" style="edgeStyle=orthogonalEdgeStyle;rounded=0;orthogonalLoop=1;jettySize=auto;html=1;dashed=1;fontFamily=Helvetica;endArrow=block;endFill=0;" parent="VE8DLdCKq3_z6wLLURCe-1" source="X-6LYRQMNgDvtNeDAFhI-3" edge="1">
          <mxGeometry relative="1" as="geometry">
            <mxPoint x="-330" y="2066" as="targetPoint" />
          </mxGeometry>
        </mxCell>
        <mxCell id="X-6LYRQMNgDvtNeDAFhI-3" value="&lt;p style=&quot;margin: 0px ; margin-top: 4px ; text-align: center&quot;&gt;&lt;b&gt;CurNodeComparator&lt;/b&gt;&lt;/p&gt;&lt;hr size=&quot;1&quot;&gt;&lt;div style=&quot;height: 2px&quot;&gt;+ compare(a, b Node, nodeMap Map&amp;lt;String, Node&amp;gt; ): bool&amp;nbsp;&lt;br&gt;&lt;/div&gt;" style="verticalAlign=top;align=left;overflow=fill;fontSize=12;fontFamily=Helvetica;html=1;" parent="VE8DLdCKq3_z6wLLURCe-1" vertex="1">
          <mxGeometry x="-466" y="2213" width="349" height="69" as="geometry" />
        </mxCell>
        <mxCell id="X-6LYRQMNgDvtNeDAFhI-8" style="edgeStyle=orthogonalEdgeStyle;rounded=0;orthogonalLoop=1;jettySize=auto;html=1;dashed=1;fontFamily=Helvetica;endArrow=block;endFill=0;exitX=0.5;exitY=0;exitDx=0;exitDy=0;" parent="VE8DLdCKq3_z6wLLURCe-1" source="X-6LYRQMNgDvtNeDAFhI-4" edge="1">
          <mxGeometry relative="1" as="geometry">
            <mxPoint x="-335" y="2063" as="targetPoint" />
          </mxGeometry>
        </mxCell>
        <mxCell id="X-6LYRQMNgDvtNeDAFhI-4" value="&lt;p style=&quot;margin: 0px ; margin-top: 4px ; text-align: center&quot;&gt;&lt;b&gt;ParentComparator&lt;/b&gt;&lt;/p&gt;&lt;hr size=&quot;1&quot;&gt;&lt;div style=&quot;height: 2px&quot;&gt;+ compare(a, b Node, nodeMap Map&amp;lt;String, Node&amp;gt; ): bool&amp;nbsp;&lt;br&gt;&lt;/div&gt;" style="verticalAlign=top;align=left;overflow=fill;fontSize=12;fontFamily=Helvetica;html=1;" parent="VE8DLdCKq3_z6wLLURCe-1" vertex="1">
          <mxGeometry x="-77" y="2158" width="349" height="69" as="geometry" />
        </mxCell>
        <mxCell id="X-6LYRQMNgDvtNeDAFhI-7" style="rounded=0;orthogonalLoop=1;jettySize=auto;html=1;exitX=0.5;exitY=0;exitDx=0;exitDy=0;fontFamily=Helvetica;endArrow=block;endFill=0;dashed=1;edgeStyle=orthogonalEdgeStyle;" parent="VE8DLdCKq3_z6wLLURCe-1" source="X-6LYRQMNgDvtNeDAFhI-5" edge="1">
          <mxGeometry relative="1" as="geometry">
            <mxPoint x="-331" y="2066" as="targetPoint" />
          </mxGeometry>
        </mxCell>
        <mxCell id="X-6LYRQMNgDvtNeDAFhI-5" value="&lt;p style=&quot;margin: 0px ; margin-top: 4px ; text-align: center&quot;&gt;&lt;b&gt;ValidComparator&lt;/b&gt;&lt;/p&gt;&lt;hr size=&quot;1&quot;&gt;&lt;div style=&quot;height: 2px&quot;&gt;+ compare(a, b Node, nodeMap Map&amp;lt;String, Node&amp;gt; ): bool&amp;nbsp;&lt;br&gt;&lt;/div&gt;" style="verticalAlign=top;align=left;overflow=fill;fontSize=12;fontFamily=Helvetica;html=1;" parent="VE8DLdCKq3_z6wLLURCe-1" vertex="1">
          <mxGeometry x="-793" y="2140" width="349" height="57" as="geometry" />
        </mxCell>
        <mxCell id="K7YG7HwFtQoS5OoTnVqH-0" value="是否是叶子节点" style="strokeWidth=2;html=1;shape=mxgraph.flowchart.decision;whiteSpace=wrap;" vertex="1" parent="VE8DLdCKq3_z6wLLURCe-1">
          <mxGeometry x="-685" y="2404" width="204" height="100" as="geometry" />
        </mxCell>
        <mxCell id="K7YG7HwFtQoS5OoTnVqH-1" value="两个节点是否均为null或均为非null" style="strokeWidth=2;html=1;shape=mxgraph.flowchart.decision;whiteSpace=wrap;" vertex="1" parent="VE8DLdCKq3_z6wLLURCe-1">
          <mxGeometry x="-680" y="2551" width="204" height="100" as="geometry" />
        </mxCell>
        <mxCell id="K7YG7HwFtQoS5OoTnVqH-2" value="两个节点是否参数个数相同" style="strokeWidth=2;html=1;shape=mxgraph.flowchart.decision;whiteSpace=wrap;" vertex="1" parent="VE8DLdCKq3_z6wLLURCe-1">
          <mxGeometry x="-680" y="2687" width="204" height="100" as="geometry" />
        </mxCell>
        <mxCell id="K7YG7HwFtQoS5OoTnVqH-3" value="节点是否参数相同" style="strokeWidth=2;html=1;shape=mxgraph.flowchart.decision;whiteSpace=wrap;" vertex="1" parent="VE8DLdCKq3_z6wLLURCe-1">
          <mxGeometry x="-680" y="2806" width="204" height="100" as="geometry" />
        </mxCell>
        <mxCell id="K7YG7HwFtQoS5OoTnVqH-4" value="节点的父节点个数是否相同" style="strokeWidth=2;html=1;shape=mxgraph.flowchart.decision;whiteSpace=wrap;" vertex="1" parent="VE8DLdCKq3_z6wLLURCe-1">
          <mxGeometry x="-685" y="2928" width="204" height="100" as="geometry" />
        </mxCell>
        <mxCell id="K7YG7HwFtQoS5OoTnVqH-5" value="节点父节点类型是否相同" style="strokeWidth=2;html=1;shape=mxgraph.flowchart.decision;whiteSpace=wrap;" vertex="1" parent="VE8DLdCKq3_z6wLLURCe-1">
          <mxGeometry x="-680" y="3047" width="204" height="100" as="geometry" />
        </mxCell>
      </root>
    </mxGraphModel>
  </diagram>
  <diagram id="1buGOXmMxtCbYudApFjs" name="第 5 页">
    <mxGraphModel dx="3698" dy="-442" grid="0" gridSize="10" guides="1" tooltips="1" connect="1" arrows="1" fold="1" page="0" pageScale="1" pageWidth="827" pageHeight="1169" math="0" shadow="0">
      <root>
        <mxCell id="ChCeiTd0pNiw1TePjtPf-0" />
        <mxCell id="ChCeiTd0pNiw1TePjtPf-1" parent="ChCeiTd0pNiw1TePjtPf-0" />
        <mxCell id="GjKVv05ZVnLRPVNiGADH-32" style="edgeStyle=orthogonalEdgeStyle;curved=1;rounded=0;orthogonalLoop=1;jettySize=auto;html=1;entryX=0.5;entryY=1;entryDx=0;entryDy=0;fontSize=15;" parent="ChCeiTd0pNiw1TePjtPf-1" source="GjKVv05ZVnLRPVNiGADH-20" target="GjKVv05ZVnLRPVNiGADH-25" edge="1">
          <mxGeometry relative="1" as="geometry">
            <Array as="points">
              <mxPoint x="-910" y="1530" />
              <mxPoint x="-910" y="1930" />
              <mxPoint x="-1380" y="1930" />
            </Array>
          </mxGeometry>
        </mxCell>
        <mxCell id="GjKVv05ZVnLRPVNiGADH-38" value="七彩石推送" style="edgeLabel;html=1;align=center;verticalAlign=middle;resizable=0;points=[];fontSize=15;" parent="GjKVv05ZVnLRPVNiGADH-32" vertex="1" connectable="0">
          <mxGeometry x="0.3204" y="1" relative="1" as="geometry">
            <mxPoint as="offset" />
          </mxGeometry>
        </mxCell>
        <mxCell id="GjKVv05ZVnLRPVNiGADH-20" value="" style="rounded=0;whiteSpace=wrap;html=1;sketch=1;fontSize=15;" parent="ChCeiTd0pNiw1TePjtPf-1" vertex="1">
          <mxGeometry x="-1230" y="1390" width="190" height="250" as="geometry" />
        </mxCell>
        <mxCell id="GjKVv05ZVnLRPVNiGADH-22" style="edgeStyle=orthogonalEdgeStyle;curved=1;rounded=0;orthogonalLoop=1;jettySize=auto;html=1;entryX=0;entryY=0.5;entryDx=0;entryDy=0;fontSize=15;" parent="ChCeiTd0pNiw1TePjtPf-1" source="GjKVv05ZVnLRPVNiGADH-14" target="GjKVv05ZVnLRPVNiGADH-21" edge="1">
          <mxGeometry relative="1" as="geometry" />
        </mxCell>
        <mxCell id="GjKVv05ZVnLRPVNiGADH-23" style="edgeStyle=orthogonalEdgeStyle;curved=1;rounded=0;orthogonalLoop=1;jettySize=auto;html=1;entryX=0.004;entryY=0.192;entryDx=0;entryDy=0;entryPerimeter=0;fontSize=15;" parent="ChCeiTd0pNiw1TePjtPf-1" source="GjKVv05ZVnLRPVNiGADH-21" target="GjKVv05ZVnLRPVNiGADH-20" edge="1">
          <mxGeometry relative="1" as="geometry">
            <mxPoint x="-1240" y="1430" as="targetPoint" />
          </mxGeometry>
        </mxCell>
        <mxCell id="GjKVv05ZVnLRPVNiGADH-40" value="画像发布" style="edgeLabel;html=1;align=center;verticalAlign=middle;resizable=0;points=[];fontSize=15;" parent="GjKVv05ZVnLRPVNiGADH-23" vertex="1" connectable="0">
          <mxGeometry x="-0.2011" y="4" relative="1" as="geometry">
            <mxPoint as="offset" />
          </mxGeometry>
        </mxCell>
        <mxCell id="GjKVv05ZVnLRPVNiGADH-28" style="edgeStyle=orthogonalEdgeStyle;curved=1;rounded=0;orthogonalLoop=1;jettySize=auto;html=1;entryX=0.5;entryY=0;entryDx=0;entryDy=0;fontSize=15;" parent="ChCeiTd0pNiw1TePjtPf-1" source="GjKVv05ZVnLRPVNiGADH-21" target="GjKVv05ZVnLRPVNiGADH-25" edge="1">
          <mxGeometry relative="1" as="geometry" />
        </mxCell>
        <mxCell id="GjKVv05ZVnLRPVNiGADH-29" value="画像调试" style="edgeLabel;html=1;align=center;verticalAlign=middle;resizable=0;points=[];fontSize=15;" parent="GjKVv05ZVnLRPVNiGADH-28" vertex="1" connectable="0">
          <mxGeometry x="-0.2127" y="-2" relative="1" as="geometry">
            <mxPoint y="1" as="offset" />
          </mxGeometry>
        </mxCell>
        <mxCell id="GjKVv05ZVnLRPVNiGADH-21" value="画像开发平台后端" style="rounded=0;whiteSpace=wrap;html=1;sketch=1;fontSize=15;fillColor=#d5e8d4;strokeColor=#82b366;" parent="ChCeiTd0pNiw1TePjtPf-1" vertex="1">
          <mxGeometry x="-1435" y="1490" width="110" height="70" as="geometry" />
        </mxCell>
        <mxCell id="GjKVv05ZVnLRPVNiGADH-24" value="" style="group;fontSize=15;" parent="ChCeiTd0pNiw1TePjtPf-1" vertex="1" connectable="0">
          <mxGeometry x="-1200" y="1442.25" width="140" height="175.5" as="geometry" />
        </mxCell>
        <mxCell id="GjKVv05ZVnLRPVNiGADH-16" value="画像配置A" style="shape=document;whiteSpace=wrap;html=1;boundedLbl=1;sketch=1;fontSize=15;fillColor=#dae8fc;strokeColor=#6c8ebf;" parent="GjKVv05ZVnLRPVNiGADH-24" vertex="1">
          <mxGeometry width="100" height="60" as="geometry" />
        </mxCell>
        <mxCell id="GjKVv05ZVnLRPVNiGADH-17" value="&lt;span style=&quot;font-size: 15px;&quot;&gt;画像配置B&lt;/span&gt;" style="shape=document;whiteSpace=wrap;html=1;boundedLbl=1;sketch=1;fontSize=15;fillColor=#d5e8d4;strokeColor=#82b366;" parent="GjKVv05ZVnLRPVNiGADH-24" vertex="1">
          <mxGeometry x="16.470588235294116" y="38.746753246753244" width="98.8235294117647" height="60.77922077922077" as="geometry" />
        </mxCell>
        <mxCell id="GjKVv05ZVnLRPVNiGADH-18" value="&lt;span style=&quot;font-size: 15px;&quot;&gt;画像配置C&lt;/span&gt;" style="shape=document;whiteSpace=wrap;html=1;boundedLbl=1;sketch=1;fontSize=15;fillColor=#ffe6cc;strokeColor=#d79b00;" parent="GjKVv05ZVnLRPVNiGADH-24" vertex="1">
          <mxGeometry x="24.705882352941174" y="77.49350649350649" width="98.8235294117647" height="60.77922077922077" as="geometry" />
        </mxCell>
        <mxCell id="GjKVv05ZVnLRPVNiGADH-19" value="&lt;span style=&quot;font-size: 15px;&quot;&gt;画像配置D&lt;/span&gt;" style="shape=document;whiteSpace=wrap;html=1;boundedLbl=1;sketch=1;fontSize=15;fillColor=#f8cecc;strokeColor=#b85450;" parent="GjKVv05ZVnLRPVNiGADH-24" vertex="1">
          <mxGeometry x="41.17647058823529" y="114.72077922077922" width="98.8235294117647" height="60.77922077922077" as="geometry" />
        </mxCell>
        <mxCell id="GjKVv05ZVnLRPVNiGADH-27" style="edgeStyle=orthogonalEdgeStyle;curved=1;rounded=0;orthogonalLoop=1;jettySize=auto;html=1;entryX=0;entryY=0.75;entryDx=0;entryDy=0;fontSize=15;" parent="ChCeiTd0pNiw1TePjtPf-1" source="GjKVv05ZVnLRPVNiGADH-25" target="GjKVv05ZVnLRPVNiGADH-20" edge="1">
          <mxGeometry relative="1" as="geometry" />
        </mxCell>
        <mxCell id="GjKVv05ZVnLRPVNiGADH-30" value="主动拉取" style="edgeLabel;html=1;align=center;verticalAlign=middle;resizable=0;points=[];fontSize=15;" parent="GjKVv05ZVnLRPVNiGADH-27" vertex="1" connectable="0">
          <mxGeometry x="-0.0276" y="2" relative="1" as="geometry">
            <mxPoint as="offset" />
          </mxGeometry>
        </mxCell>
        <mxCell id="GjKVv05ZVnLRPVNiGADH-25" value="Session_Proxy" style="rounded=0;whiteSpace=wrap;html=1;sketch=1;fontSize=15;fillColor=#f8cecc;strokeColor=#b85450;" parent="ChCeiTd0pNiw1TePjtPf-1" vertex="1">
          <mxGeometry x="-1440" y="1730" width="120" height="70" as="geometry" />
        </mxCell>
        <mxCell id="GjKVv05ZVnLRPVNiGADH-37" value="七彩石" style="text;html=1;strokeColor=none;fillColor=none;align=center;verticalAlign=middle;whiteSpace=wrap;rounded=0;sketch=1;fontSize=15;" parent="ChCeiTd0pNiw1TePjtPf-1" vertex="1">
          <mxGeometry x="-1220" y="1404.5" width="50" height="15.5" as="geometry" />
        </mxCell>
        <mxCell id="GjKVv05ZVnLRPVNiGADH-39" value="" style="group" parent="ChCeiTd0pNiw1TePjtPf-1" vertex="1" connectable="0">
          <mxGeometry x="-1776" y="1458" width="220" height="260" as="geometry" />
        </mxCell>
        <mxCell id="GjKVv05ZVnLRPVNiGADH-14" value="" style="rounded=0;whiteSpace=wrap;html=1;sketch=1;fontSize=15;" parent="GjKVv05ZVnLRPVNiGADH-39" vertex="1">
          <mxGeometry x="33.995652173913044" y="-4" width="191.30434782608697" height="260" as="geometry" />
        </mxCell>
        <mxCell id="GjKVv05ZVnLRPVNiGADH-33" value="" style="group" parent="GjKVv05ZVnLRPVNiGADH-39" vertex="1" connectable="0">
          <mxGeometry x="61.21739130434783" y="24.201537147736975" width="120.52173913043478" height="226.91716481639625" as="geometry" />
        </mxCell>
        <mxCell id="GjKVv05ZVnLRPVNiGADH-1" value="" style="ellipse;whiteSpace=wrap;html=1;aspect=fixed;rounded=0;sketch=1;strokeColor=#d79b00;strokeWidth=1;fillColor=#ffe6cc;fontSize=15;" parent="GjKVv05ZVnLRPVNiGADH-33" vertex="1">
          <mxGeometry y="1.7482062004344858" width="35.63400781375331" height="35.63400781375331" as="geometry" />
        </mxCell>
        <mxCell id="GjKVv05ZVnLRPVNiGADH-3" value="" style="ellipse;whiteSpace=wrap;html=1;aspect=fixed;rounded=0;sketch=1;strokeColor=#6c8ebf;strokeWidth=1;fillColor=#dae8fc;fontSize=15;" parent="GjKVv05ZVnLRPVNiGADH-33" vertex="1">
          <mxGeometry y="63.28506445572839" width="35.63400781375331" height="35.63400781375331" as="geometry" />
        </mxCell>
        <mxCell id="GjKVv05ZVnLRPVNiGADH-0" style="edgeStyle=none;rounded=0;sketch=1;orthogonalLoop=1;jettySize=auto;html=1;exitX=0.5;exitY=1;exitDx=0;exitDy=0;entryX=0.5;entryY=0;entryDx=0;entryDy=0;startArrow=none;startFill=0;endArrow=classic;endFill=1;fontSize=15;" parent="GjKVv05ZVnLRPVNiGADH-33" source="GjKVv05ZVnLRPVNiGADH-1" target="GjKVv05ZVnLRPVNiGADH-3" edge="1">
          <mxGeometry relative="1" as="geometry" />
        </mxCell>
        <mxCell id="GjKVv05ZVnLRPVNiGADH-5" value="" style="ellipse;whiteSpace=wrap;html=1;aspect=fixed;rounded=0;sketch=1;strokeColor=#82b366;strokeWidth=1;fillColor=#d5e8d4;fontSize=15;" parent="GjKVv05ZVnLRPVNiGADH-33" vertex="1">
          <mxGeometry y="118.52838038945816" width="35.63400781375331" height="35.63400781375331" as="geometry" />
        </mxCell>
        <mxCell id="GjKVv05ZVnLRPVNiGADH-2" style="edgeStyle=none;rounded=0;sketch=1;orthogonalLoop=1;jettySize=auto;html=1;exitX=0.5;exitY=1;exitDx=0;exitDy=0;startArrow=none;startFill=0;endArrow=classic;endFill=1;fontSize=15;" parent="GjKVv05ZVnLRPVNiGADH-33" source="GjKVv05ZVnLRPVNiGADH-3" target="GjKVv05ZVnLRPVNiGADH-5" edge="1">
          <mxGeometry relative="1" as="geometry" />
        </mxCell>
        <mxCell id="GjKVv05ZVnLRPVNiGADH-6" value="A" style="ellipse;whiteSpace=wrap;html=1;aspect=fixed;rounded=0;sketch=1;strokeColor=#000000;strokeWidth=1;fillColor=none;fontSize=15;" parent="GjKVv05ZVnLRPVNiGADH-33" vertex="1">
          <mxGeometry x="39.70127877237852" y="186.3587809663162" width="35.63400781375331" height="35.63400781375331" as="geometry" />
        </mxCell>
        <mxCell id="GjKVv05ZVnLRPVNiGADH-4" style="edgeStyle=none;rounded=0;sketch=1;orthogonalLoop=1;jettySize=auto;html=1;exitX=0.5;exitY=1;exitDx=0;exitDy=0;entryX=0.5;entryY=0;entryDx=0;entryDy=0;startArrow=none;startFill=0;endArrow=classic;endFill=1;fontSize=15;" parent="GjKVv05ZVnLRPVNiGADH-33" source="GjKVv05ZVnLRPVNiGADH-5" target="GjKVv05ZVnLRPVNiGADH-6" edge="1">
          <mxGeometry relative="1" as="geometry" />
        </mxCell>
        <mxCell id="GjKVv05ZVnLRPVNiGADH-8" value="" style="ellipse;whiteSpace=wrap;html=1;aspect=fixed;rounded=0;sketch=1;strokeColor=#d6b656;strokeWidth=1;fillColor=#fff2cc;fontSize=15;" parent="GjKVv05ZVnLRPVNiGADH-33" vertex="1">
          <mxGeometry x="79.40255754475704" width="35.63400781375331" height="35.63400781375331" as="geometry" />
        </mxCell>
        <mxCell id="GjKVv05ZVnLRPVNiGADH-10" value="" style="ellipse;whiteSpace=wrap;html=1;aspect=fixed;rounded=0;sketch=1;strokeColor=#82b366;strokeWidth=1;fillColor=#d5e8d4;fontSize=15;" parent="GjKVv05ZVnLRPVNiGADH-33" vertex="1">
          <mxGeometry x="79.40255754475704" y="61.536858255293915" width="35.63400781375331" height="35.63400781375331" as="geometry" />
        </mxCell>
        <mxCell id="GjKVv05ZVnLRPVNiGADH-7" style="edgeStyle=none;rounded=0;sketch=1;orthogonalLoop=1;jettySize=auto;html=1;exitX=0.5;exitY=1;exitDx=0;exitDy=0;entryX=0.5;entryY=0;entryDx=0;entryDy=0;startArrow=none;startFill=0;endArrow=classic;endFill=1;fontSize=15;" parent="GjKVv05ZVnLRPVNiGADH-33" source="GjKVv05ZVnLRPVNiGADH-8" target="GjKVv05ZVnLRPVNiGADH-10" edge="1">
          <mxGeometry relative="1" as="geometry" />
        </mxCell>
        <mxCell id="GjKVv05ZVnLRPVNiGADH-11" style="edgeStyle=none;rounded=0;sketch=1;orthogonalLoop=1;jettySize=auto;html=1;exitX=0.5;exitY=1;exitDx=0;exitDy=0;entryX=0.5;entryY=0;entryDx=0;entryDy=0;startArrow=none;startFill=0;endArrow=classic;endFill=1;fontSize=15;" parent="GjKVv05ZVnLRPVNiGADH-33" source="GjKVv05ZVnLRPVNiGADH-12" target="GjKVv05ZVnLRPVNiGADH-6" edge="1">
          <mxGeometry relative="1" as="geometry" />
        </mxCell>
        <mxCell id="GjKVv05ZVnLRPVNiGADH-12" value="" style="ellipse;whiteSpace=wrap;html=1;aspect=fixed;rounded=0;sketch=1;strokeColor=#6c8ebf;strokeWidth=1;fillColor=#dae8fc;fontSize=15;" parent="GjKVv05ZVnLRPVNiGADH-33" vertex="1">
          <mxGeometry x="79.40255754475704" y="116.78017418902367" width="35.63400781375331" height="35.63400781375331" as="geometry" />
        </mxCell>
        <mxCell id="GjKVv05ZVnLRPVNiGADH-9" style="edgeStyle=none;rounded=0;sketch=1;orthogonalLoop=1;jettySize=auto;html=1;exitX=0.5;exitY=1;exitDx=0;exitDy=0;startArrow=none;startFill=0;endArrow=classic;endFill=1;fontSize=15;" parent="GjKVv05ZVnLRPVNiGADH-33" source="GjKVv05ZVnLRPVNiGADH-10" target="GjKVv05ZVnLRPVNiGADH-12" edge="1">
          <mxGeometry relative="1" as="geometry" />
        </mxCell>
        <mxCell id="GjKVv05ZVnLRPVNiGADH-35" value="画像" style="text;html=1;strokeColor=none;fillColor=none;align=center;verticalAlign=middle;whiteSpace=wrap;rounded=0;sketch=1;fontSize=15;" parent="GjKVv05ZVnLRPVNiGADH-39" vertex="1">
          <mxGeometry x="10" y="1.9989410760034154" width="95.65217391304348" height="17.76259607173356" as="geometry" />
        </mxCell>
        <mxCell id="5VEZNrCzNiqBvBbbdLOH-14" style="edgeStyle=orthogonalEdgeStyle;curved=1;rounded=0;orthogonalLoop=1;jettySize=auto;html=1;entryX=1;entryY=0.5;entryDx=0;entryDy=0;" parent="ChCeiTd0pNiw1TePjtPf-1" source="5VEZNrCzNiqBvBbbdLOH-0" target="5VEZNrCzNiqBvBbbdLOH-13" edge="1">
          <mxGeometry relative="1" as="geometry" />
        </mxCell>
        <mxCell id="5VEZNrCzNiqBvBbbdLOH-29" value="4" style="edgeLabel;html=1;align=center;verticalAlign=middle;resizable=0;points=[];" parent="5VEZNrCzNiqBvBbbdLOH-14" vertex="1" connectable="0">
          <mxGeometry x="0.0984" y="-3" relative="1" as="geometry">
            <mxPoint x="-7" y="10" as="offset" />
          </mxGeometry>
        </mxCell>
        <mxCell id="5VEZNrCzNiqBvBbbdLOH-16" style="edgeStyle=orthogonalEdgeStyle;curved=1;rounded=0;orthogonalLoop=1;jettySize=auto;html=1;entryX=0;entryY=0.5;entryDx=0;entryDy=0;" parent="ChCeiTd0pNiw1TePjtPf-1" source="5VEZNrCzNiqBvBbbdLOH-0" target="5VEZNrCzNiqBvBbbdLOH-17" edge="1">
          <mxGeometry relative="1" as="geometry">
            <mxPoint x="-1784" y="2048" as="targetPoint" />
          </mxGeometry>
        </mxCell>
        <mxCell id="5VEZNrCzNiqBvBbbdLOH-27" value="2" style="edgeLabel;html=1;align=center;verticalAlign=middle;resizable=0;points=[];" parent="5VEZNrCzNiqBvBbbdLOH-16" vertex="1" connectable="0">
          <mxGeometry x="0.0581" relative="1" as="geometry">
            <mxPoint as="offset" />
          </mxGeometry>
        </mxCell>
        <mxCell id="5VEZNrCzNiqBvBbbdLOH-0" value="画像" style="rounded=0;whiteSpace=wrap;html=1;" parent="ChCeiTd0pNiw1TePjtPf-1" vertex="1">
          <mxGeometry x="-1969" y="2134" width="120" height="60" as="geometry" />
        </mxCell>
        <mxCell id="5VEZNrCzNiqBvBbbdLOH-11" style="rounded=0;orthogonalLoop=1;jettySize=auto;html=1;entryX=0.5;entryY=0;entryDx=0;entryDy=0;edgeStyle=orthogonalEdgeStyle;curved=1;" parent="ChCeiTd0pNiw1TePjtPf-1" source="5VEZNrCzNiqBvBbbdLOH-4" target="5VEZNrCzNiqBvBbbdLOH-9" edge="1">
          <mxGeometry relative="1" as="geometry" />
        </mxCell>
        <mxCell id="5VEZNrCzNiqBvBbbdLOH-4" value="算子" style="rounded=0;whiteSpace=wrap;html=1;" parent="ChCeiTd0pNiw1TePjtPf-1" vertex="1">
          <mxGeometry x="-1950.5" y="1879" width="83" height="60" as="geometry" />
        </mxCell>
        <mxCell id="5VEZNrCzNiqBvBbbdLOH-12" style="edgeStyle=orthogonalEdgeStyle;curved=1;rounded=0;orthogonalLoop=1;jettySize=auto;html=1;entryX=0.5;entryY=0;entryDx=0;entryDy=0;exitX=0.5;exitY=1;exitDx=0;exitDy=0;" parent="ChCeiTd0pNiw1TePjtPf-1" source="5VEZNrCzNiqBvBbbdLOH-5" target="5VEZNrCzNiqBvBbbdLOH-9" edge="1">
          <mxGeometry relative="1" as="geometry" />
        </mxCell>
        <mxCell id="5VEZNrCzNiqBvBbbdLOH-5" value="数据源序列" style="rounded=0;whiteSpace=wrap;html=1;" parent="ChCeiTd0pNiw1TePjtPf-1" vertex="1">
          <mxGeometry x="-1832" y="1879" width="80" height="60" as="geometry" />
        </mxCell>
        <mxCell id="5VEZNrCzNiqBvBbbdLOH-23" style="edgeStyle=orthogonalEdgeStyle;curved=1;rounded=0;orthogonalLoop=1;jettySize=auto;html=1;entryX=0.5;entryY=1;entryDx=0;entryDy=0;exitX=0.5;exitY=1;exitDx=0;exitDy=0;" parent="ChCeiTd0pNiw1TePjtPf-1" source="5VEZNrCzNiqBvBbbdLOH-7" target="5VEZNrCzNiqBvBbbdLOH-0" edge="1">
          <mxGeometry relative="1" as="geometry">
            <Array as="points">
              <mxPoint x="-2099" y="2259" />
              <mxPoint x="-1909" y="2259" />
            </Array>
          </mxGeometry>
        </mxCell>
        <mxCell id="5VEZNrCzNiqBvBbbdLOH-7" value="画像集" style="rounded=0;whiteSpace=wrap;html=1;" parent="ChCeiTd0pNiw1TePjtPf-1" vertex="1">
          <mxGeometry x="-2159" y="2138" width="120" height="60" as="geometry" />
        </mxCell>
        <mxCell id="5VEZNrCzNiqBvBbbdLOH-10" style="edgeStyle=orthogonalEdgeStyle;rounded=0;orthogonalLoop=1;jettySize=auto;html=1;entryX=0.5;entryY=0;entryDx=0;entryDy=0;" parent="ChCeiTd0pNiw1TePjtPf-1" source="5VEZNrCzNiqBvBbbdLOH-9" target="5VEZNrCzNiqBvBbbdLOH-0" edge="1">
          <mxGeometry relative="1" as="geometry" />
        </mxCell>
        <mxCell id="5VEZNrCzNiqBvBbbdLOH-26" value="1" style="edgeLabel;html=1;align=center;verticalAlign=middle;resizable=0;points=[];" parent="5VEZNrCzNiqBvBbbdLOH-10" vertex="1" connectable="0">
          <mxGeometry x="-0.0298" y="-2" relative="1" as="geometry">
            <mxPoint as="offset" />
          </mxGeometry>
        </mxCell>
        <mxCell id="5VEZNrCzNiqBvBbbdLOH-9" value="创建" style="rounded=1;whiteSpace=wrap;html=1;fillColor=#dae8fc;strokeColor=#6c8ebf;" parent="ChCeiTd0pNiw1TePjtPf-1" vertex="1">
          <mxGeometry x="-1969" y="2018" width="120" height="60" as="geometry" />
        </mxCell>
        <mxCell id="5VEZNrCzNiqBvBbbdLOH-15" style="edgeStyle=orthogonalEdgeStyle;curved=1;rounded=0;orthogonalLoop=1;jettySize=auto;html=1;entryX=0.5;entryY=0;entryDx=0;entryDy=0;" parent="ChCeiTd0pNiw1TePjtPf-1" source="5VEZNrCzNiqBvBbbdLOH-13" target="5VEZNrCzNiqBvBbbdLOH-7" edge="1">
          <mxGeometry relative="1" as="geometry" />
        </mxCell>
        <mxCell id="5VEZNrCzNiqBvBbbdLOH-13" value="&lt;span&gt;画像合并&lt;/span&gt;" style="rounded=1;whiteSpace=wrap;html=1;fillColor=#d5e8d4;strokeColor=#82b366;" parent="ChCeiTd0pNiw1TePjtPf-1" vertex="1">
          <mxGeometry x="-2159" y="2021" width="120" height="60" as="geometry" />
        </mxCell>
        <mxCell id="5VEZNrCzNiqBvBbbdLOH-19" style="edgeStyle=orthogonalEdgeStyle;curved=1;rounded=0;orthogonalLoop=1;jettySize=auto;html=1;entryX=0;entryY=0.5;entryDx=0;entryDy=0;" parent="ChCeiTd0pNiw1TePjtPf-1" source="5VEZNrCzNiqBvBbbdLOH-17" target="5VEZNrCzNiqBvBbbdLOH-18" edge="1">
          <mxGeometry relative="1" as="geometry" />
        </mxCell>
        <mxCell id="5VEZNrCzNiqBvBbbdLOH-28" value="3" style="edgeLabel;html=1;align=center;verticalAlign=middle;resizable=0;points=[];" parent="5VEZNrCzNiqBvBbbdLOH-19" vertex="1" connectable="0">
          <mxGeometry x="-0.1429" relative="1" as="geometry">
            <mxPoint as="offset" />
          </mxGeometry>
        </mxCell>
        <mxCell id="5VEZNrCzNiqBvBbbdLOH-17" value="调试" style="rounded=1;whiteSpace=wrap;html=1;fillColor=#f8cecc;strokeColor=#b85450;" parent="ChCeiTd0pNiw1TePjtPf-1" vertex="1">
          <mxGeometry x="-1793" y="2018" width="120" height="60" as="geometry" />
        </mxCell>
        <mxCell id="5VEZNrCzNiqBvBbbdLOH-18" value="发布" style="rounded=1;whiteSpace=wrap;html=1;fillColor=#e1d5e7;strokeColor=#9673a6;" parent="ChCeiTd0pNiw1TePjtPf-1" vertex="1">
          <mxGeometry x="-1624" y="2018" width="120" height="60" as="geometry" />
        </mxCell>
        <mxCell id="5VEZNrCzNiqBvBbbdLOH-21" style="edgeStyle=orthogonalEdgeStyle;curved=1;rounded=0;orthogonalLoop=1;jettySize=auto;html=1;entryX=0.5;entryY=0;entryDx=0;entryDy=0;exitX=0.5;exitY=1;exitDx=0;exitDy=0;" parent="ChCeiTd0pNiw1TePjtPf-1" source="5VEZNrCzNiqBvBbbdLOH-20" target="5VEZNrCzNiqBvBbbdLOH-9" edge="1">
          <mxGeometry relative="1" as="geometry" />
        </mxCell>
        <mxCell id="5VEZNrCzNiqBvBbbdLOH-20" value="字段选择器" style="rounded=0;whiteSpace=wrap;html=1;" parent="ChCeiTd0pNiw1TePjtPf-1" vertex="1">
          <mxGeometry x="-2069" y="1879" width="92" height="60" as="geometry" />
        </mxCell>
      </root>
    </mxGraphModel>
  </diagram>
  <diagram id="EHoLNevr21cZ3C4V5e8r" name="第 6 页">
    <mxGraphModel dx="1698" dy="758" grid="0" gridSize="10" guides="0" tooltips="0" connect="1" arrows="0" fold="1" page="0" pageScale="1" pageWidth="827" pageHeight="1169" math="0" shadow="0">
      <root>
        <mxCell id="nKVxaiI8NBTCbrhGRkBz-0" />
        <mxCell id="nKVxaiI8NBTCbrhGRkBz-1" parent="nKVxaiI8NBTCbrhGRkBz-0" />
        <mxCell id="Fyp1vwRsKiAMYKiXppak-5" value="" style="rounded=0;whiteSpace=wrap;html=1;fontSize=16;" parent="nKVxaiI8NBTCbrhGRkBz-1" vertex="1">
          <mxGeometry x="310" y="167.5" width="190" height="102.5" as="geometry" />
        </mxCell>
        <mxCell id="Fyp1vwRsKiAMYKiXppak-3" value="" style="rounded=0;whiteSpace=wrap;html=1;fontSize=16;" parent="nKVxaiI8NBTCbrhGRkBz-1" vertex="1">
          <mxGeometry x="50" y="170" width="200" height="100" as="geometry" />
        </mxCell>
        <mxCell id="Fyp1vwRsKiAMYKiXppak-2" style="edgeStyle=orthogonalEdgeStyle;rounded=0;orthogonalLoop=1;jettySize=auto;html=1;entryX=0;entryY=0.5;entryDx=0;entryDy=0;fontSize=16;" parent="nKVxaiI8NBTCbrhGRkBz-1" source="Fyp1vwRsKiAMYKiXppak-0" target="Fyp1vwRsKiAMYKiXppak-1" edge="1">
          <mxGeometry relative="1" as="geometry" />
        </mxCell>
        <mxCell id="Fyp1vwRsKiAMYKiXppak-0" value="模型" style="rounded=0;whiteSpace=wrap;html=1;fillColor=#f8cecc;strokeColor=#b85450;fontSize=16;" parent="nKVxaiI8NBTCbrhGRkBz-1" vertex="1">
          <mxGeometry x="65" y="200" width="120" height="60" as="geometry" />
        </mxCell>
        <mxCell id="Fyp1vwRsKiAMYKiXppak-1" value="模型服务" style="rounded=0;whiteSpace=wrap;html=1;fillColor=#f8cecc;strokeColor=#b85450;fontSize=16;" parent="nKVxaiI8NBTCbrhGRkBz-1" vertex="1">
          <mxGeometry x="330" y="200" width="120" height="60" as="geometry" />
        </mxCell>
        <mxCell id="Fyp1vwRsKiAMYKiXppak-4" value="Venus" style="text;html=1;strokeColor=none;fillColor=none;align=center;verticalAlign=middle;whiteSpace=wrap;rounded=0;fontSize=16;" parent="nKVxaiI8NBTCbrhGRkBz-1" vertex="1">
          <mxGeometry x="50" y="170" width="60" height="30" as="geometry" />
        </mxCell>
        <mxCell id="Fyp1vwRsKiAMYKiXppak-6" value="123平台" style="text;html=1;strokeColor=none;fillColor=none;align=center;verticalAlign=middle;whiteSpace=wrap;rounded=0;fontSize=16;" parent="nKVxaiI8NBTCbrhGRkBz-1" vertex="1">
          <mxGeometry x="310" y="170" width="70" height="20" as="geometry" />
        </mxCell>
        <mxCell id="Fyp1vwRsKiAMYKiXppak-33" style="edgeStyle=orthogonalEdgeStyle;curved=1;rounded=0;orthogonalLoop=1;jettySize=auto;html=1;exitX=0.5;exitY=1;exitDx=0;exitDy=0;entryX=0;entryY=0.5;entryDx=0;entryDy=0;fontSize=16;" parent="nKVxaiI8NBTCbrhGRkBz-1" source="Fyp1vwRsKiAMYKiXppak-10" target="Fyp1vwRsKiAMYKiXppak-12" edge="1">
          <mxGeometry relative="1" as="geometry">
            <mxPoint x="420" y="380" as="targetPoint" />
          </mxGeometry>
        </mxCell>
        <mxCell id="Fyp1vwRsKiAMYKiXppak-55" value="3" style="edgeLabel;html=1;align=center;verticalAlign=middle;resizable=0;points=[];fontSize=16;" parent="Fyp1vwRsKiAMYKiXppak-33" vertex="1" connectable="0">
          <mxGeometry x="0.1579" y="7" relative="1" as="geometry">
            <mxPoint as="offset" />
          </mxGeometry>
        </mxCell>
        <mxCell id="Fyp1vwRsKiAMYKiXppak-37" style="edgeStyle=orthogonalEdgeStyle;curved=1;rounded=0;orthogonalLoop=1;jettySize=auto;html=1;entryX=0.608;entryY=1;entryDx=0;entryDy=0;entryPerimeter=0;fontSize=16;" parent="nKVxaiI8NBTCbrhGRkBz-1" source="Fyp1vwRsKiAMYKiXppak-10" target="Fyp1vwRsKiAMYKiXppak-1" edge="1">
          <mxGeometry relative="1" as="geometry">
            <Array as="points">
              <mxPoint x="403" y="505" />
            </Array>
          </mxGeometry>
        </mxCell>
        <mxCell id="Fyp1vwRsKiAMYKiXppak-56" value="6" style="edgeLabel;html=1;align=center;verticalAlign=middle;resizable=0;points=[];fontSize=16;" parent="Fyp1vwRsKiAMYKiXppak-37" vertex="1" connectable="0">
          <mxGeometry x="-0.0454" y="9" relative="1" as="geometry">
            <mxPoint x="3" y="-44" as="offset" />
          </mxGeometry>
        </mxCell>
        <mxCell id="Fyp1vwRsKiAMYKiXppak-10" value="UisServing" style="rounded=0;whiteSpace=wrap;html=1;fontSize=16;" parent="nKVxaiI8NBTCbrhGRkBz-1" vertex="1">
          <mxGeometry x="220" y="485" width="120" height="60" as="geometry" />
        </mxCell>
        <mxCell id="Fyp1vwRsKiAMYKiXppak-15" value="1" style="edgeStyle=orthogonalEdgeStyle;rounded=0;orthogonalLoop=1;jettySize=auto;html=1;entryX=0;entryY=0.5;entryDx=0;entryDy=0;fontSize=16;" parent="nKVxaiI8NBTCbrhGRkBz-1" source="Fyp1vwRsKiAMYKiXppak-11" target="Fyp1vwRsKiAMYKiXppak-13" edge="1">
          <mxGeometry relative="1" as="geometry" />
        </mxCell>
        <mxCell id="Fyp1vwRsKiAMYKiXppak-19" style="edgeStyle=orthogonalEdgeStyle;rounded=0;orthogonalLoop=1;jettySize=auto;html=1;fontSize=16;" parent="nKVxaiI8NBTCbrhGRkBz-1" source="Fyp1vwRsKiAMYKiXppak-11" target="Fyp1vwRsKiAMYKiXppak-17" edge="1">
          <mxGeometry relative="1" as="geometry" />
        </mxCell>
        <mxCell id="Fyp1vwRsKiAMYKiXppak-11" value="消息队列" style="shape=cylinder3;whiteSpace=wrap;html=1;boundedLbl=1;backgroundOutline=1;size=15;fillColor=#f8cecc;strokeColor=#b85450;fontSize=16;" parent="nKVxaiI8NBTCbrhGRkBz-1" vertex="1">
          <mxGeometry x="-94.5" y="380" width="75" height="60" as="geometry" />
        </mxCell>
        <mxCell id="Fyp1vwRsKiAMYKiXppak-31" value="4" style="edgeStyle=orthogonalEdgeStyle;curved=1;rounded=0;orthogonalLoop=1;jettySize=auto;html=1;entryX=0.5;entryY=0;entryDx=0;entryDy=0;fontSize=16;" parent="nKVxaiI8NBTCbrhGRkBz-1" source="Fyp1vwRsKiAMYKiXppak-12" target="Fyp1vwRsKiAMYKiXppak-22" edge="1">
          <mxGeometry relative="1" as="geometry" />
        </mxCell>
        <mxCell id="Fyp1vwRsKiAMYKiXppak-12" value="FeatureServer" style="rounded=0;whiteSpace=wrap;html=1;fontSize=16;" parent="nKVxaiI8NBTCbrhGRkBz-1" vertex="1">
          <mxGeometry x="354" y="555" width="120" height="60" as="geometry" />
        </mxCell>
        <mxCell id="Fyp1vwRsKiAMYKiXppak-14" style="edgeStyle=orthogonalEdgeStyle;rounded=0;orthogonalLoop=1;jettySize=auto;html=1;curved=1;fontSize=16;" parent="nKVxaiI8NBTCbrhGRkBz-1" source="Fyp1vwRsKiAMYKiXppak-13" target="Fyp1vwRsKiAMYKiXppak-10" edge="1">
          <mxGeometry relative="1" as="geometry" />
        </mxCell>
        <mxCell id="Fyp1vwRsKiAMYKiXppak-54" value="2" style="edgeLabel;html=1;align=center;verticalAlign=middle;resizable=0;points=[];fontSize=16;" parent="Fyp1vwRsKiAMYKiXppak-14" vertex="1" connectable="0">
          <mxGeometry x="-0.4369" y="-12" relative="1" as="geometry">
            <mxPoint x="7" as="offset" />
          </mxGeometry>
        </mxCell>
        <mxCell id="Fyp1vwRsKiAMYKiXppak-52" style="edgeStyle=orthogonalEdgeStyle;curved=1;rounded=0;orthogonalLoop=1;jettySize=auto;html=1;entryX=1;entryY=0.5;entryDx=0;entryDy=0;entryPerimeter=0;fontSize=16;" parent="nKVxaiI8NBTCbrhGRkBz-1" source="Fyp1vwRsKiAMYKiXppak-13" target="Fyp1vwRsKiAMYKiXppak-51" edge="1">
          <mxGeometry relative="1" as="geometry">
            <Array as="points">
              <mxPoint x="141" y="280" />
            </Array>
          </mxGeometry>
        </mxCell>
        <mxCell id="Fyp1vwRsKiAMYKiXppak-59" value="7" style="edgeLabel;html=1;align=center;verticalAlign=middle;resizable=0;points=[];fontSize=16;" parent="Fyp1vwRsKiAMYKiXppak-52" vertex="1" connectable="0">
          <mxGeometry x="0.0945" y="24" relative="1" as="geometry">
            <mxPoint as="offset" />
          </mxGeometry>
        </mxCell>
        <mxCell id="Fyp1vwRsKiAMYKiXppak-13" value="UisGate" style="rounded=0;whiteSpace=wrap;html=1;fontSize=16;" parent="nKVxaiI8NBTCbrhGRkBz-1" vertex="1">
          <mxGeometry x="80.5" y="380" width="120" height="60" as="geometry" />
        </mxCell>
        <mxCell id="Fyp1vwRsKiAMYKiXppak-20" style="edgeStyle=orthogonalEdgeStyle;rounded=0;orthogonalLoop=1;jettySize=auto;html=1;fontSize=16;" parent="nKVxaiI8NBTCbrhGRkBz-1" source="Fyp1vwRsKiAMYKiXppak-17" target="Fyp1vwRsKiAMYKiXppak-18" edge="1">
          <mxGeometry relative="1" as="geometry" />
        </mxCell>
        <mxCell id="Fyp1vwRsKiAMYKiXppak-17" value="Session&lt;br&gt;Update" style="rounded=0;whiteSpace=wrap;html=1;fontSize=16;" parent="nKVxaiI8NBTCbrhGRkBz-1" vertex="1">
          <mxGeometry x="-100" y="490" width="86" height="50" as="geometry" />
        </mxCell>
        <mxCell id="Fyp1vwRsKiAMYKiXppak-18" value="序列" style="shape=cylinder3;whiteSpace=wrap;html=1;boundedLbl=1;backgroundOutline=1;size=15;fillColor=#f8cecc;strokeColor=#b85450;fontSize=16;" parent="nKVxaiI8NBTCbrhGRkBz-1" vertex="1">
          <mxGeometry x="-94.5" y="570" width="75" height="90" as="geometry" />
        </mxCell>
        <mxCell id="Fyp1vwRsKiAMYKiXppak-32" style="edgeStyle=orthogonalEdgeStyle;curved=1;rounded=0;orthogonalLoop=1;jettySize=auto;html=1;entryX=0.5;entryY=1;entryDx=0;entryDy=0;entryPerimeter=0;fontSize=16;" parent="nKVxaiI8NBTCbrhGRkBz-1" source="Fyp1vwRsKiAMYKiXppak-22" target="Fyp1vwRsKiAMYKiXppak-18" edge="1">
          <mxGeometry relative="1" as="geometry">
            <Array as="points">
              <mxPoint x="410" y="760" />
              <mxPoint x="-57" y="760" />
            </Array>
          </mxGeometry>
        </mxCell>
        <mxCell id="Fyp1vwRsKiAMYKiXppak-58" value="5" style="edgeLabel;html=1;align=center;verticalAlign=middle;resizable=0;points=[];fontSize=16;" parent="Fyp1vwRsKiAMYKiXppak-32" vertex="1" connectable="0">
          <mxGeometry x="-0.0172" y="3" relative="1" as="geometry">
            <mxPoint y="-6" as="offset" />
          </mxGeometry>
        </mxCell>
        <mxCell id="Fyp1vwRsKiAMYKiXppak-22" value="Session_server" style="rounded=0;whiteSpace=wrap;html=1;fontSize=16;" parent="nKVxaiI8NBTCbrhGRkBz-1" vertex="1">
          <mxGeometry x="355" y="685" width="120" height="60" as="geometry" />
        </mxCell>
        <mxCell id="Fyp1vwRsKiAMYKiXppak-42" value="" style="rounded=0;whiteSpace=wrap;html=1;fontSize=16;" parent="nKVxaiI8NBTCbrhGRkBz-1" vertex="1">
          <mxGeometry x="65" y="502.5" width="125" height="177.5" as="geometry" />
        </mxCell>
        <mxCell id="Fyp1vwRsKiAMYKiXppak-44" value="画像配置" style="rounded=1;whiteSpace=wrap;html=1;fillColor=#f8cecc;strokeColor=#b85450;fontSize=11;" parent="nKVxaiI8NBTCbrhGRkBz-1" vertex="1">
          <mxGeometry x="90" y="630" width="70" height="25" as="geometry" />
        </mxCell>
        <mxCell id="Fyp1vwRsKiAMYKiXppak-45" value="UisServing配置" style="rounded=1;whiteSpace=wrap;html=1;fillColor=#fff2cc;strokeColor=#d6b656;fontSize=11;" parent="nKVxaiI8NBTCbrhGRkBz-1" vertex="1">
          <mxGeometry x="90" y="530" width="70" height="25" as="geometry" />
        </mxCell>
        <mxCell id="Fyp1vwRsKiAMYKiXppak-48" value="FeatureServer配置" style="rounded=1;whiteSpace=wrap;html=1;fillColor=#d5e8d4;strokeColor=#82b366;fontSize=11;" parent="nKVxaiI8NBTCbrhGRkBz-1" vertex="1">
          <mxGeometry x="90" y="578.75" width="70" height="25" as="geometry" />
        </mxCell>
        <mxCell id="Fyp1vwRsKiAMYKiXppak-50" value="七彩石" style="text;html=1;strokeColor=none;fillColor=none;align=center;verticalAlign=middle;whiteSpace=wrap;rounded=0;fontSize=16;" parent="nKVxaiI8NBTCbrhGRkBz-1" vertex="1">
          <mxGeometry x="60" y="502.5" width="60" height="30" as="geometry" />
        </mxCell>
        <mxCell id="Fyp1vwRsKiAMYKiXppak-51" value="BDB" style="shape=cylinder3;whiteSpace=wrap;html=1;boundedLbl=1;backgroundOutline=1;size=15;fontSize=16;" parent="nKVxaiI8NBTCbrhGRkBz-1" vertex="1">
          <mxGeometry x="-94.5" y="240" width="60" height="80" as="geometry" />
        </mxCell>
      </root>
    </mxGraphModel>
  </diagram>
  <diagram id="tOIB4stBXrP9FnA3d9l1" name="Page-7">
    <mxGraphModel dx="2098" dy="-1642" grid="0" gridSize="10" guides="1" tooltips="0" connect="1" arrows="1" fold="1" page="0" pageScale="1" pageWidth="827" pageHeight="1169" math="0" shadow="0">
      <root>
        <mxCell id="v-B4XhR-AsIyT0aAJehn-0" />
        <mxCell id="v-B4XhR-AsIyT0aAJehn-1" parent="v-B4XhR-AsIyT0aAJehn-0" />
        <mxCell id="dtYNOoaZ_qPLJBCiqNsf-21" value="" style="rounded=0;whiteSpace=wrap;html=1;sketch=1;" vertex="1" parent="v-B4XhR-AsIyT0aAJehn-1">
          <mxGeometry x="-211" y="3480" width="326" height="183" as="geometry" />
        </mxCell>
        <mxCell id="dtYNOoaZ_qPLJBCiqNsf-20" value="" style="rounded=0;whiteSpace=wrap;html=1;sketch=1;" vertex="1" parent="v-B4XhR-AsIyT0aAJehn-1">
          <mxGeometry x="-211" y="3272" width="324" height="146" as="geometry" />
        </mxCell>
        <mxCell id="dtYNOoaZ_qPLJBCiqNsf-19" value="" style="rounded=0;whiteSpace=wrap;html=1;sketch=1;" vertex="1" parent="v-B4XhR-AsIyT0aAJehn-1">
          <mxGeometry x="-676" y="3476" width="326" height="183" as="geometry" />
        </mxCell>
        <mxCell id="dtYNOoaZ_qPLJBCiqNsf-18" value="" style="rounded=0;whiteSpace=wrap;html=1;sketch=1;" vertex="1" parent="v-B4XhR-AsIyT0aAJehn-1">
          <mxGeometry x="-674" y="3272" width="326" height="183" as="geometry" />
        </mxCell>
        <mxCell id="P1QQUBdWoWhtUJG79rnK-14" value="" style="group;sketch=1;" parent="v-B4XhR-AsIyT0aAJehn-1" vertex="1" connectable="0">
          <mxGeometry x="-680" y="2404" width="345" height="756" as="geometry" />
        </mxCell>
        <mxCell id="P1QQUBdWoWhtUJG79rnK-0" value="是否是叶子节点" style="strokeWidth=2;html=1;shape=mxgraph.flowchart.decision;whiteSpace=wrap;sketch=1;" parent="P1QQUBdWoWhtUJG79rnK-14" vertex="1">
          <mxGeometry x="73" width="204" height="100" as="geometry" />
        </mxCell>
        <mxCell id="P1QQUBdWoWhtUJG79rnK-1" value="两个节点是否均为null或均为非null" style="strokeWidth=2;html=1;shape=mxgraph.flowchart.decision;whiteSpace=wrap;sketch=1;" parent="P1QQUBdWoWhtUJG79rnK-14" vertex="1">
          <mxGeometry x="73" y="125" width="204" height="100" as="geometry" />
        </mxCell>
        <mxCell id="P1QQUBdWoWhtUJG79rnK-6" value="" style="edgeStyle=orthogonalEdgeStyle;rounded=0;orthogonalLoop=1;jettySize=auto;html=1;sketch=1;" parent="P1QQUBdWoWhtUJG79rnK-14" source="P1QQUBdWoWhtUJG79rnK-0" target="P1QQUBdWoWhtUJG79rnK-1" edge="1">
          <mxGeometry relative="1" as="geometry" />
        </mxCell>
        <mxCell id="P1QQUBdWoWhtUJG79rnK-2" value="两个节点是否参数个数相同" style="strokeWidth=2;html=1;shape=mxgraph.flowchart.decision;whiteSpace=wrap;sketch=1;" parent="P1QQUBdWoWhtUJG79rnK-14" vertex="1">
          <mxGeometry x="73" y="274" width="204" height="100" as="geometry" />
        </mxCell>
        <mxCell id="P1QQUBdWoWhtUJG79rnK-7" value="" style="edgeStyle=orthogonalEdgeStyle;rounded=0;orthogonalLoop=1;jettySize=auto;html=1;sketch=1;" parent="P1QQUBdWoWhtUJG79rnK-14" source="P1QQUBdWoWhtUJG79rnK-1" target="P1QQUBdWoWhtUJG79rnK-2" edge="1">
          <mxGeometry relative="1" as="geometry" />
        </mxCell>
        <mxCell id="P1QQUBdWoWhtUJG79rnK-3" value="节点是否参数相同" style="strokeWidth=2;html=1;shape=mxgraph.flowchart.decision;whiteSpace=wrap;sketch=1;" parent="P1QQUBdWoWhtUJG79rnK-14" vertex="1">
          <mxGeometry x="73" y="397" width="204" height="100" as="geometry" />
        </mxCell>
        <mxCell id="P1QQUBdWoWhtUJG79rnK-8" value="" style="edgeStyle=orthogonalEdgeStyle;rounded=0;orthogonalLoop=1;jettySize=auto;html=1;sketch=1;" parent="P1QQUBdWoWhtUJG79rnK-14" source="P1QQUBdWoWhtUJG79rnK-2" target="P1QQUBdWoWhtUJG79rnK-3" edge="1">
          <mxGeometry relative="1" as="geometry" />
        </mxCell>
        <mxCell id="P1QQUBdWoWhtUJG79rnK-4" value="节点的父节点个数是否相同" style="strokeWidth=2;html=1;shape=mxgraph.flowchart.decision;whiteSpace=wrap;sketch=1;" parent="P1QQUBdWoWhtUJG79rnK-14" vertex="1">
          <mxGeometry x="73" y="547" width="204" height="100" as="geometry" />
        </mxCell>
        <mxCell id="P1QQUBdWoWhtUJG79rnK-9" value="" style="edgeStyle=orthogonalEdgeStyle;rounded=0;orthogonalLoop=1;jettySize=auto;html=1;sketch=1;" parent="P1QQUBdWoWhtUJG79rnK-14" source="P1QQUBdWoWhtUJG79rnK-3" target="P1QQUBdWoWhtUJG79rnK-4" edge="1">
          <mxGeometry relative="1" as="geometry" />
        </mxCell>
        <mxCell id="P1QQUBdWoWhtUJG79rnK-5" value="节点父节点类型是否相同" style="strokeWidth=2;html=1;shape=mxgraph.flowchart.decision;whiteSpace=wrap;sketch=1;" parent="P1QQUBdWoWhtUJG79rnK-14" vertex="1">
          <mxGeometry x="73" y="671" width="204" height="100" as="geometry" />
        </mxCell>
        <mxCell id="P1QQUBdWoWhtUJG79rnK-10" value="" style="edgeStyle=orthogonalEdgeStyle;rounded=0;orthogonalLoop=1;jettySize=auto;html=1;sketch=1;" parent="P1QQUBdWoWhtUJG79rnK-14" source="P1QQUBdWoWhtUJG79rnK-4" target="P1QQUBdWoWhtUJG79rnK-5" edge="1">
          <mxGeometry relative="1" as="geometry" />
        </mxCell>
        <mxCell id="P1QQUBdWoWhtUJG79rnK-11" value="" style="strokeWidth=2;html=1;shape=mxgraph.flowchart.annotation_2;align=left;labelPosition=right;pointerEvents=1;direction=west;sketch=1;" parent="P1QQUBdWoWhtUJG79rnK-14" vertex="1">
          <mxGeometry x="295" width="50" height="200" as="geometry" />
        </mxCell>
        <mxCell id="P1QQUBdWoWhtUJG79rnK-12" value="" style="strokeWidth=2;html=1;shape=mxgraph.flowchart.annotation_2;align=left;labelPosition=right;pointerEvents=1;direction=west;sketch=1;" parent="P1QQUBdWoWhtUJG79rnK-14" vertex="1">
          <mxGeometry x="295" y="266" width="50" height="200" as="geometry" />
        </mxCell>
        <mxCell id="P1QQUBdWoWhtUJG79rnK-13" value="" style="strokeWidth=2;html=1;shape=mxgraph.flowchart.annotation_2;align=left;labelPosition=right;pointerEvents=1;direction=west;sketch=1;" parent="P1QQUBdWoWhtUJG79rnK-14" vertex="1">
          <mxGeometry x="295" y="536" width="50" height="200" as="geometry" />
        </mxCell>
        <mxCell id="ykeNx4i7KaKGDKPvj9Q_-0" value="&lt;p style=&quot;margin: 0px ; margin-top: 4px ; text-align: center&quot;&gt;&lt;i&gt;&amp;lt;&amp;lt;Interface&amp;gt;&amp;gt;&lt;/i&gt;&lt;br&gt;&lt;/p&gt;&lt;p style=&quot;margin: 0px ; margin-top: 4px ; text-align: center&quot;&gt;&lt;b&gt;&lt;span style=&quot;font-size: 9.8pt ; text-align: left&quot;&gt;Comparator&lt;/span&gt;Interface&lt;/b&gt;&lt;/p&gt;&lt;p style=&quot;margin: 0px ; margin-left: 4px&quot;&gt;&lt;br&gt;&lt;/p&gt;&lt;hr size=&quot;1&quot;&gt;&lt;p style=&quot;margin: 0px ; margin-left: 4px&quot;&gt;+ compare(a, b Node,&amp;nbsp;&lt;span&gt;nodeMap&lt;/span&gt;&lt;/p&gt;&lt;p style=&quot;margin: 0px ; margin-left: 4px&quot;&gt;&lt;span&gt;&amp;nbsp;Map&amp;lt;String, Node&amp;gt; ): bool&amp;nbsp;&lt;/span&gt;&lt;/p&gt;" style="verticalAlign=top;align=left;overflow=fill;fontSize=12;fontFamily=Helvetica;html=1;sketch=1;" parent="v-B4XhR-AsIyT0aAJehn-1" vertex="1">
          <mxGeometry x="68" y="2720.5" width="261" height="108" as="geometry" />
        </mxCell>
        <mxCell id="ykeNx4i7KaKGDKPvj9Q_-1" style="edgeStyle=orthogonalEdgeStyle;rounded=0;orthogonalLoop=1;jettySize=auto;html=1;dashed=1;fontFamily=Helvetica;endArrow=block;endFill=0;entryX=0;entryY=0.5;entryDx=0;entryDy=0;sketch=1;" parent="v-B4XhR-AsIyT0aAJehn-1" source="ykeNx4i7KaKGDKPvj9Q_-2" target="ykeNx4i7KaKGDKPvj9Q_-0" edge="1">
          <mxGeometry relative="1" as="geometry">
            <mxPoint x="-17" y="2135" as="targetPoint" />
          </mxGeometry>
        </mxCell>
        <mxCell id="ykeNx4i7KaKGDKPvj9Q_-8" style="edgeStyle=orthogonalEdgeStyle;rounded=0;orthogonalLoop=1;jettySize=auto;html=1;sketch=1;" parent="v-B4XhR-AsIyT0aAJehn-1" source="ykeNx4i7KaKGDKPvj9Q_-2" target="ykeNx4i7KaKGDKPvj9Q_-4" edge="1">
          <mxGeometry relative="1" as="geometry" />
        </mxCell>
        <mxCell id="ykeNx4i7KaKGDKPvj9Q_-2" value="&lt;p style=&quot;margin: 0px ; margin-top: 4px ; text-align: center&quot;&gt;&lt;b&gt;CurNodeComparator&lt;/b&gt;&lt;/p&gt;&lt;hr size=&quot;1&quot;&gt;&lt;div style=&quot;height: 2px&quot;&gt;+ compare(a, b Node, nodeMap Map&amp;lt;String, Node&amp;gt; ): bool&amp;nbsp;&lt;br&gt;&lt;/div&gt;" style="verticalAlign=top;align=left;overflow=fill;fontSize=12;fontFamily=Helvetica;html=1;sketch=1;" parent="v-B4XhR-AsIyT0aAJehn-1" vertex="1">
          <mxGeometry x="-320" y="2740" width="349" height="69" as="geometry" />
        </mxCell>
        <mxCell id="ykeNx4i7KaKGDKPvj9Q_-3" style="edgeStyle=orthogonalEdgeStyle;rounded=0;orthogonalLoop=1;jettySize=auto;html=1;dashed=1;fontFamily=Helvetica;endArrow=block;endFill=0;exitX=1;exitY=0.5;exitDx=0;exitDy=0;entryX=0.5;entryY=1;entryDx=0;entryDy=0;sketch=1;" parent="v-B4XhR-AsIyT0aAJehn-1" source="ykeNx4i7KaKGDKPvj9Q_-4" target="ykeNx4i7KaKGDKPvj9Q_-0" edge="1">
          <mxGeometry relative="1" as="geometry">
            <mxPoint x="-22" y="2132" as="targetPoint" />
          </mxGeometry>
        </mxCell>
        <mxCell id="ykeNx4i7KaKGDKPvj9Q_-4" value="&lt;p style=&quot;margin: 0px ; margin-top: 4px ; text-align: center&quot;&gt;&lt;b&gt;ParentComparator&lt;/b&gt;&lt;/p&gt;&lt;hr size=&quot;1&quot;&gt;&lt;div style=&quot;height: 2px&quot;&gt;+ compare(a, b Node, nodeMap Map&amp;lt;String, Node&amp;gt; ): bool&amp;nbsp;&lt;br&gt;&lt;/div&gt;" style="verticalAlign=top;align=left;overflow=fill;fontSize=12;fontFamily=Helvetica;html=1;sketch=1;" parent="v-B4XhR-AsIyT0aAJehn-1" vertex="1">
          <mxGeometry x="-320" y="3000" width="349" height="69" as="geometry" />
        </mxCell>
        <mxCell id="ykeNx4i7KaKGDKPvj9Q_-5" style="rounded=0;orthogonalLoop=1;jettySize=auto;html=1;exitX=1;exitY=0.5;exitDx=0;exitDy=0;fontFamily=Helvetica;endArrow=block;endFill=0;dashed=1;edgeStyle=orthogonalEdgeStyle;sketch=1;" parent="v-B4XhR-AsIyT0aAJehn-1" source="ykeNx4i7KaKGDKPvj9Q_-6" target="ykeNx4i7KaKGDKPvj9Q_-0" edge="1">
          <mxGeometry relative="1" as="geometry">
            <mxPoint x="-18" y="2135" as="targetPoint" />
          </mxGeometry>
        </mxCell>
        <mxCell id="ykeNx4i7KaKGDKPvj9Q_-7" style="edgeStyle=orthogonalEdgeStyle;rounded=0;orthogonalLoop=1;jettySize=auto;html=1;entryX=0.5;entryY=0;entryDx=0;entryDy=0;sketch=1;" parent="v-B4XhR-AsIyT0aAJehn-1" source="ykeNx4i7KaKGDKPvj9Q_-6" target="ykeNx4i7KaKGDKPvj9Q_-2" edge="1">
          <mxGeometry relative="1" as="geometry" />
        </mxCell>
        <mxCell id="ykeNx4i7KaKGDKPvj9Q_-6" value="&lt;p style=&quot;margin: 0px ; margin-top: 4px ; text-align: center&quot;&gt;&lt;b&gt;ValidComparator&lt;/b&gt;&lt;/p&gt;&lt;hr size=&quot;1&quot;&gt;&lt;div style=&quot;height: 2px&quot;&gt;+ compare(a, b Node, nodeMap Map&amp;lt;String, Node&amp;gt; ): bool&amp;nbsp;&lt;br&gt;&lt;/div&gt;" style="verticalAlign=top;align=left;overflow=fill;fontSize=12;fontFamily=Helvetica;html=1;sketch=1;" parent="v-B4XhR-AsIyT0aAJehn-1" vertex="1">
          <mxGeometry x="-320" y="2470" width="349" height="57" as="geometry" />
        </mxCell>
        <mxCell id="dtYNOoaZ_qPLJBCiqNsf-0" value="长视频" style="rounded=0;whiteSpace=wrap;html=1;sketch=1;fillColor=#dae8fc;strokeColor=#6c8ebf;" vertex="1" parent="v-B4XhR-AsIyT0aAJehn-1">
          <mxGeometry x="-645" y="3289" width="120" height="60" as="geometry" />
        </mxCell>
        <mxCell id="dtYNOoaZ_qPLJBCiqNsf-1" value="短视频" style="rounded=0;whiteSpace=wrap;html=1;sketch=1;fillColor=#d5e8d4;strokeColor=#82b366;" vertex="1" parent="v-B4XhR-AsIyT0aAJehn-1">
          <mxGeometry x="-510" y="3289" width="120" height="60" as="geometry" />
        </mxCell>
        <mxCell id="dtYNOoaZ_qPLJBCiqNsf-2" value="中视频" style="rounded=0;whiteSpace=wrap;html=1;sketch=1;fillColor=#ffe6cc;strokeColor=#d79b00;" vertex="1" parent="v-B4XhR-AsIyT0aAJehn-1">
          <mxGeometry x="-645" y="3367" width="120" height="60" as="geometry" />
        </mxCell>
        <mxCell id="dtYNOoaZ_qPLJBCiqNsf-3" value="......" style="rounded=0;whiteSpace=wrap;html=1;sketch=1;" vertex="1" parent="v-B4XhR-AsIyT0aAJehn-1">
          <mxGeometry x="-507" y="3367" width="120" height="60" as="geometry" />
        </mxCell>
        <mxCell id="dtYNOoaZ_qPLJBCiqNsf-4" value="搜索" style="rounded=0;whiteSpace=wrap;html=1;sketch=1;fillColor=#d5e8d4;strokeColor=#82b366;" vertex="1" parent="v-B4XhR-AsIyT0aAJehn-1">
          <mxGeometry x="-645" y="3495" width="120" height="60" as="geometry" />
        </mxCell>
        <mxCell id="dtYNOoaZ_qPLJBCiqNsf-5" value="播放" style="rounded=0;whiteSpace=wrap;html=1;sketch=1;fillColor=#dae8fc;strokeColor=#6c8ebf;" vertex="1" parent="v-B4XhR-AsIyT0aAJehn-1">
          <mxGeometry x="-505" y="3493" width="120" height="60" as="geometry" />
        </mxCell>
        <mxCell id="dtYNOoaZ_qPLJBCiqNsf-6" value="收藏" style="rounded=0;whiteSpace=wrap;html=1;sketch=1;fillColor=#ffe6cc;strokeColor=#d79b00;" vertex="1" parent="v-B4XhR-AsIyT0aAJehn-1">
          <mxGeometry x="-645" y="3571" width="120" height="60" as="geometry" />
        </mxCell>
        <mxCell id="dtYNOoaZ_qPLJBCiqNsf-7" value="点赞" style="rounded=0;whiteSpace=wrap;html=1;sketch=1;fillColor=#f8cecc;strokeColor=#b85450;" vertex="1" parent="v-B4XhR-AsIyT0aAJehn-1">
          <mxGeometry x="-505" y="3569" width="120" height="60" as="geometry" />
        </mxCell>
        <mxCell id="dtYNOoaZ_qPLJBCiqNsf-8" value="离线数据" style="shape=cylinder3;whiteSpace=wrap;html=1;boundedLbl=1;backgroundOutline=1;size=15;sketch=1;fillColor=#e1d5e7;strokeColor=#9673a6;" vertex="1" parent="v-B4XhR-AsIyT0aAJehn-1">
          <mxGeometry x="-134" y="3306" width="60" height="80" as="geometry" />
        </mxCell>
        <mxCell id="dtYNOoaZ_qPLJBCiqNsf-9" value="实时数据" style="shape=cylinder3;whiteSpace=wrap;html=1;boundedLbl=1;backgroundOutline=1;size=15;sketch=1;fillColor=#d5e8d4;strokeColor=#82b366;" vertex="1" parent="v-B4XhR-AsIyT0aAJehn-1">
          <mxGeometry x="-0.5" y="3305" width="60" height="80" as="geometry" />
        </mxCell>
        <mxCell id="dtYNOoaZ_qPLJBCiqNsf-11" value="实时画像" style="rounded=0;whiteSpace=wrap;html=1;sketch=1;fillColor=#ffe6cc;strokeColor=#d79b00;" vertex="1" parent="v-B4XhR-AsIyT0aAJehn-1">
          <mxGeometry x="-202" y="3491" width="137" height="138" as="geometry" />
        </mxCell>
        <mxCell id="dtYNOoaZ_qPLJBCiqNsf-12" value="" style="rounded=0;whiteSpace=wrap;html=1;sketch=1;" vertex="1" parent="v-B4XhR-AsIyT0aAJehn-1">
          <mxGeometry x="-52" y="3491" width="163" height="140" as="geometry" />
        </mxCell>
        <mxCell id="dtYNOoaZ_qPLJBCiqNsf-14" value="bert" style="rounded=0;whiteSpace=wrap;html=1;sketch=1;" vertex="1" parent="v-B4XhR-AsIyT0aAJehn-1">
          <mxGeometry x="-47" y="3520" width="68" height="40" as="geometry" />
        </mxCell>
        <mxCell id="dtYNOoaZ_qPLJBCiqNsf-15" value="w2v" style="rounded=0;whiteSpace=wrap;html=1;sketch=1;" vertex="1" parent="v-B4XhR-AsIyT0aAJehn-1">
          <mxGeometry x="-47" y="3576" width="68" height="40" as="geometry" />
        </mxCell>
        <mxCell id="dtYNOoaZ_qPLJBCiqNsf-16" value="dssm" style="rounded=0;whiteSpace=wrap;html=1;sketch=1;" vertex="1" parent="v-B4XhR-AsIyT0aAJehn-1">
          <mxGeometry x="33" y="3520" width="68" height="40" as="geometry" />
        </mxCell>
        <mxCell id="dtYNOoaZ_qPLJBCiqNsf-17" value="..." style="rounded=0;whiteSpace=wrap;html=1;sketch=1;" vertex="1" parent="v-B4XhR-AsIyT0aAJehn-1">
          <mxGeometry x="33" y="3576" width="68" height="40" as="geometry" />
        </mxCell>
        <mxCell id="dtYNOoaZ_qPLJBCiqNsf-25" value="离线画像" style="text;html=1;strokeColor=none;fillColor=none;align=center;verticalAlign=middle;whiteSpace=wrap;rounded=0;sketch=1;" vertex="1" parent="v-B4XhR-AsIyT0aAJehn-1">
          <mxGeometry x="-43" y="3495" width="60" height="30" as="geometry" />
        </mxCell>
        <mxCell id="dtYNOoaZ_qPLJBCiqNsf-26" value="" style="shape=flexArrow;endArrow=classic;html=1;rounded=0;sketch=1;" edge="1" parent="v-B4XhR-AsIyT0aAJehn-1">
          <mxGeometry width="50" height="50" relative="1" as="geometry">
            <mxPoint x="-320" y="3364" as="sourcePoint" />
            <mxPoint x="-234" y="3364" as="targetPoint" />
          </mxGeometry>
        </mxCell>
        <mxCell id="dtYNOoaZ_qPLJBCiqNsf-27" value="上报" style="text;html=1;align=center;verticalAlign=middle;resizable=0;points=[];autosize=1;strokeColor=none;fillColor=none;sketch=1;" vertex="1" parent="v-B4XhR-AsIyT0aAJehn-1">
          <mxGeometry x="-299" y="3337" width="34" height="18" as="geometry" />
        </mxCell>
        <mxCell id="dtYNOoaZ_qPLJBCiqNsf-28" value="" style="shape=flexArrow;endArrow=classic;html=1;rounded=0;sketch=1;" edge="1" parent="v-B4XhR-AsIyT0aAJehn-1">
          <mxGeometry width="50" height="50" relative="1" as="geometry">
            <mxPoint x="-242" y="3576" as="sourcePoint" />
            <mxPoint x="-326" y="3576" as="targetPoint" />
          </mxGeometry>
        </mxCell>
        <mxCell id="dtYNOoaZ_qPLJBCiqNsf-29" value="推荐" style="text;html=1;align=center;verticalAlign=middle;resizable=0;points=[];autosize=1;strokeColor=none;fillColor=none;sketch=1;" vertex="1" parent="v-B4XhR-AsIyT0aAJehn-1">
          <mxGeometry x="-297" y="3551" width="34" height="18" as="geometry" />
        </mxCell>
        <mxCell id="dtYNOoaZ_qPLJBCiqNsf-30" value="" style="shape=flexArrow;endArrow=classic;html=1;rounded=0;sketch=1;width=8;endSize=5.67;" edge="1" parent="v-B4XhR-AsIyT0aAJehn-1">
          <mxGeometry width="50" height="50" relative="1" as="geometry">
            <mxPoint x="-31" y="3427" as="sourcePoint" />
            <mxPoint x="-31" y="3465" as="targetPoint" />
          </mxGeometry>
        </mxCell>
        <mxCell id="dtYNOoaZ_qPLJBCiqNsf-31" value="消费" style="text;html=1;align=center;verticalAlign=middle;resizable=0;points=[];autosize=1;strokeColor=none;fillColor=none;sketch=1;" vertex="1" parent="v-B4XhR-AsIyT0aAJehn-1">
          <mxGeometry x="-15" y="3437" width="34" height="18" as="geometry" />
        </mxCell>
      </root>
    </mxGraphModel>
  </diagram>
</mxfile>
